<?xml version="1.0" encoding="UTF-8" standalone="no"?>
<!-- Created with Inkscape (http://www.inkscape.org/) -->

<svg
   xmlns:dc="http://purl.org/dc/elements/1.1/"
   xmlns:cc="http://creativecommons.org/ns#"
   xmlns:rdf="http://www.w3.org/1999/02/22-rdf-syntax-ns#"
   xmlns:svg="http://www.w3.org/2000/svg"
   xmlns="http://www.w3.org/2000/svg"
   version="1.1"
   width="800"
   height="1050"
   id="svg2">
  <defs
     id="defs4" />
  <metadata
     id="metadata7">
    <rdf:RDF>
      <cc:Work
         rdf:about="">
        <dc:format>image/svg+xml</dc:format>
        <dc:type
           rdf:resource="http://purl.org/dc/dcmitype/StillImage" />
        <dc:title></dc:title>
      </cc:Work>
    </rdf:RDF>
  </metadata>
  <path
     d="M 397.9,35.2 C 205.6,35.5 22.48,382.3 22.48,712.9 c 0,64.1 0.75,124.2 15.9,194 119.52,40 241.52,82.8 359.52,122.1 118,-39.6 240.5,-81.6 359.7,-122.1 15.2,-69.8 15.9,-129.9 15.9,-194 C 773.5,382.3 590.4,35.5 398.1,35.2 z"
     id="path2997"
     style="fill:#114431;fill-opacity:1;stroke:none" />
  <path
     d="m 417.5,137.8 c -50.4,25.6 -70.3,88.2 -70.3,128 0,131.4 138.9,167.4 98.4,299.6 40.5,-28.6 56.6,-65.6 56.6,-108.1 0,-112 -101.1,-189.8 -84.7,-319.5 z M 211.3,520.1 C 131.5,520.1 105,582.2 105,625 c 0,61.6 47.4,82.4 71.5,81.5 -7,-11.7 -13.9,-24.6 -13.9,-40 0,-33.6 24.8,-54.7 62.6,-54.7 86.7,0 149.1,81.2 165,135.4 14.1,-52.9 -44.5,-227.1 -178.9,-227.1 z m 382.8,0 c -134.4,0 -193,174.2 -178.8,227.1 15.9,-54.2 78.2,-135.4 164.9,-135.4 37.8,0 62.6,21.1 62.6,54.7 0,15.4 -6.9,28.3 -13.9,40 24.1,0.9 71.6,-19.9 71.6,-81.5 0,-42.8 -26.6,-104.9 -106.4,-104.9 z"
     id="path3018"
     style="fill:#ffffff;stroke:none" />
  <path
     d="m 307,316.9 c -13.9,30.6 -27.4,61.9 -27.4,94.9 0,116 114.6,130.9 116.8,250.2 20.9,-33.5 29.3,-73.8 29.1,-109.8 C 424.7,425.5 329.6,431 307,316.9 z"
     id="path3040"
     style="fill:#fdb930;fill-opacity:1;stroke:none" />
  <path
     d="m 404.1,780.2 c -15.2,0 -41.5,7.5 -41.5,11 l 0,37.7 52.7,8.5 c 4.7,0.7 4.9,3.4 4.9,6.9 0,5.5 -7.9,7.2 -14.1,7.2 -6.2,0 -19.4,-2 -19.4,-4.7 l 0,-6.2 -24.1,0 0,20.9 c 0,4.7 25.4,11.6 41.5,11.6 15.9,0 41.5,-7.2 41.5,-11.6 l 0,-37 -53.9,-10.7 c -2.3,-0.5 -4.5,-2.5 -4.5,-6.2 0,-5.3 8,-7.5 16.4,-7.5 8.4,0 16.9,1.2 16.9,3.7 l 0,5.3 25.1,0 0,-18.9 c 0,-3 -26.6,-10 -41.5,-10 z m 58.1,5.3 0,22.1 30.1,0 0,58.1 27.6,0 0,-58.1 30,0 0,-22.1 -87.7,0 z m 102.9,0 0,80.2 14.9,0 13.6,0 47.7,0 0,-20.6 -47.7,0 0,-59.6 -28.5,0 z"
     id="path3116"
     style="fill:#ffffff;stroke:none" />
  <path
     d="m 200.1,783 c -24.3,0.2 -37,5.7 -37,10.2 l 0,72.5 25.1,0 0,-24.4 24.3,0 0,24.4 25.7,0 0,-71.3 c 0,-5 -13.7,-11.7 -38.1,-11.4 z m 98.9,0 c -16.6,0 -39,5.9 -39,11.4 l 0,66.3 c 0,5 24.9,9.7 39,9.7 14.2,0 40.8,-5.2 40.8,-9.2 l 0,-19.9 -25.1,0 0,6 c 0,2.5 -8.7,4.5 -15.7,4 -6.9,-0.5 -13.9,-1.3 -13.9,-5 l 0,-39.5 c 0,-3.7 8,-5.2 13.9,-5.2 6,0 15.7,1.7 15.7,5.2 l 0,9.7 25.1,0 0,-24.6 c 0,-4 -24.4,-8.9 -40.8,-8.9 z m -98.9,17.9 c 5.2,0 12.2,2.9 12.2,5.4 l 0,16.7 -24.1,0 0,-16.4 c 0,-2.5 6.9,-5.7 11.9,-5.7 z"
     id="path3114"
     style="fill:#fdb930;fill-opacity:1;stroke:none" />
</svg>
