<?xml version="1.0" encoding="utf-8"?>
<!-- Generator: Adobe Illustrator 14.0.0, SVG Export Plug-In . SVG Version: 6.00 Build 43363)  -->
<!DOCTYPE svg PUBLIC "-//W3C//DTD SVG 1.1//EN" "http://www.w3.org/Graphics/SVG/1.1/DTD/svg11.dtd">
<svg version="1.1" id="Capa_1" xmlns="http://www.w3.org/2000/svg" xmlns:xlink="http://www.w3.org/1999/xlink" x="0px" y="0px"
	 width="224.667px" height="288px" viewBox="0 0 224.667 288" enable-background="new 0 0 224.667 288" xml:space="preserve">
<g>
	<path fill-rule="evenodd" clip-rule="evenodd" fill="#2E3192" d="M112.148,278.632c-11.508-6.313-22.43-12.9-32.987-20.783
		c-7.133-5.324-14.313-11.412-20.572-17.747c-13.286-13.444-24.42-28.892-32.424-47.41c-10.943-25.322-15.797-51.205-15.787-94.883
		l0.008-34.349H213.91l0.008,34.349c0.012,43.679-4.844,69.561-15.787,94.883c-8.002,18.519-19.139,33.966-32.424,47.41
		c-6.258,6.335-13.439,12.423-20.57,17.747C134.58,265.732,123.656,272.319,112.148,278.632L112.148,278.632z"/>
	<path fill-rule="evenodd" clip-rule="evenodd" fill="#FFFFFF" d="M14.76,67.839l0.027,34.474
		c0.03,37.898,4.912,65.546,15.828,89.643c15.211,33.579,40.78,59.359,80.467,81.126l1.066,0.586l1.066-0.586
		c39.686-21.77,65.256-47.547,80.467-81.126c10.916-24.097,15.799-51.745,15.828-89.643l0.027-34.474H14.76L14.76,67.839z"/>
	<path fill-rule="evenodd" clip-rule="evenodd" fill="#EE3124" d="M19.197,72.271c0.003,3.848,0.024,30.038,0.024,30.038
		c0.029,37.238,4.789,64.322,15.432,87.817c7.847,17.321,18.324,32.246,32.032,45.628c3.311,3.233,6.826,6.376,10.546,9.446v-112.5
		l69.833-13.502v126.001c3.721-3.07,7.236-6.213,10.547-9.446c13.709-13.382,24.186-28.307,32.031-45.628
		c10.645-23.495,15.404-50.579,15.434-87.817c0,0,0.02-26.19,0.021-30.038C200.814,72.271,23.481,72.271,19.197,72.271
		L19.197,72.271z"/>
	<path fill-rule="evenodd" clip-rule="evenodd" fill="#FFFFFF" d="M200.721,102.437v-25.79H23.576v26.61
		c0,11.606,0.528,22.589,1.657,32.917L200.721,102.437L200.721,102.437z"/>
	<g>
		<path fill-rule="evenodd" clip-rule="evenodd" fill="#2E3192" d="M112.42,81.918c-0.18,0.493-12.511,34.311-12.96,35.542
			c1.079-0.206,6.286-1.207,6.655-1.279c0.145-0.395,3.48-9.498,3.48-9.498h7.648c0,0,1.021,6.441,1.133,7.148
			c0.65-0.125,5.102-0.98,5.713-1.098c-0.113-0.717-4.779-30.183-4.881-30.815C118.629,81.918,112.9,81.918,112.42,81.918z
			 M111.713,100.866l2.699-7.419l0.514-1.407l1.396,8.826H111.713z"/>
		<path fill-rule="evenodd" clip-rule="evenodd" fill="#2E3192" d="M59.596,81.918c-0.062,0.58-0.537,5.109-0.612,5.816
			c0.756,0,6.853-0.001,6.853-0.001s-3.78,35.966-3.887,36.977c0.838-0.162,5.492-1.056,5.969-1.148
			c0.06-0.561,3.767-35.828,3.767-35.828s5.825,0,6.449,0c0.062-0.581,0.537-5.108,0.611-5.815
			C77.937,81.918,60.255,81.918,59.596,81.918z"/>
		<path fill-rule="evenodd" clip-rule="evenodd" fill="#2E3192" d="M88.4,81.918c-0.709,0-5.264,0-5.848,0
			c-0.07,0.673-4.06,38.626-4.166,39.632c0.953-0.185,13.55-2.626,13.55-2.626s3.402-0.662,3.892-0.757
			c0.051-0.483,0.546-5.199,0.635-6.049c-0.939,0.183-11.472,2.23-11.472,2.23S88.313,82.751,88.4,81.918z"/>
		<path fill-rule="evenodd" clip-rule="evenodd" fill="#2E3192" d="M43.044,81.918c-0.149,0.561-12.788,47.813-13.099,48.973
			c0.981-0.189,5.94-1.142,6.347-1.221c0.122-0.454,3.74-14.041,3.74-14.041h8.989c0,0,1.609,10.481,1.723,11.221
			c0.655-0.126,5.1-0.98,5.713-1.098c-0.114-0.723-6.789-43.194-6.89-43.834C48.991,81.918,43.564,81.918,43.044,81.918z
			 M41.592,109.813l3.617-13.501l0.473-1.761l2.417,15.262H41.592z"/>
		<path fill-rule="evenodd" clip-rule="evenodd" fill="#2E3192" d="M146.336,97.673c0,0-8.52-15.366-8.736-15.755
			c-0.4,0-5.477,0-6.082,0c-0.068,0.668-3.027,28.962-3.131,29.955c0.838-0.16,5.49-1.056,5.969-1.147
			c0.059-0.554,1.996-19.171,1.996-19.171s8.398,16.658,8.635,17.127c0.523-0.103,5.699-1.104,6.191-1.198
			c0.059-0.55,2.576-24.747,2.66-25.565c-0.709,0-5.264,0-5.848,0C147.92,82.58,146.336,97.673,146.336,97.673z"/>
		<path fill-rule="evenodd" clip-rule="evenodd" fill="#2E3192" d="M193.893,86.478c0.057-0.555,0.408-3.887,0.479-4.56
			c-0.668,0-6.674,0-6.674,0s-5.65,0-6.279,0c-0.066,0.654-2.008,19.25-2.107,20.222c0.928-0.179,12.635-2.442,13.152-2.542
			c0.051-0.453,0.393-3.538,0.475-4.288c-0.85,0.109-7.213,0.929-7.213,0.929l0.299-2.571c0,0,6.521-0.483,7.105-0.524
			c0.057-0.504,0.395-3.454,0.473-4.136c-0.785,0.022-7.1,0.198-7.1,0.198l0.285-2.728
			C186.787,86.478,193.262,86.478,193.893,86.478z"/>
		<path fill-rule="evenodd" clip-rule="evenodd" fill="#2E3192" d="M157.658,87.445c0.744,0,6.002-0.001,6.002-0.001
			s-1.73,17.057-1.83,18.033c0.834-0.159,5.49-1.055,5.969-1.146c0.057-0.554,1.709-16.887,1.709-16.887s6.672,0,7.301,0
			c0.063-0.572,0.531-4.824,0.607-5.526c-0.813,0-18.494,0-19.15,0C158.203,82.49,157.736,86.742,157.658,87.445z"/>
	</g>
	<path fill-rule="evenodd" clip-rule="evenodd" fill="#2E3192" d="M79.979,132.171v115.252c9.354,7.426,19.998,14.427,32.169,21.17
		c12.172-6.743,22.814-13.744,32.17-21.17V119.731L79.979,132.171L79.979,132.171z"/>
	<path fill-rule="evenodd" clip-rule="evenodd" fill="#FFDD00" d="M21.44,141.268c0.928,7.322,2.156,14.204,3.701,20.73
		l179.095-34.814c0.479-6.697,0.75-13.746,0.82-21.216L21.44,141.268L21.44,141.268z"/>
	<polygon fill-rule="evenodd" clip-rule="evenodd" fill="#FFFFFF" points="147.064,121.487 77.231,134.913 77.231,147.395 
		147.064,133.821 147.064,121.487 	"/>
	<path fill-rule="evenodd" clip-rule="evenodd" fill="#448D46" d="M77.231,134.913l-50.907,9.788
		c0.385,2.613,0.813,5.181,1.286,7.703c0.28,1.504,0.579,2.991,0.893,4.464l48.729-9.473V134.913L77.231,134.913z"/>
	<path fill-rule="evenodd" clip-rule="evenodd" fill="#EE3124" d="M200.133,123.505c0.246-4.017,0.41-8.124,0.504-12.316
		l-53.572,10.299v12.334L200.133,123.505L200.133,123.505z"/>
	<path fill-rule="evenodd" clip-rule="evenodd" fill="#FFFFFF" d="M95.784,203.125v-29.36h16.447v4.858H101.27v6.93h9.334v4.778
		h-9.334v12.794H95.784L95.784,203.125z M131.273,223.344c-0.186,3.024-1.17,5.337-2.951,6.918
		c-1.783,1.584-4.375,2.378-7.592,2.378c-3.814,0-6.711-1.277-8.678-3.826c-1.967-2.548-2.951-6.283-2.951-11.225
		c0-4.924,1.016-8.701,3.039-11.331c2.027-2.636,4.924-3.955,8.695-3.955c3.082,0,5.607,0.795,7.41,2.378
		c1.801,1.582,2.766,3.777,2.889,6.576h-5.053c-0.059-1.407-0.531-2.529-1.422-3.369c-0.893-0.843-2.158-1.264-3.617-1.264
		c-2.125,0-3.729,0.911-4.814,2.737c-1.082,1.822-1.623,4.525-1.623,8.113c0,3.69,0.535,6.42,1.6,8.208
		c1.061,1.785,2.689,2.677,4.873,2.677c1.412,0,2.656-0.459,3.553-1.372c0.9-0.918,1.393-2.128,1.486-3.644H131.273L131.273,223.344
		z"/>
	<g>
		<polygon fill-rule="evenodd" clip-rule="evenodd" fill="#FDBF1F" points="43.136,23.595 38.149,8.141 33.161,23.595 
			16.923,23.563 30.078,33.08 25.031,48.515 38.149,38.945 51.267,48.515 46.22,33.08 59.374,23.563 		"/>
		<polygon fill-rule="evenodd" clip-rule="evenodd" fill="#FDBF1F" points="118.859,23.595 113.871,8.141 108.883,23.595 
			92.646,23.563 105.801,33.08 100.754,48.515 113.871,38.945 126.99,48.515 121.943,33.08 135.096,23.563 		"/>
		<polygon fill-rule="evenodd" clip-rule="evenodd" fill="#FDBF1F" points="207.373,23.563 191.135,23.595 186.148,8.141 
			181.16,23.595 164.922,23.563 178.078,33.08 173.029,48.515 186.148,38.945 199.266,48.515 194.219,33.08 		"/>
	</g>
</g>
</svg>
