<?xml version="1.0" encoding="utf-8"?>
<!-- Generator: Adobe Illustrator 15.0.0, SVG Export Plug-In . SVG Version: 6.00 Build 0)  -->
<!DOCTYPE svg PUBLIC "-//W3C//DTD SVG 1.1//EN" "http://www.w3.org/Graphics/SVG/1.1/DTD/svg11.dtd">
<svg version="1.1" id="Layer_1" xmlns="http://www.w3.org/2000/svg" xmlns:xlink="http://www.w3.org/1999/xlink" x="0px" y="0px"
	 width="216px" height="216px" viewBox="0 0 216 216" enable-background="new 0 0 216 216" xml:space="preserve">
<g>
	<g>
		<rect x="75.6" y="75.141" fill="#FF1822" width="64.8" height="64.8"/>
		<g>
			<path fill="#0A489B" d="M76.443,73.55V63.044h4.09c0.477,0,1.428,0.21,2.031,1.19c0.447,0.729,0.574,1.892,0.574,3.629
				c0,2.072,0,4.468-1.611,5.406c-0.434,0.252-0.967,0.28-1.457,0.28H76.443z M79.257,72.009c1.752,0,1.863-0.925,1.863-3.964
				c0-2.479-0.252-3.46-1.429-3.46h-1.288v7.424H79.257z"/>
			<path fill="#0A489B" d="M84.576,73.55V63.044h5.52v1.541h-3.559v2.647h3.277v1.541h-3.277v3.235h3.559v1.541H84.576z"/>
			<path fill="#0A489B" d="M91.324,73.55V63.044h4.006c1.877,0,2.451,1.513,2.451,2.983c0,0.896-0.238,1.905-0.98,2.494
				c-0.616,0.49-1.442,0.645-2.199,0.63h-1.316v4.398H91.324z M93.285,67.611h1.051c0.854,0,1.429-0.365,1.429-1.64
				c0-1.204-0.477-1.387-1.583-1.387h-0.896V67.611z"/>
			<path fill="#0A489B" d="M98.703,67.457c0.084-2.676,0.293-4.665,3.432-4.665c3.137,0,3.348,1.989,3.432,4.665v1.498
				c0,2.802-0.211,4.847-3.432,4.847c-3.223,0-3.432-2.045-3.432-4.847V67.457z M100.719,69.936c0,0.869,0.069,2.283,1.415,2.283
				c1.4,0,1.414-1.442,1.414-2.451v-2.689c0-0.84,0.043-2.703-1.414-2.703c-1.541,0-1.415,1.835-1.415,2.647V69.936z"/>
			<path fill="#0A489B" d="M108.979,69.025v4.524h-1.962V63.044h3.713c1.695,0,2.983,0.589,2.983,2.521
				c0,1.149-0.294,2.354-1.61,2.536v0.027c1.162,0.154,1.512,0.896,1.512,1.904c0,0.436-0.056,3.012,0.421,3.32v0.196h-2.157
				c-0.238-0.673-0.196-1.961-0.21-2.661c-0.015-0.645,0-1.527-0.673-1.723c-0.531-0.154-1.106-0.141-1.666-0.141H108.979z
				 M108.979,67.484h1.54c0.645-0.042,1.149-0.462,1.149-1.513c0-1.177-0.49-1.372-1.233-1.387h-1.456V67.484z"/>
			<path fill="#0A489B" d="M114.326,63.044h6.541v1.541h-2.283v8.965h-1.961v-8.965h-2.297V63.044z"/>
			<path fill="#0A489B" d="M121.746,73.55V63.044h1.961V73.55H121.746z"/>
			<path fill="#0A489B" d="M129.77,63.044h2.101l-2.269,10.506h-2.619l-2.325-10.506h2.102l1.232,6.737
				c0.111,0.589,0.182,1.191,0.238,1.793c0.027,0.281,0.084,0.574,0.084,0.869h0.027c0-0.295,0.057-0.588,0.084-0.869
				c0.057-0.602,0.127-1.204,0.238-1.793L129.77,63.044z"/>
			<path fill="#0A489B" d="M132.694,67.457c0.084-2.676,0.294-4.665,3.432-4.665s3.349,1.989,3.433,4.665v1.498
				c0,2.802-0.211,4.847-3.433,4.847s-3.432-2.045-3.432-4.847V67.457z M134.71,69.936c0,0.869,0.07,2.283,1.415,2.283
				c1.401,0,1.415-1.442,1.415-2.451v-2.689c0-0.84,0.042-2.703-1.415-2.703c-1.54,0-1.415,1.835-1.415,2.647V69.936z"/>
		</g>
		<g>
			<path fill="#0A489B" d="M82.347,149.216c-0.015,0.196-0.028,0.406-0.043,0.603c-0.098,1.919-0.742,3.39-2.928,3.39
				c-3.221,0-3.432-2.045-3.432-4.847v-1.499c0.084-2.675,0.295-4.664,3.432-4.664c1.752,0.028,2.732,0.925,2.872,2.718
				c0.028,0.266,0.056,0.532,0.042,0.798h-1.934c-0.084-0.672-0.014-1.933-0.98-1.933c-1.54,0-1.414,1.835-1.414,2.647v2.913
				c0,0.869,0.07,2.283,1.414,2.283c1.079,0,0.953-1.736,0.995-2.409H82.347z"/>
			<path fill="#0A489B" d="M85.775,148.432v4.524h-1.961V142.45h3.712c1.694,0,2.983,0.589,2.983,2.521
				c0,1.148-0.294,2.354-1.611,2.535v0.028c1.163,0.154,1.514,0.896,1.514,1.905c0,0.434-0.057,3.012,0.42,3.319v0.196h-2.157
				c-0.238-0.673-0.196-1.961-0.21-2.661c-0.014-0.645,0-1.527-0.672-1.724c-0.533-0.153-1.107-0.14-1.668-0.14H85.775z
				 M85.775,146.891h1.541c0.645-0.042,1.148-0.462,1.148-1.513c0-1.177-0.49-1.373-1.232-1.387h-1.457V146.891z"/>
			<path fill="#0A489B" d="M97.032,142.45h1.961v7.326c0,2.325-0.757,3.432-3.319,3.432c-2.592,0-3.348-1.106-3.348-3.432v-7.326
				h1.961v7.158c0,1.009,0.069,2.017,1.4,2.017c1.274,0,1.345-1.008,1.345-2.017V142.45z"/>
			<path fill="#0A489B" d="M100.319,151.387l3.376-6.513c0.168-0.309,0.309-0.631,0.546-0.925c-0.252,0.042-0.505,0.042-0.757,0.042
				h-2.941v-1.541h5.744v1.569l-3.377,6.514c-0.168,0.308-0.308,0.63-0.546,0.924c0.252-0.042,0.505-0.042,0.757-0.042h3.291v1.541
				h-6.093V151.387z"/>
			<path fill="#0A489B" d="M110.343,152.956l2.508-10.506h2.646l2.381,10.506h-2.102l-0.518-2.661h-2.297l-0.518,2.661H110.343z
				 M113.271,148.754h1.68l-0.531-2.983c-0.098-0.49-0.141-0.967-0.197-1.457c-0.014-0.238-0.041-0.477-0.068-0.7h-0.029
				c-0.027,0.224-0.055,0.462-0.07,0.7c-0.055,0.49-0.098,0.967-0.195,1.457L113.271,148.754z"/>
			<path fill="#0A489B" d="M118.392,151.387l3.377-6.513c0.168-0.309,0.309-0.631,0.547-0.925c-0.254,0.042-0.506,0.042-0.758,0.042
				h-2.941v-1.541h5.744v1.569l-3.377,6.514c-0.168,0.308-0.309,0.63-0.545,0.924c0.252-0.042,0.504-0.042,0.756-0.042h3.291v1.541
				h-6.094V151.387z"/>
			<path fill="#0A489B" d="M130.519,142.45h1.961v7.326c0,2.325-0.756,3.432-3.318,3.432c-2.592,0-3.35-1.106-3.35-3.432v-7.326
				h1.963v7.158c0,1.009,0.068,2.017,1.4,2.017c1.273,0,1.344-1.008,1.344-2.017V142.45z"/>
			<path fill="#0A489B" d="M134.296,152.956V142.45h1.963v8.965h3.641v1.541H134.296z"/>
		</g>
	</g>
	<g>
		<path fill="#FFFFFF" d="M135.36,107.999c0,15.111-12.253,27.359-27.359,27.359c-15.11,0-27.36-12.248-27.36-27.359
			c0-15.109,12.25-27.357,27.36-27.357C123.107,80.642,135.36,92.89,135.36,107.999z"/>
		<g id="XMLID_1_">
			<g>
				<g id="XMLID_2_">
					<g>
						<polygon fill="#0A489B" points="128.98,100.92 128.98,114.75 115.01,114.75 115.01,128.729 101.18,128.729 101.18,114.75 
							87.21,114.75 87.21,100.92 101.18,100.92 101.18,86.95 115.01,86.95 115.01,100.92 						"/>
					</g>
					<g>
					</g>
				</g>
			</g>
			<g>
			</g>
		</g>
	</g>
	<g>
		<path fill="#0A489B" d="M108.005,46.274c34.029,0,61.715,27.69,61.715,61.727c0,34.035-27.686,61.725-61.715,61.725
			c-34.035,0-61.726-27.689-61.726-61.725C46.28,73.965,73.97,46.274,108.005,46.274 M108.005,26.274
			c-45.136,0-81.726,36.59-81.726,81.727s36.59,81.725,81.726,81.725c45.126,0,81.715-36.588,81.715-81.725
			S153.131,26.274,108.005,26.274L108.005,26.274z"/>
		<g>
			<g>
				<polygon fill="#FFFFFF" points="37.676,86.948 39.59,91.16 44.207,90.829 40.792,93.953 42.533,98.239 38.507,95.957 
					34.968,98.938 35.896,94.404 31.966,91.958 36.566,91.44 				"/>
				<polygon fill="#FFFFFF" points="51.728,61.641 51.955,66.261 56.369,67.654 52.042,69.3 52.082,73.926 49.181,70.32 
					44.792,71.787 47.325,67.915 44.574,64.193 49.041,65.406 				"/>
				<polygon fill="#FFFFFF" points="73.729,43.681 72.19,48.044 75.747,51.005 71.12,50.89 69.405,55.187 68.084,50.75 
					63.467,50.446 67.278,47.821 66.141,43.335 69.815,46.149 				"/>
				<polygon fill="#FFFFFF" points="100.781,36.077 97.588,39.426 99.62,43.584 95.446,41.583 92.121,44.799 92.735,40.211 
					88.648,38.041 93.2,37.209 94.001,32.651 96.199,36.724 				"/>
			</g>
			<g>
				<polygon fill="#FFFFFF" points="179.824,86.948 177.91,91.16 173.294,90.829 176.708,93.952 174.968,98.239 178.994,95.956 
					182.533,98.938 181.605,94.403 185.533,91.958 180.935,91.44 				"/>
				<polygon fill="#FFFFFF" points="165.773,61.64 165.544,66.261 161.13,67.654 165.457,69.3 165.417,73.926 168.32,70.319 
					172.708,71.787 170.175,67.915 172.925,64.193 168.46,65.405 				"/>
				<polygon fill="#FFFFFF" points="143.771,43.681 145.31,48.044 141.753,51.005 146.38,50.89 148.095,55.187 149.416,50.749 
					154.033,50.446 150.222,47.821 151.359,43.335 147.685,46.149 				"/>
				<polygon fill="#FFFFFF" points="116.72,36.077 119.912,39.425 117.88,43.584 122.054,41.583 125.38,44.799 124.765,40.211 
					128.853,38.041 124.3,37.209 123.5,32.651 121.302,36.724 				"/>
			</g>
		</g>
		<g>
			<g>
				<path fill="#FFFFFF" d="M68.958,173.039c-0.786-0.485-1.178-0.733-1.954-1.239c1.651-2.535,2.478-3.802,4.129-6.337
					c-0.01-0.007-0.014-0.009-0.024-0.016c-2.336,2.087-3.532,3.105-5.978,5.096c-0.805-0.554-1.205-0.835-1.998-1.41
					c1.069-2.961,1.637-4.428,2.828-7.322c-0.01-0.007-0.016-0.01-0.025-0.017c-1.834,2.406-2.75,3.61-4.584,6.016
					c-0.744-0.567-1.115-0.857-1.848-1.445c2.266-2.823,3.398-4.233,5.664-7.056c1.036,0.831,1.561,1.235,2.623,2.021
					c-1.068,2.76-1.574,4.154-2.525,6.975c0.011,0.007,0.016,0.012,0.026,0.019c2.325-1.852,3.465-2.799,5.692-4.74
					c1.08,0.726,1.627,1.075,2.729,1.756C71.811,168.42,70.859,169.959,68.958,173.039z"/>
				<path fill="#FFFFFF" d="M89.593,174.529c-2.224-0.505-3.329-0.794-5.523-1.446c-0.217,0.729-0.327,1.095-0.544,1.824
					c2.06,0.612,3.097,0.887,5.183,1.371c-0.145,0.624-0.216,0.936-0.361,1.56c-2.123-0.493-3.18-0.773-5.277-1.397
					c-0.268,0.899-0.401,1.35-0.669,2.249c2.447,0.728,3.681,1.049,6.163,1.604c-0.141,0.625-0.209,0.937-0.35,1.562
					c-3.456-0.773-5.174-1.243-8.562-2.346c1.12-3.442,1.682-5.163,2.802-8.605c2.967,0.965,4.469,1.379,7.493,2.064
					C89.806,173.592,89.736,173.905,89.593,174.529z"/>
				<path fill="#FFFFFF" d="M107.45,185.116c-1.183-0.017-1.774-0.036-2.956-0.09c-0.822-1.273-1.219-1.913-1.982-3.204
					c-0.989,1.17-1.5,1.748-2.551,2.89c-1.127-0.105-1.689-0.167-2.814-0.307c1.719-1.65,2.545-2.495,4.123-4.22
					c-1.194-1.876-1.758-2.826-2.814-4.738c1.039,0.127,1.562,0.183,2.604,0.277c0.64,1.232,0.97,1.844,1.661,3.064
					c0.87-1.112,1.294-1.673,2.113-2.807c1.01,0.047,1.514,0.062,2.524,0.078c-1.309,1.718-1.994,2.566-3.432,4.23
					C105.259,182.246,105.964,183.215,107.45,185.116z"/>
				<path fill="#FFFFFF" d="M120.187,183.548c-0.965,0.107-1.449,0.154-2.416,0.236c-0.308-3.606-0.461-5.41-0.769-9.017
					c0.874-0.074,1.312-0.118,2.184-0.215C119.586,178.15,119.787,179.95,120.187,183.548z"/>
				<path fill="#FFFFFF" d="M135.814,173.102c-0.336-0.463-0.961-1.32-2.749-0.82c-1.038,0.29-2.429,1.263-1.816,3.747
					c0.39,1.579,1.536,2.822,3.5,2.273c1.283-0.358,2.004-1.202,1.948-2.347c0.904-0.28,1.358-0.428,2.257-0.732
					c0.181,2.014-0.978,3.878-3.811,4.668c-3.006,0.839-5.538-0.296-6.206-3.349c-0.677-3.091,1.056-5.104,3.673-5.836
					c3.04-0.85,4.841,0.462,5.385,1.688C137.125,172.688,136.689,172.831,135.814,173.102z"/>
				<path fill="#FFFFFF" d="M148.589,160.911c1.257-0.668,4.781-2.137,7,1.485c2.219,3.621-1.128,6.185-2.526,6.928
					c-1.399,0.744-5.354,2.068-7.116-1.796C144.185,163.663,147.332,161.58,148.589,160.911z M152.311,167.912
					c1.173-0.624,2.489-2.101,1.224-4.295s-3.102-1.873-4.194-1.292s-2.369,1.916-1.258,4.192S151.138,168.536,152.311,167.912z"/>
			</g>
		</g>
	</g>
</g>
</svg>
