<?xml version="1.0" encoding="UTF-8" standalone="no"?>
<svg
   xmlns:svg="http://www.w3.org/2000/svg"
   xmlns="http://www.w3.org/2000/svg"
   version="1.1"
   width="526.78107"
   height="437.0025"
   id="svg23820">
  <defs
     id="defs23822" />
  <g
     transform="translate(-107.75233,-294.86093)"
     id="layer1">
    <path
       d="m 624.35804,532.91682 c -5.35656,-2.79896 -10.31509,-5.33116 -12.74142,-6.57185 l 0,-40.90467 c 2.99374,-1.49476 5.08556,-4.80186 5.08556,-8.65519 0,-4.64942 -3.01069,-8.50699 -6.99953,-9.32424 l 0,-3.2097 c 0,-4.57319 -3.38755,-8.29103 -7.5373,-8.29103 l -3.83217,0 0,-4.64095 -6.72429,0 c 3.39179,-2.47714 5.62334,-6.48292 5.62334,-11.0053 0,-7.53307 -6.11877,-13.63489 -13.63066,-13.63489 -7.5373,0 -13.64759,6.10182 -13.64759,13.63489 0,4.52238 2.21884,8.52816 5.61486,11.0053 l -6.72852,0 0,4.64095 -3.811,0 c -4.16245,0 -7.5373,3.71784 -7.5373,8.29103 l 0,3.2097 c -3.98037,0.81725 -6.99105,4.67482 -6.99105,9.32424 0,3.85333 2.09181,7.16043 5.07709,8.65519 l 0,26.98607 c -6.30508,-3.2224 -11.53038,-6.29237 -15.24398,-8.67636 l 0,-208.88908 -338.36973,0 0,208.88908 c -3.7136,2.38399 -8.94737,5.45396 -15.25245,8.67636 l 0,-26.98607 c 2.99799,-1.49476 5.0898,-4.80186 5.0898,-8.65519 0,-4.64942 -3.02339,-8.50699 -7.00376,-9.32424 l 0,-3.2097 c 0,-4.57319 -3.37485,-8.29103 -7.53307,-8.29103 l -3.8237,0 0,-4.64095 -6.72005,0 c 3.40025,-2.47714 5.61487,-6.48292 5.61487,-11.0053 0,-7.53307 -6.10606,-13.63489 -13.64336,-13.63489 -7.51613,0 -13.6349,6.10182 -13.6349,13.63489 0,4.52238 2.23155,8.52816 5.62334,11.0053 l -6.71582,0 0,4.64095 -3.8364,0 c -4.14975,0 -7.54577,3.71784 -7.54577,8.29103 l 0,3.2097 c -3.98037,0.81725 -6.99106,4.67482 -6.99106,9.32424 0,3.85333 2.10028,7.16043 5.09827,8.65519 l 0,40.90467 c -2.44328,1.24069 -7.39757,3.77289 -12.75413,6.57185 -6.70312,3.49341 -10.18383,5.86046 -10.18383,16.75991 l 0,27.18086 c 0,10.08219 8.07508,22.78127 22.2308,35.2644 -0.24559,0.45732 -0.49119,0.93157 -0.69021,1.41007 -3.40025,8.02426 -0.0508,18.94064 8.91349,29.23456 4.58167,6.07218 18.48756,19.08038 38.76629,28.27758 16.90811,7.66857 36.64482,11.55155 58.60462,11.55155 5.08133,0 10.3405,-0.24137 15.67166,-0.67752 30.66157,30.84365 73.08217,49.9452 119.90659,49.9452 46.80324,0 89.23232,-19.10155 119.88541,-49.9452 5.33116,0.43615 10.5988,0.67752 15.66319,0.67752 21.98944,0 41.71345,-3.88298 58.62157,-11.55155 20.26602,-9.1972 34.17615,-22.2054 38.76204,-28.27758 8.97278,-10.29392 12.30105,-21.2103 8.9135,-29.23456 -0.19902,-0.4785 -0.42768,-0.95275 -0.69022,-1.41007 14.1642,-12.48313 22.22234,-25.18221 22.22234,-35.2644 l 0,-27.18086 c 0,-10.89945 -3.46801,-13.2665 -10.17536,-16.75991"
       id="path19264"
       style="fill:#1f232b;fill-opacity:1;fill-rule:nonzero;stroke:none" />
    <path
       d="m 498.62957,622.9071 c -36.04354,-17.42471 -80.36117,-26.88021 -127.47353,-26.88021 -47.02767,0 -91.40882,9.46397 -127.4693,26.88021 14.88829,31.37719 41.01477,56.42812 73.15416,69.89364 0.22866,-2.44327 0,-4.88231 -0.66481,-7.24936 -1.6853,-5.98326 -6.02984,-11.22973 -12.74142,-14.09221 6.71158,-2.98528 11.07305,-8.06661 12.74142,-14.0541 1.68107,-5.95786 0.50814,-12.77107 -3.66279,-18.22079 7.85912,0.66904 14.21925,-2.11722 18.40287,-6.11453 4.62401,-4.41228 7.26206,-10.92061 6.43635,-17.53057 5.58946,3.89145 12.85999,5.08556 19.08885,3.47647 6.25426,-1.58791 12.03004,-6.14417 14.69773,-12.10202 2.67617,5.95785 8.44347,10.51411 14.71044,12.10202 6.23309,1.60909 13.48669,0.41498 19.09308,-3.47647 -0.83842,6.60996 1.80387,13.11829 6.41518,17.53057 4.17092,3.99731 10.55222,6.78357 18.41557,6.11453 -4.18786,5.44972 -5.35657,12.26293 -3.67549,18.22079 1.66413,5.98749 6.05524,11.06882 12.74989,14.0541 -6.69465,2.86248 -11.06035,8.10895 -12.74989,14.09221 -0.66058,2.36705 -0.88924,4.80609 -0.66058,7.24936 32.15633,-13.46552 58.29128,-38.49528 73.19227,-69.89364"
       id="path19268"
       style="fill:#fccf34;fill-opacity:1;fill-rule:nonzero;stroke:none" />
    <path
       d="m 202.00161,568.18796 -0.0339,-37.8093 c -34.06605,26.9522 -72.49358,35.44225 -81.6315,30.90717 8.24869,23.264 81.66538,54.43793 81.66538,6.90213"
       id="path19272"
       style="fill:#feefad;fill-opacity:1;fill-rule:nonzero;stroke:none" />
    <path
       d="m 161.46825,467.06364 13.39353,0 c 1.31267,0 2.39246,-1.15177 2.39246,-2.59995 0,-1.4143 -1.07979,-2.58724 -2.39246,-2.58724 l -23.65781,0 c -1.03744,1.17294 1.16024,5.18719 10.26428,5.18719"
       id="path19276"
       style="fill:#b09247;fill-opacity:1;fill-rule:nonzero;stroke:none" />
    <path
       d="m 154.68681,479.34518 26.79553,0 c 1.17293,0 2.12992,-1.0332 2.12992,-2.312 0,-1.27457 -0.95699,-2.2866 -2.12992,-2.2866 l -35.03151,0 c -1.65143,0.35146 -0.34723,4.5986 8.23598,4.5986"
       id="path19280"
       style="fill:#b09247;fill-opacity:1;fill-rule:nonzero;stroke:none" />
    <path
       d="m 163.92043,442.68263 c 2.86248,-1.06708 3.61198,-4.38688 1.67684,-7.43144 -1.94784,-3.05726 -5.83929,-4.67058 -8.70601,-3.62044 -2.87095,1.06284 -3.6035,4.39111 -1.68107,7.44837 1.94784,3.05303 5.84776,4.66212 8.71024,3.60351"
       id="path19284"
       style="fill:#b09247;fill-opacity:1;fill-rule:nonzero;stroke:none" />
    <path
       d="m 567.45349,467.06364 13.37659,0 c 9.10404,0 11.31019,-4.01425 10.27275,-5.18719 l -23.64934,0 c -1.32961,0 -2.38822,1.17294 -2.38822,2.58724 0,1.44818 1.05861,2.59995 2.38822,2.59995"
       id="path19288"
       style="fill:#b09247;fill-opacity:1;fill-rule:nonzero;stroke:none" />
    <path
       d="m 560.81646,479.34518 26.79553,0 c 8.60861,0 9.90435,-4.24714 8.24868,-4.5986 l -35.04421,0 c -1.16024,0 -2.11722,1.01203 -2.11722,2.2866 0,1.2788 0.95698,2.312 2.11722,2.312"
       id="path19292"
       style="fill:#b09247;fill-opacity:1;fill-rule:nonzero;stroke:none" />
    <path
       d="m 578.38681,442.68263 c 2.85825,1.05861 6.7624,-0.55048 8.70177,-3.60351 1.92667,-3.05726 1.20258,-6.38553 -1.6726,-7.44837 -2.85825,-1.05014 -6.75817,0.56318 -8.71448,3.62044 -1.92667,3.04456 -1.18564,6.36436 1.68531,7.43144"
       id="path19296"
       style="fill:#b09247;fill-opacity:1;fill-rule:nonzero;stroke:none" />
    <path
       d="m 420.80689,702.75336 c -0.90194,-1.63873 -1.41007,-3.1843 -1.41007,-3.1843 -1.68954,-5.19565 -1.80387,-10.69195 -0.33028,-15.96383 1.2788,-4.52238 3.7136,-8.71447 7.03763,-12.10626 -3.32403,-3.39602 -5.73766,-7.57541 -7.01646,-12.08932 -1.2788,-4.55202 -1.37196,-9.37928 -0.25407,-13.96518 -4.67905,-1.31691 -8.99395,-3.76018 -12.50006,-7.09692 -3.53576,-3.38755 -6.15687,-7.59658 -7.57541,-12.17824 -4.78068,1.16447 -9.92129,1.12213 -14.72314,-0.10586 -4.8442,-1.23222 -9.28613,-3.66279 -12.8981,-7.01223 -3.60351,3.34944 -8.05814,5.78001 -12.90657,7.01223 -4.77645,1.22799 -9.94669,1.27033 -14.75278,0.0889 -1.41007,4.5986 -4.00578,8.78646 -7.53307,12.16131 -3.50611,3.35367 -7.82524,5.81388 -12.517,7.11385 1.10519,4.5859 1.01627,9.41316 -0.25406,13.94824 -1.27457,4.53085 -3.67973,8.69331 -7.02917,12.1105 3.33674,3.40449 5.7546,7.55847 7.02493,12.09779 1.47782,5.25494 1.36349,10.78935 -0.33875,15.9723 0.0212,0 0.0339,0.0127 0.0466,0.0296 -0.0127,0.0635 -0.52084,1.56674 -1.4016,3.16736 -37.10215,-13.20298 -67.45461,-40.75223 -84.35001,-75.92348 -1.98596,1.05861 -3.93803,2.12569 -5.852,3.20971 25.13139,51.97349 78.39216,87.9154 139.88044,87.9154 61.47981,0 114.74481,-35.90803 139.8762,-87.88153 -1.92244,-1.10519 -3.85334,-2.20614 -5.83506,-3.25628 -16.89964,35.18395 -47.27327,62.7332 -84.38812,75.93618"
       id="path19300"
       style="fill:#b09247;fill-opacity:1;fill-rule:nonzero;stroke:none" />
    <path
       d="m 223.86866,582.51015 c -0.87653,-6.49563 -1.34655,-13.10559 -1.34655,-19.82987 l 0,-247.27003 297.27451,0 0,247.27003 c 0,6.72852 -0.48273,13.33424 -1.35503,19.82987 0.7368,0.35146 4.83997,2.40093 6.27121,3.15042 1.11789,-7.50342 1.70648,-15.17199 1.70648,-22.98029 l 0,-253.90116 -310.54101,0 0,253.90116 c 0,7.8083 0.59706,15.46416 1.71495,22.97606 1.43548,-0.75373 5.58946,-2.82861 6.27544,-3.14619"
       id="path19304"
       style="fill:#b09247;fill-opacity:1;fill-rule:nonzero;stroke:none" />
    <path
       d="m 591.76218,618.34149 c 4.35724,-5.01781 9.58253,-5.77154 11.02224,-5.27188 l -0.11009,-0.0974 c -3.92109,-1.32538 -9.8239,-4.26408 -13.92707,-9.56983 -0.45308,-0.57588 -1.30421,-2.38822 -4.20056,-1.99865 -3.31133,0.63093 -6.74123,2.75238 -8.74835,5.08132 -2.52373,2.93447 -4.76798,7.46532 -4.9543,11.09847 0.11857,3.84063 3.11655,5.65297 3.11655,5.65297 l 12.30528,8.84998 1.14753,-0.37687 c -0.79607,-3.93379 0.79184,-9.29036 4.34877,-13.36812"
       id="path19308"
       style="fill:#b4131d;fill-opacity:1;fill-rule:nonzero;stroke:none" />
    <path
       d="m 603.04526,613.21613 c -0.055,-0.0551 -0.15667,-0.10163 -0.26254,-0.14821 -1.4397,-0.49542 -6.66077,0.25407 -11.02224,5.27188 -3.55693,4.07776 -5.14484,9.43433 -4.34453,13.37236 l -1.15177,0.37686 -5.71226,-4.11164 c -8.92619,9.55289 -24.26333,19.82141 -50.76244,24.22522 -5.84353,0.83842 -9.08711,4.93312 -8.74835,8.57474 0.47002,4.91195 9.97633,10.20923 29.17951,4.31489 19.4149,-5.97479 38.24121,-16.67945 50.953,-35.39567 4.27678,-6.2839 5.78001,-13.14793 1.87162,-16.48043"
       id="path19312"
       style="fill:#fccf34;fill-opacity:1;fill-rule:nonzero;stroke:none" />
    <path
       d="M 212.50515,652.2026 C 185.99757,647.79455 170.67313,637.53027 161.73,627.97738 l -5.71226,4.11164 -1.13906,-0.37687 c 0.80454,-3.93802 -0.78337,-9.29459 -4.3403,-13.37235 -4.36571,-5.01781 -9.5783,-5.76731 -11.03071,-5.27188 -0.10586,0.0466 -0.20325,0.0932 -0.26677,0.14821 -3.89992,3.3325 -2.39246,10.19652 1.87585,16.48043 12.71602,18.71622 31.5381,29.42088 50.94453,35.39567 19.21588,5.89434 28.73067,0.59706 29.19645,-4.31489 0.33876,-3.64162 -2.91752,-7.73632 -8.75258,-8.57474"
       id="path19316"
       style="fill:#fccf34;fill-opacity:1;fill-rule:nonzero;stroke:none" />
    <path
       d="m 150.53706,618.34149 c 3.55693,4.07776 5.14484,9.43433 4.3403,13.36812 l 1.13906,0.37687 12.32222,-8.84998 c 0,0 2.98528,-1.81234 3.11231,-5.65297 -0.19902,-3.63315 -2.43057,-8.164 -4.95429,-11.09847 -2.00289,-2.32894 -5.43702,-4.45039 -8.73988,-5.08132 -2.90906,-0.38957 -3.75595,1.42277 -4.19633,1.99865 -4.12858,5.30575 -10.01445,8.24445 -13.93554,9.56983 l -0.11433,0.0974 c 1.44818,-0.49966 6.66501,0.25407 11.02648,5.27188"
       id="path19320"
       style="fill:#b4131d;fill-opacity:1;fill-rule:nonzero;stroke:none" />
    <path
       d="m 611.96468,539.3345 c 0,3.28169 -2.71004,4.27255 -6.0002,4.22597 -3.18006,-0.0508 -6.89366,-0.83418 -9.06593,-1.38043 -10.97567,-2.67616 -35.70479,-11.56425 -57.38934,-24.70794 15.39218,14.34627 45.36777,31.60584 69.88517,34.76473 1.46511,0.17785 2.79896,0.27948 4.00154,0.27948 7.25359,0 10.14995,-3.11655 9.73074,-6.00867 -0.30911,-2.21885 -5.66991,-4.08623 -11.16198,-7.17314"
       id="path19324"
       style="fill:#b09247;fill-opacity:1;fill-rule:nonzero;stroke:none" />
    <path
       d="m 537.87641,638.09345 c 1.19411,-3.38755 4.09047,-8.93043 7.04611,-13.19874 2.99374,-4.34877 7.21971,-8.97701 10.06949,-11.3483 -5.58099,-4.24291 -11.54731,-8.34184 -17.71689,-12.14437 -4.48427,-2.77355 -9.16756,-5.37773 -13.92707,-7.90569 -2.03676,-1.07132 -4.08623,-2.11722 -6.16111,-3.14619 -2.35434,-1.16024 -4.71716,-2.32894 -7.12656,-3.42566 1.36773,-7.87182 2.10029,-15.96807 2.10029,-24.24216 l 0,-16.45079 -282.03053,0 0,16.45079 c 0,8.27409 0.74526,16.35763 2.12145,24.24216 -2.41363,1.09672 -4.78068,2.26542 -7.12656,3.41295 -2.08758,1.03321 -4.12858,2.08758 -6.16111,3.1589 -4.77644,2.51525 -9.4555,5.13214 -13.9567,7.90569 -6.16958,3.80253 -12.1232,7.90146 -17.70843,12.14437 2.85402,2.37129 7.07999,6.99953 10.06103,11.3483 2.96411,4.26831 5.86893,9.81119 7.05881,13.19874 4.9924,-3.89145 10.29815,-7.56271 15.87067,-11.02224 39.73597,-24.73336 93.51757,-38.63925 150.86457,-38.63925 58.43525,0 113.17383,14.47331 153.12152,40.07049 4.74681,3.05726 9.30307,6.23732 13.60102,9.591"
       id="path19328"
       style="fill:#fccf34;fill-opacity:1;fill-rule:nonzero;stroke:none" />
    <path
       d="m 165.21915,495.02618 c -7.93957,6.63536 -13.07171,18.08529 -13.86779,30.06875 -0.14397,2.43056 1.38043,4.44616 6.2585,3.14195 5.87317,-1.58791 12.95739,-4.48427 18.7628,-7.79984 l 0,-19.55887 c 0,-9.22684 -6.7751,-9.50631 -11.15351,-5.85199"
       id="path19332"
       style="fill:#feefad;fill-opacity:1;fill-rule:nonzero;stroke:none" />
    <path
       d="m 577.08646,495.02618 c -4.39111,-3.65432 -11.15351,-3.37485 -11.15351,5.85199 l 0,19.55887 c 5.80541,3.31557 12.90233,6.21193 18.7628,7.79984 4.87807,1.30421 6.40247,-0.71139 6.25426,-3.14195 -0.79607,-11.98346 -5.92398,-23.43339 -13.86355,-30.06875"
       id="path19336"
       style="fill:#feefad;fill-opacity:1;fill-rule:nonzero;stroke:none" />
    <path
       d="m 132.90022,552.23852 c 24.53434,-3.16313 54.50992,-20.41846 69.8894,-34.76474 -21.69302,13.1437 -46.40097,22.03178 -57.38087,24.70795 -2.16803,0.54201 -5.8901,1.32961 -9.0744,1.38043 -3.28592,0.0466 -5.99173,-0.94428 -5.99173,-4.22597 -5.4836,3.08267 -10.84016,4.95429 -11.16621,7.17313 -0.41075,2.89213 2.48561,6.00867 9.74344,6.00867 1.20258,0 2.52372,-0.10162 3.98037,-0.27947"
       id="path19340"
       style="fill:#b09247;fill-opacity:1;fill-rule:nonzero;stroke:none" />
    <path
       d="m 230.12929,411.17583 282.03053,0 0,135.05741 -282.03053,0 0,-135.05741 z"
       id="path19342"
       style="fill:#b4131d;fill-opacity:1;fill-rule:nonzero;stroke:none" />
    <path
       d="m 345.04598,443.64639 -0.11856,0 0,0.1355 0,69.84283 0,0.12703 0.11856,0 8.46041,0 0.1228,0 0,-0.12703 0,-69.84283 0,-0.1355 -0.1228,0 -8.46041,0 z"
       id="path19346"
       style="fill:#feefad;fill-opacity:1;fill-rule:nonzero;stroke:none" />
    <path
       d="m 264.06448,443.64639 -23.23013,0 c -1.39736,0 -2.89635,1.02473 -2.89635,2.90059 l 0,33.60874 c 0,1.4016 1.02473,2.89212 2.89635,2.89212 l 17.42472,0 0,22.00214 -11.61083,0 0,-4.23867 0,-0.11857 -0.13974,0 -8.43924,0 -0.13126,0 0,0.11857 0,10.02291 c 0,1.42277 1.02473,2.91753 2.89635,2.91753 l 23.23013,0 c 1.88856,0 2.89636,-1.49476 2.89636,-2.91753 l 0,-33.57486 c 0,-2.12569 -1.73612,-2.90059 -2.89636,-2.90059 l -17.41624,0 0,-21.98944 11.61083,0 0,4.2175 0,0.13127 0.12279,0 8.45618,0 0.1228,0 0,-0.13127 0,-10.03985 c 0,-1.87586 -1.48629,-2.90059 -2.89636,-2.90059"
       id="path19350"
       style="fill:#feefad;fill-opacity:1;fill-rule:nonzero;stroke:none" />
    <path
       d="m 501.4598,443.64639 -23.20472,0 c -1.17718,0 -2.93023,0.78337 -2.93023,2.90059 l 0,33.60874 c 0,1.16023 0.78337,2.89212 2.93023,2.89212 l 17.40777,0 0,21.00705 -11.62353,0 0,-4.22597 0,-0.1355 -0.13127,0 -8.44347,0 -0.13973,0 0,0.1355 0,10.03138 c 0,1.16447 0.78337,2.89212 2.93023,2.89212 l 23.20472,0 c 2.12569,0 2.90059,-1.72765 2.90059,-2.89212 l 0,-32.60094 c 0,-2.12569 -1.71918,-2.90059 -2.90059,-2.90059 l -17.42048,0 0,-21.98944 11.62353,0 0,4.2175 0,0.13127 0.12704,0 8.4477,0 0.1228,0 0,-0.13127 0,-10.03985 c 0,-1.87586 -1.49052,-2.90059 -2.90059,-2.90059"
       id="path19354"
       style="fill:#feefad;fill-opacity:1;fill-rule:nonzero;stroke:none" />
    <path
       d="m 401.6816,443.64639 -0.1228,0 0,0.1355 0,68.8435 0,0.12703 0.1228,0 28.77724,0 0.12704,0 0,-0.12703 0,-8.4477 0,-0.1228 -0.12704,0 -20.2025,0 0,-21.00705 14.38438,0 0.13551,0 0,-0.13127 0,-8.42653 0,-0.13127 -0.13551,0 -14.38438,0 0,-21.98944 20.2025,0 0.12704,0 0,-0.1355 0,-8.45194 0,-0.1355 -0.12704,0 -28.77724,0 z"
       id="path19358"
       style="fill:#feefad;fill-opacity:1;fill-rule:nonzero;stroke:none" />
    <path
       d="m 457.59061,474.36212 -11.60659,0 0,-21.98944 11.60659,0 0,21.98944 z m 0.67751,8.68484 5.13214,0 c 2.12992,0 2.90906,-1.72766 2.90906,-2.89213 l 0,-33.69342 c -0.0806,-2.05794 -1.7827,-2.8159 -2.90906,-2.8159 l -25.98675,0 -0.1311,0 0,0.1355 0,68.8435 0,0.12703 0.1311,0 8.44771,0 0.12263,0 0,-0.12703 0,-29.57755 2.91329,0 8.4477,29.61989 0.0339,0.0847 0.0891,0 9.10828,0 0.16091,0 -0.0423,-0.16531 -8.42653,-29.53944 z"
       id="path19360"
       style="fill:#feefad;fill-opacity:1;fill-rule:nonzero;stroke:none" />
    <path
       d="m 326.27221,474.36212 -11.62353,0 0,-21.98944 11.62353,0 0,21.98944 z m 0.66481,8.68484 5.14061,0 c 2.13415,0 2.90906,-1.72766 2.90906,-2.89213 l 0,-33.69342 c -0.0891,-2.05794 -1.7827,-2.8159 -2.90906,-2.8159 l -26.00369,0 -0.12703,0 0,0.1355 0,69.84706 0,0.12263 0.12703,0 8.45617,0 0.11857,0 0,-0.12263 0,-30.58111 2.90059,0 8.47311,30.61075 0.0203,0.0932 0.10163,0 9.10828,0 0.16091,0 -0.0464,-0.16091 -8.43077,-30.543 z"
       id="path19362"
       style="fill:#feefad;fill-opacity:1;fill-rule:nonzero;stroke:none" />
    <path
       d="m 382.65593,478.65669 13.05477,-34.83672 0.0635,-0.17362 -0.18208,0 -9.39199,0 -0.0889,0 -0.0254,0.0847 -11.44993,30.6277 -2.5576,0 0,-30.57688 0,-0.13551 -0.1228,0 -8.45617,0 -0.12703,0 0,0.13551 0,68.84349 0,0.12704 0.12703,0 8.45617,0 0.1228,0 0,-0.12704 0,-29.57755 2.5576,0 11.44993,29.6199 0.0296,0.0847 0.0889,0 9.38775,0 0.18631,0 -0.0678,-0.18632 -13.05477,-33.90938 z"
       id="path19366"
       style="fill:#feefad;fill-opacity:1;fill-rule:nonzero;stroke:none" />
    <path
       d="m 216.53251,609.86669 -9.37505,5.8901 -1.31691,-2.12145 11.31019,-7.11386 -2.4348,-3.85757 -15.40489,9.6884 9.93399,15.81562 4.10741,-2.58301 -3.75595,-5.95362 9.36658,-5.89433 -2.43057,-3.87028 z"
       id="path19370"
       style="fill:#1f232b;fill-opacity:1;fill-rule:nonzero;stroke:none" />
    <path
       d="m 234.71729,608.012 -4.01848,-8.64672 7.70668,-3.58234 4.01848,8.65519 -7.70668,3.57387 z m 7.66433,-15.21857 c -0.41921,-0.8977 -1.156,-1.5371 -2.11298,-1.81658 -0.94428,-0.29217 -1.9182,-0.22019 -2.84131,0.20749 l -9.60794,4.4504 c -0.94851,0.44461 -1.62602,1.12212 -2.00712,2.02829 -0.37687,0.91041 -0.37687,1.88009 0.0423,2.78626 l 4.88654,10.53529 c 0.39804,0.88076 1.11789,1.51592 2.11299,1.85468 0.35569,0.0932 0.73255,0.14397 1.10095,0.14397 0.57588,0 1.15177,-0.12703 1.71918,-0.38533 l 9.62488,-4.45887 c 0.93581,-0.44038 1.59638,-1.10942 1.98595,-2.01136 0.40651,-0.94004 0.3811,-1.90549 -0.0296,-2.79472 l -4.87384,-10.53952 z"
       id="path19374"
       style="fill:#1f232b;fill-opacity:1;fill-rule:nonzero;stroke:none" />
    <path
       d="m 261.4307,596.8966 -3.02762,-9.05746 8.0539,-2.67617 3.02762,9.03629 -8.0539,2.69734 z m 9.29883,-14.28699 c -0.30912,-0.92311 -0.96969,-1.6345 -1.8928,-2.03254 -0.89346,-0.3938 -1.85892,-0.42344 -2.83707,-0.10162 l -10.04832,3.35791 c -0.97816,0.33875 -1.71495,0.92734 -2.20615,1.7954 -0.49966,0.85959 -0.59705,1.81657 -0.29217,2.75662 l 3.7009,11.02224 c 0.29641,0.92734 0.94428,1.63873 1.89279,2.07488 0.48696,0.19478 0.99086,0.29641 1.49899,0.29641 0.44462,0 0.885,-0.0593 1.32962,-0.21596 l 10.04408,-3.35367 c 0.99933,-0.33876 1.74459,-0.91888 2.20615,-1.77423 0.50813,-0.88924 0.60976,-1.85892 0.28794,-2.7905 l -3.68396,-11.03494 z"
       id="path19378"
       style="fill:#1f232b;fill-opacity:1;fill-rule:nonzero;stroke:none" />
    <path
       d="m 297.43989,572.36433 -17.92438,4.31913 1.05861,4.44616 6.61843,-1.60062 3.26052,13.73652 4.70022,-1.1306 -3.26898,-13.71958 6.61842,-1.60062 -1.06284,-4.45039 z"
       id="path19382"
       style="fill:#1f232b;fill-opacity:1;fill-rule:nonzero;stroke:none" />
    <path
       d="m 342.06877,574.32664 -0.22866,-3.74748 8.43924,-0.52083 0.271,3.7009 -8.48158,0.56741 z m 11.69552,-8.13012 c -0.76643,-0.60553 -1.68107,-0.88076 -2.71851,-0.81725 l -10.57763,0.70292 c -1.03744,0.0847 -1.90126,0.47426 -2.60418,1.18564 -0.69021,0.71986 -1.02897,1.63873 -0.96121,2.60842 l 1.02473,15.12117 4.83996,-0.31334 -0.3938,-5.79272 8.49428,-0.57588 0.38957,5.78001 4.83573,-0.33452 -1.0205,-15.11695 c -0.0677,-0.99509 -0.52507,-1.82504 -1.30844,-2.4475"
       id="path19386"
       style="fill:#1f232b;fill-opacity:1;fill-rule:nonzero;stroke:none" />
    <path
       d="m 371.72843,564.90034 -4.92889,-0.0762 -0.29641,18.70775 18.23773,0.19902 0.0466,-4.56896 -13.33001,-0.18208 0.271,-14.07951 z"
       id="path19390"
       style="fill:#1f232b;fill-opacity:1;fill-rule:nonzero;stroke:none" />
    <path
       d="m 401.90524,566.1122 -4.89078,-0.48273 -1.86738,18.61459 18.1488,1.73189 0.44038,-4.55626 -13.28343,-1.2788 1.45241,-14.02869 z"
       id="path19394"
       style="fill:#1f232b;fill-opacity:1;fill-rule:nonzero;stroke:none" />
    <path
       d="m 476.97753,580.57501 -4.67059,-1.58368 -6.02137,17.70419 17.29768,5.78 1.46512,-4.32759 -12.6398,-4.25561 4.56896,-13.31731 z"
       id="path19398"
       style="fill:#1f232b;fill-opacity:1;fill-rule:nonzero;stroke:none" />
    <path
       d="m 506.64529,607.64615 -7.69397,-3.54846 5.84775,-12.81764 -4.41228,-2.01136 -6.31355,13.77039 c -0.39803,0.88923 -0.41497,1.84622 -0.0169,2.81167 0.40228,0.88923 1.08826,1.56251 2.01136,1.98595 l 9.63335,4.42499 c 0.54201,0.25406 1.11789,0.38957 1.68954,0.38957 0.37263,0 0.74526,-0.0635 1.1306,-0.17362 0.97815,-0.31758 1.70647,-0.95274 2.10451,-1.83351 l 6.33049,-13.7958 -4.42076,-2.01136 -5.8901,12.80918 z"
       id="path19402"
       style="fill:#1f232b;fill-opacity:1;fill-rule:nonzero;stroke:none" />
    <path
       d="m 456.42949,574.90761 -10.31933,-2.35011 c -0.98662,-0.24137 -1.9436,-0.11433 -2.82013,0.37686 -0.87653,0.49543 -1.46088,1.24916 -1.67261,2.21461 l -2.59147,11.32713 c -0.22443,0.94851 -0.0423,1.89702 0.54624,2.76508 0.58859,0.78337 1.37619,1.31268 2.37976,1.53287 l 10.33202,2.35011 c 0.32182,0.0805 0.64364,0.12704 0.95699,0.12704 0.65634,0 1.27033,-0.16938 1.84621,-0.48273 0.8977,-0.49966 1.49053,-1.27033 1.69378,-2.22731 l 0.74526,-3.29016 -4.72563,-1.08402 -0.51661,2.25696 -8.30373,-1.87586 2.12992,-9.30306 8.29103,1.89703 -0.5293,2.27813 4.7468,1.06284 0.75373,-3.28592 c 0.21596,-0.96122 0.0127,-1.90974 -0.57164,-2.70581 -0.55472,-0.81725 -1.35502,-1.34655 -2.37129,-1.58368"
       id="path19406"
       style="fill:#1f232b;fill-opacity:1;fill-rule:nonzero;stroke:none" />
    <path
       d="m 313.77384,583.60172 -0.42768,-2.85401 8.38842,-1.28304 0.0762,0.41498 0.37687,2.40093 -8.41383,1.32114 z m -1.43124,-9.43856 8.40113,-1.29574 0.44038,2.8159 -8.40536,1.33808 -0.43615,-2.85824 z m 14.80783,8.4477 -0.49543,-3.37485 c -0.26677,-0.91887 -0.99509,-1.83774 -1.68954,-2.16803 0.60553,-0.74102 0.98662,-1.6726 0.92734,-2.72698 l -0.5039,-3.23511 c -0.15244,-0.98662 -0.68597,-1.78693 -1.50746,-2.3247 -0.82571,-0.54201 -1.76152,-0.75373 -2.78202,-0.58859 l -14.24889,2.1765 2.83284,18.47062 14.22772,-2.17227 c 0.79184,-0.1228 1.46511,-0.41497 2.02829,-0.90617 0.14821,-0.13126 0.31758,-0.30064 0.44885,-0.46578 0.64787,-0.78338 0.90617,-1.72342 0.7622,-2.68464"
       id="path19410"
       style="fill:#1f232b;fill-opacity:1;fill-rule:nonzero;stroke:none" />
    <path
       d="m 524.72465,617.29769 1.5498,-2.43904 7.18585,4.53932 -0.20749,0.35993 -1.30844,2.06217 -7.21972,-4.52238 z m 5.13214,-8.0666 7.18161,4.55625 -1.51593,2.41363 -7.21549,-4.52238 1.54981,-2.4475 z m 5.61486,16.08663 1.85045,-2.86672 c 0.39381,-0.86806 0.44885,-2.02829 0.14397,-2.73968 0.94852,-0.15667 1.84199,-0.61823 2.48562,-1.44818 l 1.74035,-2.76932 c 0.53778,-0.84265 0.66905,-1.80387 0.39804,-2.75239 -0.26253,-0.95698 -0.84265,-1.71494 -1.72765,-2.26542 l -12.16131,-7.71091 -10.00597,15.81562 12.18248,7.68551 c 0.66057,0.41921 1.37195,0.64363 2.11298,0.64363 0.21172,0 0.43615,-0.0169 0.6521,-0.0466 0.99933,-0.17785 1.81234,-0.71139 2.32894,-1.54557"
       id="path19414"
       style="fill:#1f232b;fill-opacity:1;fill-rule:nonzero;stroke:none" />
    <path
       d="m 391.25305,658.09741 c 4.43769,-3.33674 4.66635,-12.21212 2.08334,-15.43876 -2.79049,-2.22308 -5.89857,-4.01002 -9.26918,-5.33963 -9.27342,-0.31335 -13.08442,7.16891 -13.08442,7.16891 0,0 -3.81946,-7.48226 -13.08018,-7.16891 -3.39602,1.32961 -6.5422,3.15466 -9.34117,5.39468 -2.54066,3.26898 -2.28659,12.04697 2.11299,15.38371 -10.92485,2.91329 -11.82255,13.80003 -10.53105,18.63153 0.13127,0.34722 0.26253,0.73256 0.41921,1.08825 3.53576,6.13993 9.62064,7.279 13.63912,7.279 2.34588,0 3.97614,-0.3811 3.97614,-0.3811 0.8977,10.03562 8.8161,11.46686 12.09356,11.6447 0,0 0.0593,0 0.16938,0.0127 l 0.542,0 0.53354,0 c 0.10586,-0.0127 0.17785,-0.0127 0.17785,-0.0127 3.26899,-0.17784 11.18739,-1.60908 12.07662,-11.6447 0,0 1.63873,0.3811 3.9846,0.3811 3.99731,0 10.06103,-1.13907 13.59679,-7.22819 0.16937,-0.35146 0.28794,-0.71562 0.43191,-1.07131 1.29997,-4.77221 0.44885,-15.77328 -10.53105,-18.69928"
       id="path19418"
       style="fill:#feefad;fill-opacity:1;fill-rule:nonzero;stroke:none" />
    <path
       d="m 361.64712,676.39988 c 0,0 4.99664,-1.68107 9.30306,-1.68107 l 0.0127,0 0.0297,0 c 4.31065,0 9.30729,1.68107 9.30729,1.68107 0,0 -1.04591,-8.91773 4.60284,-15.65472 0,0 -9.99328,-3.9592 -13.93978,-10.81899 -3.92109,6.85979 -13.91859,10.81899 -13.91859,10.81899 5.64027,6.73699 4.60283,15.65472 4.60283,15.65472"
       id="path19422"
       style="fill:#1f232b;fill-opacity:1;fill-rule:nonzero;stroke:none" />
    <path
       d="m 393.3347,642.66072 c 2.58301,3.22664 2.35858,12.09779 -2.08334,15.43876 10.97989,2.926 11.83525,13.92707 10.53104,18.69928 -0.14397,0.35146 -0.26253,0.71986 -0.42767,1.06708 -3.53576,6.08912 -9.60371,7.22819 -13.60102,7.22819 -2.34588,0 -3.98037,-0.3811 -3.98037,-0.3811 -0.89347,10.03562 -8.80763,11.46686 -12.08085,11.6447 0,0 -0.072,0 -0.17785,0.0169 l -0.53354,0 -0.53777,0 c -0.11433,-0.0169 -0.16938,-0.0169 -0.16938,-0.0169 -3.28169,-0.17784 -11.20009,-1.60908 -12.09779,-11.6447 0,0 -1.63026,0.3811 -3.9719,0.3811 -4.01849,0 -10.10337,-1.13907 -13.64336,-7.279 -0.15668,-0.35146 -0.28371,-0.7368 -0.41921,-1.08402 -1.28727,-4.83573 -0.38957,-15.72247 10.53104,-18.63153 -4.39534,-3.34097 -4.65364,-12.11473 -2.11298,-15.38795 -8.21058,6.58455 -13.49939,16.69639 -13.49939,28.03198 0,19.83411 16.08663,35.91651 35.92074,35.91651 19.83834,0 35.92074,-16.0824 35.92074,-35.91651 0,-11.36946 -5.30999,-21.494 -13.56714,-28.08279"
       id="path19426"
       style="fill:#1f232b;fill-opacity:1;fill-rule:nonzero;stroke:none" />
    <path
       d="m 370.98192,644.48827 c 0,0 3.81099,-7.48225 13.08441,-7.1689 -4.06506,-1.58792 -8.4604,-2.48562 -13.08441,-2.48562 -4.61977,0 -9.01935,0.8977 -13.08018,2.48562 9.26072,-0.31335 13.08018,7.1689 13.08018,7.1689"
       id="path19430"
       style="fill:#1f232b;fill-opacity:1;fill-rule:nonzero;stroke:none" />
    <path
       d="m 512.15982,323.01906 -282.03053,0 0,88.15254 282.03053,0 0,-88.15254 z"
       id="path19432"
       style="fill:#fccf34;fill-opacity:1;fill-rule:nonzero;stroke:none" />
    <path
       d="m 432.95634,372.88252 c -0.27524,-1.84622 -2.13839,-3.23935 -4.3276,-3.23935 -1.69377,0 -3.37908,0.81302 -4.83572,2.33318 0.0804,-0.49119 0.0254,-0.88076 -0.16091,-1.16447 -0.27524,-0.39804 -0.81725,-0.59706 -1.59215,-0.59706 l -3.56963,0 c -0.0762,0 -0.14821,0.0466 -0.16515,0.1101 -0.0466,0.0593 -0.0339,0.13127 0.008,0.19478 0.33029,0.40651 0.48273,1.16024 0.0805,1.97325 l -6.18228,14.3124 c -0.48273,1.07132 -0.55895,1.83351 -0.24137,2.33318 0.27524,0.42768 0.81302,0.64363 1.61756,0.64363 l 3.5781,0 c 0.0805,0 0.14397,-0.0466 0.16514,-0.10162 0.0339,-0.0677 0.0212,-0.14821 -0.0212,-0.21173 -0.32605,-0.39803 -0.47002,-1.15176 -0.0635,-1.96477 l 4.22597,-9.81967 c 1.17718,-2.67616 2.44751,-3.98884 3.98038,-3.98884 0.41497,0.0212 0.74102,0.15668 0.96968,0.42345 0.30488,0.34299 0.37263,0.82148 0.33876,1.17294 -0.0889,0.97815 -0.54201,1.54133 -1.46088,1.86738 -0.0678,0.0169 -0.11857,0.0762 -0.11857,0.1355 -0.004,0.0805 0.0212,0.14398 0.0677,0.18209 0.90194,0.66057 1.88009,0.99509 2.89212,0.99509 1.58792,0 2.9387,-0.81301 3.5781,-1.60062 0.072,-0.0635 1.58368,-1.69377 1.23646,-3.98884"
       id="path19436"
       style="fill:#1f232b;fill-opacity:1;fill-rule:nonzero;stroke:none" />
    <path
       d="m 406.94588,375.9097 c -0.47426,1.27457 -2.23578,2.60841 -4.33606,2.60841 -0.51237,0 -1.0205,-0.0804 -1.51593,-0.23712 0.77913,-3.35368 4.11587,-5.25071 5.55981,-4.00155 0.44039,0.3938 0.54625,0.96969 0.29218,1.63026 m -4.67059,6.6269 c 1.79964,0 3.74325,-0.46156 5.4836,-1.29151 2.37976,-1.13906 4.16246,-2.97681 4.86114,-5.05168 0.47425,-1.3889 0.4065,-2.73968 -0.18632,-3.89145 -0.87653,-1.70225 -2.90482,-2.71851 -5.44125,-2.71851 -1.60062,0 -3.29439,0.40227 -4.88654,1.17294 -1.32538,0.62246 -2.5449,1.55827 -3.52729,2.68887 -0.0212,0.008 -0.0423,0.0296 -0.0804,0.0466 -0.0593,0.0677 -5.46666,5.94938 -2.84978,12.23752 1.09248,2.655 3.77712,4.23021 7.19431,4.23021 1.82504,0 3.60774,-0.48696 4.78915,-1.31691 1.76153,-1.24069 2.26966,-2.62536 2.38822,-3.56964 0.12704,-0.96121 -0.11856,-1.93513 -0.66057,-2.57453 -0.0381,-0.0466 -0.11433,-0.0805 -0.17785,-0.0678 -0.0593,0.0127 -0.11856,0.0678 -0.1482,0.11433 -0.0339,0.0974 -0.92734,2.33318 -3.87875,2.65076 -2.62958,0.26677 -4.31912,-0.74526 -4.63671,-2.8159 0.55471,0.10586 1.13907,0.15668 1.75729,0.15668"
       id="path19440"
       style="fill:#1f232b;fill-opacity:1;fill-rule:nonzero;stroke:none" />
    <path
       d="m 498.72645,375.9097 c -0.5039,1.27457 -2.25272,2.60841 -4.3403,2.60841 -0.52507,0 -1.0205,-0.0804 -1.52016,-0.23712 0.75796,-3.35368 4.10317,-5.26341 5.53864,-4.00155 0.44885,0.3938 0.55471,0.96969 0.32182,1.63026 m 5.47089,-3.60774 c -0.85535,-1.70225 -2.89635,-2.71851 -5.44548,-2.71851 -1.60062,0 -3.2944,0.40227 -4.89078,1.17294 -1.32538,0.64363 -2.54913,1.56674 -3.51035,2.68887 -0.0339,0.008 -0.055,0.0296 -0.0889,0.0466 -0.0466,0.0677 -5.45396,5.94938 -2.85401,12.23752 1.09248,2.655 3.78982,4.23021 7.19431,4.23021 1.83351,0 3.62044,-0.48696 4.81455,-1.31691 1.75306,-1.24069 2.24426,-2.63382 2.37129,-3.56964 0.1355,-0.96121 -0.12703,-1.93513 -0.66481,-2.57453 -0.0466,-0.055 -0.11433,-0.0678 -0.18208,-0.0678 -0.055,0.0127 -0.11009,0.0678 -0.1355,0.11433 -0.0466,0.0974 -0.92311,2.33318 -3.88298,2.65076 -2.62112,0.26677 -4.30219,-0.74526 -4.64095,-2.81166 0.55895,0.10162 1.15177,0.15244 1.75306,0.15244 1.79964,0 3.74325,-0.46156 5.47513,-1.29151 2.39669,-1.13906 4.17092,-2.9641 4.88231,-5.05168 0.47426,-1.3889 0.4065,-2.73968 -0.19479,-3.89145"
       id="path19444"
       style="fill:#1f232b;fill-opacity:1;fill-rule:nonzero;stroke:none" />
    <path
       d="m 485.20846,372.09492 c 2.0537,-4.74257 4.19209,-9.7265 4.70446,-10.95873 0.48273,-1.06707 0.56318,-1.82504 0.2456,-2.33317 -0.27101,-0.41498 -0.82148,-0.63093 -1.60909,-0.63093 l -3.59927,0 c -0.055,0 -0.1228,0.0423 -0.15667,0.10586 -0.0339,0.0678 -0.0254,0.15244 0.0212,0.20325 0.30488,0.37687 0.5039,1.10095 0.0804,1.96901 l -8.07507,18.87713 -0.27948,0.58859 c -1.28726,2.8286 -2.30776,5.07285 -1.50322,7.07151 0.69021,1.63026 1.79117,2.60418 3.31556,2.90906 l 0.23713,0.0423 c 0.38957,0.0677 0.75797,0.0974 1.10096,0.0974 2.03253,0 3.76441,-1.06708 4.62824,-2.84555 0.63093,-1.27456 0.63093,-2.65499 0.0466,-3.42989 -0.0466,-0.0593 -0.12704,-0.0932 -0.18208,-0.0805 -0.0678,0.0127 -0.1228,0.0593 -0.14397,0.1228 0,0 -0.4785,1.13907 -1.52864,1.13907 -0.30064,0 -0.61823,-0.0889 -0.96121,-0.2583 -1.22376,-0.60976 -0.63094,-2.51526 -0.32182,-3.31557 0.45308,-1.06284 2.18497,-5.08133 3.98037,-9.27342"
       id="path19448"
       style="fill:#1f232b;fill-opacity:1;fill-rule:nonzero;stroke:none" />
    <path
       d="m 467.53903,375.83308 -1.41007,3.27746 c -0.95275,2.23578 -2.23155,3.46377 -3.60774,3.46377 -1.08402,0 -1.96901,-0.80031 -2.18497,-1.56675 -0.6267,-2.19767 0.9104,-5.59369 3.23935,-7.09268 0.71562,-0.47002 1.46088,-0.71139 2.12568,-0.71139 0.71139,0 1.31691,0.27524 1.65567,0.76644 0.35569,0.49543 0.42344,1.16023 0.18208,1.86315 m 5.16601,-5.6191 -3.5781,0 c -0.0677,0 -0.13126,0.0466 -0.17784,0.10163 -0.0254,0.0677 -0.0127,0.13973 0.0339,0.20748 0.2329,0.29642 0.41498,0.82995 0.25407,1.47359 -0.73679,-1.6599 -2.51949,-2.35435 -3.63315,-2.40093 -1.34655,-0.0804 -2.82437,0.28371 -4.26831,1.05014 -1.30844,0.67328 -2.82437,1.94784 -3.87028,3.24358 -2.40939,3.00222 -3.68819,6.72853 -3.42989,9.98057 0.33028,4.09894 3.18853,5.93245 4.91618,6.12724 0.32182,0.0339 0.6267,0.0423 0.90617,0.0423 2.14262,0 3.65432,-0.88923 4.64094,-2.71851 0.83842,1.74882 2.29507,2.68463 4.24714,2.68463 l 0.35993,-0.008 c 1.30421,-0.0805 2.97681,-0.80878 3.75595,-2.68464 0.32605,-0.84689 0.40227,-2.21461 -0.46579,-3.31556 -0.0423,-0.0635 -0.10586,-0.0932 -0.18631,-0.0805 -0.0762,0.0169 -0.12704,0.0805 -0.13974,0.14821 -0.32605,1.49899 -1.75729,1.32961 -2.24002,0.6394 -0.19478,-0.25407 -0.35146,-0.70715 -0.10163,-1.40584 0.23713,-0.62246 1.41854,-3.35367 2.60842,-6.10606 l 1.74035,-4.01001 c 0.48696,-1.06708 0.57165,-1.82928 0.24983,-2.33741 -0.271,-0.41497 -0.82995,-0.63093 -1.62179,-0.63093"
       id="path19452"
       style="fill:#1f232b;fill-opacity:1;fill-rule:nonzero;stroke:none" />
    <path
       d="m 344.74239,375.83308 -1.40583,3.27746 c -0.96546,2.23578 -2.24849,3.46377 -3.60351,3.46377 -1.09249,0 -1.97325,-0.80031 -2.18921,-1.56675 -0.62669,-2.19767 0.91041,-5.58099 3.23512,-7.09268 0.71562,-0.47002 1.44817,-0.71139 2.13415,-0.71139 0.69868,0 1.29998,0.27101 1.6599,0.76644 0.3557,0.49543 0.40651,1.16023 0.16938,1.86315 m 5.16178,-5.6191 -3.5781,0 c -0.0677,0 -0.1355,0.0466 -0.16514,0.1101 -0.0296,0.0593 -0.0212,0.13126 0.0254,0.19901 0.2456,0.30065 0.39381,0.85536 0.23713,1.46935 -0.74526,-1.65566 -2.51525,-2.35011 -3.62468,-2.39669 -1.33808,-0.0889 -2.82437,0.28371 -4.25984,1.05014 -1.31691,0.68175 -2.84131,1.94784 -3.87875,3.24358 -2.39669,2.99799 -3.68819,6.72853 -3.42566,9.98057 0.33876,4.12435 3.12078,5.92398 4.91618,6.12724 0.31759,0.0339 0.61823,0.0423 0.91464,0.0423 2.12146,0 3.63739,-0.88923 4.63671,-2.70581 0.84266,1.74883 2.2993,2.67193 4.24714,2.67193 l 0.35993,-0.008 c 1.30844,-0.0805 2.97681,-0.81302 3.74325,-2.68464 0.33452,-0.83418 0.3938,-2.20614 -0.44885,-3.31556 -0.055,-0.0635 -0.11433,-0.0932 -0.19902,-0.0805 -0.0635,0.0169 -0.11857,0.0805 -0.13551,0.14821 -0.33028,1.49899 -1.75305,1.32961 -2.24848,0.6394 -0.16938,-0.25407 -0.34299,-0.70715 -0.10163,-1.40584 0.23713,-0.56318 1.2661,-2.94716 2.34165,-5.44548 l 2.01135,-4.67059 c 0.48696,-1.07131 0.56318,-1.84198 0.24984,-2.34588 -0.26677,-0.4065 -0.81302,-0.62246 -1.61756,-0.62246"
       id="path19456"
       style="fill:#1f232b;fill-opacity:1;fill-rule:nonzero;stroke:none" />
    <path
       d="m 387.37604,375.87671 -1.38466,3.3071 c -1.30844,2.99798 -2.82861,3.44683 -3.62045,3.44683 -1.08825,0 -1.96054,-0.79608 -2.18497,-1.56674 -0.64363,-2.19768 0.91464,-5.58099 3.23088,-7.09269 0.71985,-0.47425 1.46088,-0.71562 2.13839,-0.71562 0.71562,0 1.31268,0.28794 1.66837,0.78337 0.34722,0.49543 0.40651,1.15177 0.15244,1.83775 m 4.68329,8.09625 c -0.0762,0.0212 -0.1228,0.0677 -0.1355,0.1355 -0.33452,1.51593 -1.76153,1.34231 -2.24426,0.65634 -0.18631,-0.24984 -0.34722,-0.69869 -0.11009,-1.41007 0.32605,-0.80878 6.08912,-14.23195 8.54933,-19.96114 l 0.96122,-2.25696 c 0.49119,-1.07978 0.56318,-1.83775 0.23713,-2.33318 -0.26677,-0.41497 -0.80455,-0.63093 -1.59215,-0.63093 l -3.60351,0 c -0.0678,0 -0.13127,0.0423 -0.16514,0.10586 -0.0339,0.0678 -0.0254,0.13974 0.0212,0.20326 0.30488,0.37686 0.5039,1.10942 0.0762,1.96478 l -4.96276,11.63623 c -0.72833,-1.6853 -2.5322,-2.38399 -3.64585,-2.43056 l -0.33029,-0.008 c -1.2661,0 -2.62959,0.35569 -3.93803,1.0459 -1.58791,0.83419 -3.07843,2.27813 -3.86604,3.25205 -2.40093,2.99375 -3.6882,6.73276 -3.43836,9.99328 0.34722,4.11164 3.13348,5.91551 4.91618,6.11876 0.32182,0.0339 0.61823,0.0423 0.92311,0.0423 2.12568,0 3.64161,-0.87652 4.63247,-2.71851 0.84689,1.78694 2.2866,2.68887 4.27678,2.68887 l 0.33453,-0.0127 c 1.29573,-0.0677 2.96834,-0.79607 3.74747,-2.6931 0.32606,-0.82572 0.41498,-2.20191 -0.44885,-3.3198 -0.0508,-0.0466 -0.11856,-0.0889 -0.19478,-0.0677"
       id="path19460"
       style="fill:#1f232b;fill-opacity:1;fill-rule:nonzero;stroke:none" />
    <path
       d="m 446.24699,375.87671 -1.39736,3.3071 c -0.96546,2.22308 -2.24426,3.44683 -3.62045,3.44683 -1.08402,0 -1.96054,-0.79608 -2.1765,-1.56674 -0.64364,-2.21461 0.90193,-5.5937 3.24358,-7.09269 0.71562,-0.47425 1.44818,-0.71562 2.11298,-0.71562 0.71139,0 1.32962,0.28794 1.66837,0.77067 0.34723,0.50813 0.41921,1.16447 0.16938,1.85045 m 4.67059,8.09625 c -0.0678,0.0212 -0.13551,0.0677 -0.14821,0.1355 -0.31758,1.51593 -1.74882,1.34231 -2.23155,0.65634 -0.18208,-0.24984 -0.35993,-0.69869 -0.11433,-1.41007 0.38534,-0.93581 8.06237,-18.83478 9.51902,-22.2181 0.47849,-1.06708 0.56741,-1.82504 0.24136,-2.33318 -0.26253,-0.41497 -0.80454,-0.63093 -1.60485,-0.63093 l -3.58657,0 c -0.0635,0 -0.12703,0.0423 -0.16938,0.10586 -0.0254,0.0678 -0.0169,0.13974 0.0296,0.20326 0.29641,0.37686 0.49967,1.10095 0.072,1.96478 l -4.97547,11.63623 c -0.73255,-1.6853 -2.52372,-2.38399 -3.64585,-2.43056 l -0.33452,-0.008 c -1.24916,0 -2.61265,0.35569 -3.92532,1.0459 -1.58792,0.82995 -3.06574,2.26543 -3.86181,3.25205 -2.40516,2.99375 -3.69243,6.72852 -3.43413,9.99328 0.33029,4.11164 3.11655,5.91551 4.89925,6.11876 0.32181,0.0339 0.62669,0.0423 0.91463,0.0423 2.1384,0 3.65856,-0.88923 4.65789,-2.71851 0.83842,1.78694 2.27389,2.68887 4.26831,2.68887 l 0.32605,-0.0127 c 1.24493,-0.0593 2.96834,-0.79607 3.75595,-2.68463 0.32605,-0.83419 0.40651,-2.21038 -0.46155,-3.32827 -0.0466,-0.0466 -0.1101,-0.0889 -0.19055,-0.0677"
       id="path19464"
       style="fill:#1f232b;fill-opacity:1;fill-rule:nonzero;stroke:none" />
    <path
       d="m 370.98192,370.21567 -3.58657,0 c -0.0635,0 -0.13974,0.0466 -0.16938,0.10586 -0.0212,0.0635 -0.008,0.1355 0.0254,0.19902 0.32182,0.40227 0.47426,1.16024 0.055,1.97325 l -2.9133,6.84708 c -0.82995,2.09182 -2.15956,3.33251 -3.6035,3.33251 -0.73256,0 -1.41854,-0.34299 -1.82505,-0.93158 -0.44885,-0.6267 -0.52083,-1.43547 -0.24136,-2.25695 0,0 1.99019,-4.56473 2.73121,-6.30085 0.49543,-1.07131 0.56318,-1.83351 0.24137,-2.33741 -0.26254,-0.41921 -0.81302,-0.63093 -1.61332,-0.63093 l -3.5781,0 c -0.0678,0 -0.14821,0.0466 -0.16938,0.10586 -0.0339,0.0635 -0.0212,0.1355 0.0169,0.19902 0.33452,0.40227 0.47849,1.15177 0.0889,1.97325 l -2.93447,6.83438 c -0.072,0.1228 -1.36349,3.02339 -1.23222,4.97547 0.22019,4.05659 3.32827,5.44972 4.93736,5.61486 2.64229,0.29218 4.46733,-0.54201 5.58522,-2.56183 0.83419,1.73612 2.29083,2.65075 4.2302,2.65075 l 0.34723,-0.0127 c 1.30844,-0.0762 2.96834,-0.80878 3.76441,-2.6804 0.32182,-0.83842 0.39804,-2.20191 -0.47002,-3.3198 -0.0466,-0.0593 -0.11433,-0.0932 -0.18208,-0.0762 -0.0677,0.0169 -0.1228,0.0762 -0.14397,0.14821 -0.33029,1.49899 -1.76153,1.32538 -2.25272,0.6394 -0.17361,-0.2583 -0.33029,-0.71139 -0.0932,-1.41007 0.21172,-0.55471 1.19411,-2.82014 2.25272,-5.25494 0.73256,-1.71495 1.5117,-3.50611 2.10028,-4.8569 0.48273,-1.07131 0.57165,-1.83351 0.2456,-2.33741 -0.27947,-0.41921 -0.81301,-0.63093 -1.61332,-0.63093"
       id="path19468"
       style="fill:#1f232b;fill-opacity:1;fill-rule:nonzero;stroke:none" />
    <path
       d="m 303.77081,384.12621 c -1.26186,1.99865 -2.74815,2.79049 -4.39958,2.32894 -0.77067,-0.23289 -1.77,-1.12636 -1.60062,-2.23155 0.14821,-1.0205 0.96969,-1.72765 2.01983,-1.77423 l 0.18631,-0.004 c 1.37196,0 2.50679,0.66057 3.79406,1.68107 m 13.56714,-18.81784 c 0.7495,-1.91397 1.37196,-3.49342 1.95208,-4.68753 1.71071,-3.41295 3.98884,-4.61553 5.41161,-4.61553 0.19055,0 0.35569,0.0212 0.52083,0.0593 1.02474,0.24559 1.4016,1.21105 1.32962,2.05793 -0.18632,1.63873 -1.85045,3.58234 -4.353,5.08133 -1.42701,0.85536 -3.08691,1.58791 -4.86114,2.10452 m -2.92176,7.79136 1.11789,-3.01492 c 5.90704,-0.7622 10.747,-4.22173 12.66944,-6.17381 2.17227,-2.1892 3.15889,-4.92888 2.64652,-7.32981 -0.36416,-1.66414 -1.41007,-2.90906 -2.95564,-3.51882 -0.84688,-0.31758 -1.73188,-0.48696 -2.65075,-0.48696 -3.3071,0 -6.90214,2.34164 -8.93467,5.80542 -2.22308,3.20546 -3.69666,6.81744 -3.98037,7.55 l -0.21596,-0.0212 c -0.41497,-0.0127 -0.81724,-0.0381 -1.156,-0.13551 -1.29574,-0.39803 -2.26966,-1.19834 -2.73545,-2.25695 -0.42344,-0.92311 -0.42344,-1.97325 0,-2.87942 0.64364,-1.4143 2.05794,-1.9182 3.1589,-1.9182 0.70291,0 1.34655,0.19055 1.77423,0.53354 0.0466,0.0466 0.13126,0.0593 0.19054,0.0296 0.0635,-0.0296 0.1101,-0.0974 0.11433,-0.15244 0.0805,-1.09248 -0.2583,-2.07487 -0.98238,-2.85401 -0.93582,-0.99086 -2.37552,-1.57945 -3.99308,-1.57945 -2.52373,0 -4.71293,1.36773 -5.86046,3.65432 -0.94852,1.85469 -0.89347,4.22597 0.0974,6.32625 1.23646,2.60418 3.73477,4.44617 7.04187,5.18719 0.22443,0.0508 0.43615,0.0677 0.66057,0.0932 0.0593,0.004 0.11433,0.004 0.16938,0.0212 -2.1638,4.93312 -3.9592,8.70601 -5.29305,11.19586 -2.00289,-1.07555 -3.96343,-1.54134 -5.7546,-1.41854 -2.86671,0.20325 -4.90348,1.57098 -5.73343,3.86604 -0.66904,1.83775 -0.48272,3.59927 0.53777,5.04322 1.28727,1.85045 3.80253,3.03609 6.38977,3.03609 0.73256,0 1.43971,-0.11433 2.07488,-0.30488 1.97748,-0.62246 3.60774,-1.50746 5.17871,-3.78135 2.45598,1.83774 6.15688,3.98037 10.14572,4.08623 l 0.43191,0 c 6.2458,0 10.2304,-3.65855 10.41672,-9.53172 0.055,-1.99866 -0.58859,-3.73054 -1.85892,-5.05169 -1.93937,-2.00288 -5.34809,-2.78626 -8.19364,-1.89702 -0.0762,0.0254 -0.13126,0.0932 -0.13126,0.16937 0,0.0889 0.055,0.16091 0.13126,0.18632 0.0339,0 3.61621,1.27033 2.40093,6.16534 -0.58859,2.41363 -2.71004,3.91262 -5.54711,3.91262 -1.74459,0 -3.68397,-0.56318 -5.64451,-1.64296 0.33875,-0.61823 0.61823,-1.27033 0.88923,-1.95631 1.28304,-3.31557 2.36705,-6.24156 3.38332,-8.95584"
       id="path19472"
       style="fill:#1f232b;fill-opacity:1;fill-rule:nonzero;stroke:none" />
    <path
       d="m 286.81233,383.62404 c -1.7827,0 -3.22664,1.44818 -3.22664,3.21394 0,1.7827 1.44394,3.22664 3.22664,3.22664 1.76153,0 3.20547,-1.44394 3.20547,-3.22664 0,-1.76576 -1.44394,-3.21394 -3.20547,-3.21394"
       id="path19476"
       style="fill:#1f232b;fill-opacity:1;fill-rule:nonzero;stroke:none" />
    <path
       d="m 280.52883,383.67993 c -0.0551,0.0127 -0.1101,0.0593 -0.1355,0.1228 -0.0212,0.0466 -0.4912,1.13906 -1.54134,1.13906 -0.2837,0 -0.60976,-0.0889 -0.95275,-0.2583 -1.02473,-0.51237 -0.80031,-1.9055 -0.42767,-2.98104 l 3.45953,-8.10895 3.8364,0 1.46935,-3.37908 -3.87451,0 2.10452,-4.80609 c 0.0296,-0.0762 0.0212,-0.13974 -0.0212,-0.18632 -0.0254,-0.055 -0.0932,-0.0804 -0.15668,-0.0804 l -3.21394,0 c -0.0593,0 -0.12703,0.0339 -0.16091,0.10163 -0.0127,0.0466 -2.3247,4.85266 -7.61352,4.95429 l -1.46511,3.39602 3.76441,0 -2.43903,5.73343 -0.30065,0.6648 c -1.27456,2.79897 -2.28236,5.00934 -1.45664,6.9953 0.6521,1.60485 1.7954,2.61264 3.29439,2.90906 l 0.24983,0.0423 c 0.38533,0.0677 0.74103,0.0974 1.09672,0.0974 2.02406,0 3.75171,-1.06284 4.61554,-2.8286 0.6394,-1.28304 0.6521,-2.6677 0.0466,-3.44684 -0.0381,-0.0593 -0.0974,-0.0804 -0.17785,-0.0804"
       id="path19480"
       style="fill:#1f232b;fill-opacity:1;fill-rule:nonzero;stroke:none" />
    <path
       d="m 274.80177,357.66951 c -0.0804,0.0508 -0.83418,0.52507 -2.1892,0.52507 -0.64364,0 -1.32962,-0.11433 -2.03677,-0.32182 1.13906,-1.427 2.20614,-1.88009 3.01916,-2.09181 0.94427,-0.271 1.65143,-0.0466 1.8208,0.54201 0.13974,0.46579 -0.10162,1.01203 -0.61399,1.34655 m 4.50968,-3.5908 c -0.89347,-0.92311 -2.48138,-1.45665 -4.36147,-1.45665 -2.10029,0 -4.25138,0.69021 -5.91975,1.88432 -0.56741,0.40228 -1.13483,0.91464 -1.84198,1.67261 l -1.10095,-0.74103 c -3.02339,-2.0537 -6.15688,-4.18362 -9.73498,-4.18362 -1.34655,0 -2.66346,0.28794 -4.01848,0.87229 -1.02473,0.44038 -1.98595,1.08402 -2.78203,1.85468 -1.71494,1.53711 -2.51949,3.58234 -2.40516,6.03831 0.12704,2.77356 2.49409,5.03475 5.26341,5.03475 1.34232,0 2.57454,-0.53354 3.48918,-1.47358 0.90193,-0.95699 1.36349,-2.22732 1.29574,-3.57387 -0.008,-0.2456 -0.0423,-0.48273 -0.0889,-0.71985 -0.008,-0.0635 -0.0677,-0.1228 -0.1355,-0.14398 -0.072,-0.0127 -0.14821,0.004 -0.19478,0.0805 -0.67328,0.9104 -2.13416,1.03744 -2.90059,0.2583 -0.33876,-0.35146 -0.51661,-0.82572 -0.4912,-1.33385 0.0212,-0.44885 0.16938,-1.32961 0.96969,-1.98172 0.52083,-0.4192 1.10519,-0.8003 2.71427,-0.96121 1.90127,-0.22443 3.80676,0.69868 5.42008,1.59638 0.44885,0.23713 0.92311,0.52507 1.44818,0.81725 0.44885,0.271 0.92734,0.542 1.4143,0.81724 -2.02829,2.82861 -3.43836,5.81389 -3.87027,6.7624 -0.008,0.0212 -0.0127,0.0466 -0.0296,0.0551 -0.0212,0.055 -1.98172,4.85267 -7.61352,4.95006 l -1.47782,3.40872 5.2507,0 c -1.5498,3.32403 -2.65923,5.56405 -3.58657,7.22819 -1.12212,1.78269 -2.66769,2.79473 -4.24291,2.79473 -1.15176,0 -2.21461,-0.44039 -3.00221,-1.2534 -0.78761,-0.80878 -1.18988,-1.89703 -1.15177,-3.05303 0.0593,-1.75306 1.15177,-3.31133 2.78626,-3.98884 0.0805,-0.0254 0.11856,-0.10163 0.1101,-0.19055 -0.004,-0.0847 -0.072,-0.13974 -0.15668,-0.16514 -4.53085,-0.57165 -8.49852,2.09181 -9.78579,6.2839 -0.56741,1.81234 -0.33452,3.811 0.64787,5.6191 1.1433,2.11299 3.197,3.69243 5.76731,4.42923 1.02897,0.29217 2.06217,0.44461 3.07844,0.44461 4.32759,0 8.28679,-2.8032 10.8571,-7.6855 0.19478,-0.30912 0.34298,-0.66904 0.5166,-1.02474 l 0.13973,-0.2837 c 0.0593,-0.1228 0.1228,-0.2456 0.18208,-0.38534 l 0.13127,-0.27947 c 1.27457,-3.05303 2.38399,-5.76307 3.40872,-8.27833 l 0.0847,-0.21172 5.00511,0 1.47358,-3.39602 -5.09826,0 c 0.5166,-1.28303 1.03744,-2.53219 1.60062,-3.88298 1.13906,-2.6804 1.95207,-4.66635 2.78202,-6.09336 0.82995,0.27948 1.55404,0.44462 2.19768,0.50814 0.37686,0.0847 0.85959,0.11856 1.37196,0.11856 2.48138,0 7.21124,-1.01203 7.34251,-4.84843 0.0339,-0.72832 -0.23713,-1.39737 -0.75796,-1.93937"
       id="path19484"
       style="fill:#1f232b;fill-opacity:1;fill-rule:nonzero;stroke:none" />
    <path
       d="m 272.61808,443.64639 0,8.72294 9.56983,0 0,61.25539 0,0.12703 0.1228,0 8.45194,0 0.13127,0 0,-0.12703 0,-61.25539 9.55289,0 0,-8.72294 -27.82873,0 z"
       id="path19488"
       style="fill:#feefad;fill-opacity:1;fill-rule:nonzero;stroke:none" />
    <path
       d="m 540.29769,568.18796 0.0339,-37.8093 c 34.07452,26.9522 72.50205,35.44225 81.6315,30.90717 -8.24022,23.264 -81.66538,54.43793 -81.66538,6.90213"
       id="path19492"
       style="fill:#feefad;fill-opacity:1;fill-rule:nonzero;stroke:none" />
    <path
       d="m 510.74128,701.08072 0,12.2714 -1.59638,0 0,-9.7265 0,-0.25407 0,-0.49543 0,-0.22019 c -0.0381,0.0974 -0.0593,0.18208 -0.0847,0.19902 l -0.0889,0.24136 -0.0974,0.22443 -4.28948,10.03138 -1.55404,0 -4.29796,-9.92552 -0.0889,-0.16938 -0.0932,-0.23713 c -0.0212,-0.0423 -0.055,-0.11009 -0.0889,-0.21595 l 0,0.26677 0,0.2837 0,0.27101 0,9.7265 -1.60909,0 0,-12.2714 2.60842,0 3.34944,7.86759 0.53777,1.27033 0.25407,0.63516 0.16937,0.40651 c 0.10163,-0.20325 0.17362,-0.35146 0.19055,-0.40651 l 0.26254,-0.63516 0.5293,-1.27033 3.34944,-7.86759 2.63806,0 z m -18.98299,1.45241 0,10.81899 -1.61332,0 0,-10.81899 -4.06506,0 0,-1.45241 9.71804,0 0,1.45241 -4.03966,0 z"
       id="path19496"
       style="fill:#1f232b;fill-opacity:1;fill-rule:nonzero;stroke:none" />
  </g>
</svg>
