<?xml version="1.0" encoding="UTF-8" standalone="no"?>
<!-- Created with Inkscape (http://www.inkscape.org/) -->

<svg
   xmlns:dc="http://purl.org/dc/elements/1.1/"
   xmlns:cc="http://creativecommons.org/ns#"
   xmlns:rdf="http://www.w3.org/1999/02/22-rdf-syntax-ns#"
   xmlns:svg="http://www.w3.org/2000/svg"
   xmlns="http://www.w3.org/2000/svg"
   version="1.1"
   width="300"
   height="173.46747"
   id="svg6063"
   xml:space="preserve"><metadata
     id="metadata6069"><rdf:RDF><cc:Work
         rdf:about=""><dc:format>image/svg+xml</dc:format><dc:type
           rdf:resource="http://purl.org/dc/dcmitype/StillImage" /><dc:title></dc:title></cc:Work></rdf:RDF></metadata><defs
     id="defs6067" /><g
     transform="matrix(1.25,0,0,-1.25,-217.91718,621.59579)"
     id="g6071"><path
       d="m 294.33361,497.27663 c 66.09358,0 120.00013,-31.17016 120.00013,-69.38698 0,-38.21682 -53.90655,-69.38699 -120.00013,-69.38699 -66.09357,0 -119.99987,31.17017 -119.99987,69.38699 0,38.21682 53.9063,69.38698 119.99987,69.38698 l 0,0 z"
       id="path6073"
       style="fill:#1d3c85;fill-opacity:1;fill-rule:nonzero;stroke:none" /><path
       d="m 294.3331,490.28905 c 58.0076,0 105.31968,-28.03792 105.31968,-62.41519 0,-34.37726 -47.31208,-62.4157 -105.31968,-62.4157 -58.00784,0 -105.31917,28.03844 -105.31917,62.4157 0,34.37727 47.31133,62.41519 105.31917,62.41519 l 0,0 z"
       id="path6075"
       style="fill:#ffffff;fill-opacity:1;fill-rule:nonzero;stroke:none" /><path
       d="m 309.58719,452.15676 c 2.40252,0 4.36253,-1.96103 4.36253,-4.36609 0,-2.40456 -1.96001,-4.3661 -4.36253,-4.3661 -2.40252,0 -4.36202,1.96154 -4.36202,4.3661 0,2.40506 1.9595,4.36609 4.36202,4.36609 l 0,0 m -15.25383,35.61876 c 1.90017,0 3.7871,-0.0357 5.66105,-0.10032 l 0,0 12.03706,-35.7425 -18.05992,35.83976 0,0 c 0.12094,5.1e-4 0.24087,0.003 0.36181,0.003 l 0,0 m 21.06663,-1.37134 c 1.7665,-0.23272 3.5162,-0.49395 5.24706,-0.78268 l 0,0 -7.1979,-34.9257 1.95084,35.70838 0,0 m 21.49184,-4.45521 c 2.19069,-0.63399 4.3386,-1.31482 6.43762,-2.04098 l 0,0 -29.06248,-32.63418 22.62486,34.67516 0,0 m 26.30605,-11.0736 c 3.01818,-1.76702 5.85151,-3.6486 8.48165,-5.63254 l 0,0 -59.16888,-21.22806 50.68723,26.8606 0,0 m 28.10566,-30.67012 c 1.325,-3.80136 2.04657,-7.73359 2.1092,-11.758 l 0,0 -82.15173,14.77414 80.04253,-3.01614 0,0 m -11.70403,-42.77845 c -2.7987,-2.84861 -5.97626,-5.54699 -9.49094,-8.06816 l 0,0 -60.08192,53.64175 69.57286,-45.57359 0,0 m -39.33967,-22.59439 c -3.38583,-1.07701 -6.88675,-2.03842 -10.48697,-2.87712 l 0,0 -21.72558,71.28691 32.21255,-68.40979 0,0 m -38.3263,-6.67644 c -2.50946,-0.1156 -5.04336,-0.17518 -7.60018,-0.17518 -1.15289,0 -2.2989,0.0168 -3.44236,0.0407 l 0,0 14.89432,76.73103 -3.85178,-76.5966 0,0 m -46.30637,4.59728 c -4.5237,1.16715 -8.874,2.53339 -13.02572,4.07737 l 0,0 62.00145,71.39842 -48.97573,-75.47579 0,0 m -49.04549,27.35709 c -3.62899,4.16699 -6.46665,8.62169 -8.39763,13.28924 l 0,0 106.79771,36.50176 -98.40008,-49.791 0,0 m 1.75657,57.47215 c 3.96406,4.17106 8.73372,8.02996 14.18039,11.49575 l 0,0 84.66603,-17.09163 -98.84642,5.59588 0,0 m 53.09638,26.78574 c 2.99042,0.63958 6.04552,1.19413 9.1579,1.66007 l 0,0 37.99149,-33.51107 -47.14939,31.851 0,0 z"
       id="path6077"
       style="fill:#fbc707;fill-opacity:1;fill-rule:nonzero;stroke:none" /><path
       d="m 294.99739,423.61776 34.23977,29.4439 18.04286,-3.69851 0,-44.03573 -18.2384,0 0,28.49266 -26.42724,-22.96655 -15.23398,0 -26.42673,22.96655 0,-28.49266 -18.23891,0 0,44.03573 18.04336,3.69851 34.23927,-29.4439 0,0 z"
       id="path6079"
       style="fill:#ffffff;fill-opacity:1;fill-rule:nonzero;stroke:#fbc707;stroke-width:0.81235605;stroke-linecap:butt;stroke-linejoin:miter;stroke-miterlimit:20;stroke-opacity:1;stroke-dasharray:none" /><path
       d="m 288.41616,413.27591 -29.74026,25.43731 0.002,-31.11975 -13.64289,5.1e-4 0,39.91763 15.12881,3.06961 34.83405,-29.89049 34.83403,29.89049 15.12857,-3.06961 0,-39.91763 -13.64265,-5.1e-4 0.002,31.11975 -29.73976,-25.43731 -13.16295,0 0,0 z"
       id="path6081"
       style="fill:#fbc707;fill-opacity:1;fill-rule:nonzero;stroke:none" /><path
       d="m 294.3331,487.77552 c 54.57746,0 99.09186,-26.90694 99.09186,-59.89708 0,-32.99013 -44.5144,-59.89758 -99.09186,-59.89758 -54.57796,0 -99.09186,26.90745 -99.09186,59.89758 0,32.99014 44.5139,59.89708 99.09186,59.89708 l 0,0 z"
       id="path6083"
       style="fill:none;stroke:#1d3c85;stroke-width:1.89576507;stroke-linecap:butt;stroke-linejoin:miter;stroke-miterlimit:1;stroke-opacity:1;stroke-dasharray:none" /><path
       d="m 210.73314,421.7265 0,13.35187 97.29277,0.004 0,0 c 0.40788,0.77912 1.22519,1.31329 2.16318,1.31329 0.938,0 1.75479,-0.53417 2.16319,-1.31329 l 0,0 67.32463,0.003 0,-13.35799 -7.68675,0 -7.14035,7.30025 -1.46046,0.002 0,-7.30229 -3.71581,0 0,9.84026 7.24729,0 7.58796,-7.29566 1.4467,-10e-4 0.003,8.19903 -63.83745,0.004 0,0 c -0.17008,-0.22049 -0.37683,-0.41094 -0.61107,-0.56269 l 0,0 0.66963,-0.34373 0,-9.84026 -4.08348,0 0,9.84026 0.72667,0.37377 0,0 c -0.21592,0.14666 -0.40738,0.32693 -0.56677,0.53316 l 0,0 -92.75201,0.006 0,0 c -0.43513,0 -0.94054,-0.47766 -0.94054,-0.91253 l 0,0 0,-1.17275 0,0 c 0,-0.42265 0.42291,-0.94512 0.84582,-0.94512 l 0,0 10.97685,-0.004 0,-2.32665 -10.74133,-0.006 0,0 c -0.47485,-5.1e-4 -1.08134,-0.45627 -1.08134,-1.1534 l 0,0 0,-4.23267 -3.83039,0 0,0 z"
       id="path6085"
       style="fill:#231f20;fill-opacity:1;fill-rule:nonzero;stroke:none" /><path
       d="m 330.64568,431.56676 12.47397,0 0,0 c 1.47472,0 2.68056,-0.20827 2.68056,-1.52156 l 0,0 0,-6.83227 0,0 c 0,-1.31279 -1.20584,-1.48643 -2.68056,-1.48643 l 0,0 -12.47397,0 0,0 c -1.47421,0 -2.68056,0.17364 -2.68056,1.48643 l 0,0 0,6.83227 0,0 c 0,1.31329 1.20584,1.52156 2.68056,1.52156 l 0,0 z"
       id="path6087"
       style="fill:#231f20;fill-opacity:1;fill-rule:nonzero;stroke:none" /><path
       d="m 274.09472,423.95945 c 0,0.44914 0.15736,0.57848 0.74525,0.57848 l 0,0 3.00341,5.1e-4 0,0 c 0.15048,-0.30248 0.41375,-0.8611 0.7977,-0.8611 l 0,0 7.99331,0.002 0,0 c 0.35824,0 0.8583,0.28924 0.8583,0.64774 l 0,0 2.5e-4,0.81679 0,0 c 0,0.36868 -0.51712,0.66199 -0.88427,0.66199 l 0,0 -10.69474,-0.002 0,0 c -1.1399,0 -1.81921,0.5851 -1.81921,1.59438 l 0,0 0,2.93772 0,0 c 0,0.68491 0.96091,1.23029 1.64531,1.23029 l 0,0 14.17351,0 0,0 c 1.01972,0 1.8136,-0.58001 1.8136,-1.33723 l 0,0 0,-0.89573 0,0 c 0,-0.44913 -0.15735,-0.57848 -0.74525,-0.57848 l 0,0 -3.0034,-5e-4 0,0 c -0.15048,0.30248 -0.41375,0.8611 -0.79771,0.8611 l 0,0 -7.9933,-0.002 0,0 c -0.35849,0 -0.8583,-0.28924 -0.8583,-0.64773 l 0,0 -2.5e-4,-0.75875 0,0 c 0,-0.36817 0.51711,-0.66148 0.88427,-0.66148 l 0,0 10.69474,-0.004 0,0 c 1.20126,0.0193 1.8192,-0.6294 1.8192,-1.54142 l 0,0 0,-3.04415 0,0 c 0,-0.68491 -0.9609,-1.23029 -1.64555,-1.23029 l 0,0 -14.17326,0 0,0 c -1.01973,0 -1.81361,0.58001 -1.81361,1.33723 l 0,0 0,0.89572 0,0 z"
       id="path6089"
       style="fill:#231f20;fill-opacity:1;fill-rule:nonzero;stroke:none" /><path
       d="m 240.90522,431.56676 3.76369,0 0,-6.81649 0,0 c 0,-0.55302 0.73583,-1.04543 1.28885,-1.04543 l 0,0 8.40755,-10e-4 0,0 c 0.7366,0 1.46734,0.95888 1.46734,1.69573 l 0,0 0,6.16722 3.84261,0 0,-7.16734 0,0 c 0,-1.53328 -0.6867,-2.67292 -2.30934,-2.67292 l 0,0 -14.66084,0 0,0 c -0.88707,0 -1.79986,1.07344 -1.79986,1.96051 l 0,0 0,7.87975 0,0 z"
       id="path6091"
       style="fill:#231f20;fill-opacity:1;fill-rule:nonzero;stroke:none" /><path
       d="m 316.7469,376.20841 0,2.04301 2.63218,0 0,-2.04301 -2.63218,0 0,0 z"
       id="path6093"
       style="fill:#231f20;fill-opacity:1;fill-rule:nonzero;stroke:none" /><path
       d="m 306.58175,378.44849 8.4241,-0.005 -1.62493,-2.23499 -7.54265,0 -1.99208,1.93403 0,5.91109 1.99208,1.93403 7.54265,0 1.62493,-2.23498 -8.4241,-0.005 0,-5.30001 0,0 z"
       id="path6095"
       style="fill:#231f20;fill-opacity:1;fill-rule:nonzero;stroke:none" /><path
       d="m 288.61756,376.20841 0,2.04301 2.66019,0 0,-2.04301 -2.66019,0 0,0 z"
       id="path6097"
       style="fill:#231f20;fill-opacity:1;fill-rule:nonzero;stroke:none" /><path
       d="m 278.34599,376.21859 0,9.76898 9.91053,5e-4 -1.11622,-1.94065 -6.21967,0 0,-1.91265 7.01356,0 -0.95353,-1.88617 -6.06003,0 0,-4.03001 -2.57464,0 0,0 z"
       id="path6099"
       style="fill:#231f20;fill-opacity:1;fill-rule:nonzero;stroke:none" /><path
       d="m 310.18909,435.9074 c 1.07549,0 1.95186,-0.87587 1.95186,-1.94983 0,-1.07395 -0.87637,-1.94982 -1.95186,-1.94982 -1.07446,0 -1.95134,0.87587 -1.95134,1.94982 0,1.07396 0.87688,1.94983 1.95134,1.94983 l 0,0 z"
       id="path6101"
       style="fill:#ffffff;fill-opacity:1;fill-rule:nonzero;stroke:none" /><path
       d="m 333.43012,429.58588 6.88778,0 0,0 c 0.81374,0 1.4798,-0.12477 1.4798,-0.91101 l 0,0 0,-4.09264 0,0 c 0,-0.78675 -0.66606,-0.89063 -1.4798,-0.89063 l 0,0 -6.88778,0 0,0 c -0.81374,0 -1.47981,0.10388 -1.47981,0.89063 l 0,0 0,4.09264 0,0 c 0,0.78624 0.66607,0.91101 1.47981,0.91101 l 0,0 z"
       id="path6103"
       style="fill:#fbc707;fill-opacity:1;fill-rule:nonzero;stroke:none" /></g></svg>