<?xml version="1.0" encoding="UTF-8" standalone="no"?>
<!-- Created with Inkscape (http://www.inkscape.org/) -->

<svg
   xmlns:dc="http://purl.org/dc/elements/1.1/"
   xmlns:cc="http://creativecommons.org/ns#"
   xmlns:rdf="http://www.w3.org/1999/02/22-rdf-syntax-ns#"
   xmlns:svg="http://www.w3.org/2000/svg"
   xmlns="http://www.w3.org/2000/svg"
   version="1.1"
   width="538.58264"
   height="738.07086"
   id="svg7908">
  <defs
     id="defs7910">
    <clipPath
       id="clipPath7669">
      <path
         d="m 18,647.34 92,0 0,126.552 -92,0 0,-126.552 z"
         id="path7671" />
    </clipPath>
    <clipPath
       id="clipPath7677">
      <path
         d="m 18,773.892 92,0 0,-126.552 -92,0 0,126.552 z"
         id="path7679" />
    </clipPath>
    <clipPath
       id="clipPath7685">
      <path
         d="m 18,773.892 92,0 0,-126.552 -92,0 0,126.552 z"
         id="path7687" />
    </clipPath>
    <clipPath
       id="clipPath7693">
      <path
         d="m 17.395,777.489 93.074,0 0,-132.963 -93.074,0 0,132.963 z"
         id="path7695" />
    </clipPath>
    <clipPath
       id="clipPath7717">
      <path
         d="m 108.358,769.809 c -14.807,1.635 -29.683,2.449 -44.558,2.441 -14.742,-0.007 -29.484,-0.821 -44.159,-2.441 l 0,-39.292 c 0,-21.574 3.111,-36.555 9.791,-47.147 8.913,-14.13 18.611,-24.577 32.425,-32.836 l 2.143,-1.282 2.143,1.282 c 13.815,8.259 23.511,18.706 32.424,32.837 6.68,10.591 9.791,25.572 9.791,47.146 l 0,39.292 z"
         id="path7719" />
    </clipPath>
  </defs>
  <metadata
     id="metadata7913">
    <rdf:RDF>
      <cc:Work
         rdf:about="">
        <dc:format>image/svg+xml</dc:format>
        <dc:type
           rdf:resource="http://purl.org/dc/dcmitype/StillImage" />
        <dc:title></dc:title>
      </cc:Work>
    </rdf:RDF>
  </metadata>
  <g
     transform="translate(-130.46488,-184.99096)"
     id="layer1">
    <g
       transform="matrix(5.7771311,0,0,-5.7771311,30.01981,4659.3482)"
       clip-path="url(#clipPath7669)"
       id="g7667">
      <g
         id="g7673">
        <g
           clip-path="url(#clipPath7677)"
           id="g7675">
          <g
             id="g7681">
            <g
               clip-path="url(#clipPath7685)"
               id="g7683">
              <g
                 id="g7689">
                <g
                   clip-path="url(#clipPath7693)"
                   id="g7691">
                  <path
                     d="m 104.82,656.945 -2.134,0.672 c -12.292,3.869 -25.952,5.832 -38.835,5.832 -12.884,0 -26.245,-1.963 -38.537,-5.832 l -2.134,-0.672 0,2.238 0.298,15.153 0,1.203 1.148,0.362 c 12.611,3.984 26.007,6.899 39.225,6.899 13.217,0 26.911,-2.915 39.524,-6.899 l 1.147,-0.362 0,-1.203 0.298,-15.153 0,-2.238 z"
                     id="path7697"
                     style="fill:#76afe3;fill-opacity:1;fill-rule:nonzero;stroke:none" />
                  <path
                     d="m 103.179,659.182 c -12.455,3.921 -26.279,5.908 -39.328,5.908 -13.05,0 -26.576,-1.987 -39.03,-5.908 l 0.298,15.153 c 12.452,3.933 25.681,6.823 38.732,6.823 13.05,0 26.577,-2.89 39.029,-6.823 l 0.299,-15.153 z"
                     id="path7699"
                     style="fill:#0c2950;fill-opacity:1;fill-rule:nonzero;stroke:none" />
                  <path
                     d="m 99.579,662.671 c -3.552,-0.233 -12.501,0.236 -15.122,0.671 l -0.636,5.603 14.698,-2.163 1.06,-4.111 z"
                     id="path7701"
                     style="fill:#76afe3;fill-opacity:1;fill-rule:nonzero;stroke:none" />
                  <path
                     d="m 28.421,662.671 c 3.552,-0.233 12.501,0.236 15.121,0.671 l 0.637,5.603 -14.698,-2.163 -1.06,-4.111 z"
                     id="path7703"
                     style="fill:#76afe3;fill-opacity:1;fill-rule:nonzero;stroke:none" />
                  <path
                     d="m 64,647.34 -0.842,0.503 -2.143,1.282 C 47.778,657.039 37.609,667.331 28.044,682.495 21.192,693.359 18,708.618 18,730.517 l 0,39.292 0,1.47 1.461,0.162 c 14.67,1.619 29.587,2.444 44.339,2.451 l 0.207,0 c 14.821,0 29.804,-0.825 44.532,-2.451 l 1.461,-0.162 0,-1.47 0,-39.292 c 0,-21.898 -3.192,-37.158 -10.045,-48.022 -9.564,-15.164 -19.733,-25.457 -32.97,-33.37 L 64.842,647.843 64,647.34 z"
                     id="path7705"
                     style="fill:#76afe3;fill-opacity:1;fill-rule:nonzero;stroke:none" />
                  <path
                     d="m 108.358,769.809 c -14.807,1.635 -29.683,2.449 -44.558,2.441 -14.742,-0.007 -29.484,-0.821 -44.159,-2.441 l 0,-39.292 c 0,-21.574 3.111,-36.555 9.791,-47.147 8.913,-14.13 18.611,-24.577 32.425,-32.836 l 2.143,-1.282 2.143,1.282 c 13.815,8.259 23.511,18.706 32.424,32.837 6.68,10.591 9.791,25.572 9.791,47.146 l 0,39.292 z"
                     id="path7707"
                     style="fill:#0c2950;fill-opacity:1;fill-rule:nonzero;stroke:none" />
                  <path
                     d="M 63.819,758.88 C 50.46,758.824 37.101,758.037 23.804,756.519 l 0,-26.002 c 0,-19.647 2.58,-34.506 9.15,-44.917 C 40.8,673.165 49.757,662.931 64,654.418 c 14.243,8.513 23.201,18.747 31.046,31.182 6.57,10.411 9.151,25.27 9.151,44.917 l 0,26.002 c -13.419,1.531 -26.898,2.318 -40.378,2.361"
                     id="path7709"
                     style="fill:#fddd04;fill-opacity:1;fill-rule:nonzero;stroke:none" />
                  <path
                     d="m 63.837,749.418 c -11.993,-0.204 -23.687,-0.971 -35.64,-2.3 l 0,-16.059 c 0,-8.29 0.858,-26.296 6.728,-35.401 6.869,-10.652 16.367,-19.467 29.075,-26.728 12.709,7.261 22.207,16.076 29.075,26.728 5.871,9.105 6.729,27.111 6.729,35.401 l 0,16.059 c -12.062,1.339 -23.865,2.106 -35.967,2.3"
                     id="path7711"
                     style="fill:#0c2950;fill-opacity:1;fill-rule:nonzero;stroke:none" />
                  <g
                     id="g7713">
                    <g
                       clip-path="url(#clipPath7717)"
                       id="g7715">
                      <path
                         d="m 36.024,679.975 2.898,8.916 7.718,23.748 -20.208,14.682 -7.588,5.512 9.379,0 24.978,0 7.719,23.759 2.897,8.919 2.899,-8.919 7.722,-23.759 24.98,0 9.378,0 -7.586,-5.512 -20.208,-14.682 7.718,-23.748 2.898,-8.915 -7.585,5.508 -20.213,14.674 -20.209,-14.674 -7.587,-5.509 z"
                         id="path7721"
                         style="fill:#0c2950;fill-opacity:1;fill-rule:nonzero;stroke:none" />
                      <path
                         d="m 76.694,700.505 -4.674,14.377 -0.244,0.748 0.636,0.463 5.371,3.903 6.869,4.991 -15.127,0 -0.786,0 -0.243,0.749 -4.677,14.386 -4.677,-14.386 -0.242,-0.749 -0.786,0 -15.124,0 12.237,-8.891 0.637,-0.461 -0.243,-0.748 -4.673,-14.382 12.234,8.888 0.636,0.463 0.636,-0.463 12.24,-8.888 z M 99.418,729.786 77.419,713.802 85.823,687.95 63.819,703.924 41.82,687.95 l 8.402,25.852 -21.999,15.984 27.192,0 8.403,25.864 8.407,-25.864 27.193,0 z"
                         id="path7723"
                         style="fill:#fddd04;fill-opacity:1;fill-rule:nonzero;stroke:none" />
                      <path
                         d="m 85.608,726.195 -35.935,-8.606 2.421,-3.21 33.501,10.989 0.013,0.827 z"
                         id="path7725"
                         style="fill:#fddd04;fill-opacity:1;fill-rule:nonzero;stroke:none" />
                      <path
                         d="m 86.183,725.854 -33.282,-14.177 -1.422,-4.542 33.745,17.011 0.959,1.708 z"
                         id="path7727"
                         style="fill:#fddd04;fill-opacity:1;fill-rule:nonzero;stroke:none" />
                      <path
                         d="m 63.821,693.053 c 1.893,0 3.739,0.206 5.518,0.594 l -0.054,0.04 -0.953,0.691 -0.353,0.257 -0.712,0.517 -0.533,0.386 -0.555,0.402 -0.262,0.191 -0.848,0.616 -0.843,0.611 -0.291,0.21 -0.061,0.044 -0.053,0.037 -0.002,0 -0.052,-0.037 -0.061,-0.044 -0.291,-0.21 -0.843,-0.611 -0.849,-0.616 -0.261,-0.191 -0.555,-0.402 -0.534,-0.386 -0.711,-0.517 -0.353,-0.257 -0.953,-0.691 -0.053,-0.04 c 1.777,-0.388 3.623,-0.595 5.518,-0.594 m 0,-1.344 c -2.114,0 -4.17,0.242 -6.144,0.699 -10e-4,0 -0.002,0 -0.002,0 -0.002,10e-4 -0.003,10e-4 -0.004,10e-4 l 0,10e-4 c -0.8,0.244 -1.365,0.299 -1.365,1.415 0,0.116 0.001,0.221 0.005,0.318 l 0,10e-4 c 0.012,0.319 0.059,0.539 0.241,0.692 l 7.267,5.321 0.002,10e-4 7.267,-5.322 c 0.182,-0.153 0.23,-0.373 0.242,-0.692 0,0 0,-10e-4 0,-10e-4 0.004,-0.097 0.004,-0.202 0.004,-0.318 0,-1.117 -0.564,-1.171 -1.364,-1.415 l 0,-10e-4 c -0.002,0 -0.002,0 -0.003,-10e-4 -0.002,0 -0.002,0 -0.003,0 -1.974,-0.456 -4.03,-0.699 -6.143,-0.699"
                         id="path7729"
                         style="fill:#76afe3;fill-opacity:1;fill-rule:nonzero;stroke:none" />
                      <path
                         d="m 49.027,738.582 c -1.533,-1.113 -2.904,-2.366 -4.115,-3.724 l 0.067,-10e-4 1.177,0.002 0.437,-0.001 0.88,-10e-4 0.658,0.002 0.685,0 0.324,0 1.048,10e-4 1.041,10e-4 0.359,0 0.076,10e-4 0.064,0 10e-4,0.001 0.021,0.062 0.024,0.071 0.111,0.341 0.323,0.99 0.325,0.997 0.099,0.308 0.213,0.652 0.205,0.625 0.271,0.837 0.134,0.416 0.365,1.119 0.021,0.064 c -1.667,-0.732 -3.282,-1.649 -4.814,-2.763 m -0.79,1.087 c 1.71,1.242 3.516,2.255 5.382,3.046 0,0 10e-4,0 10e-4,0 0.002,10e-4 0.003,0.002 0.003,0.002 l 0.001,0 c 0.79,0.273 1.28,0.56 1.936,-0.343 0.068,-0.095 0.129,-0.18 0.183,-0.26 10e-4,0 10e-4,-10e-4 10e-4,-10e-4 0.177,-0.266 0.268,-0.471 0.211,-0.702 l -2.752,-8.577 -0.001,-10e-4 -9.006,0.034 c -0.238,0.017 -0.406,0.167 -0.603,0.418 -0.001,0 -0.001,10e-4 -0.001,10e-4 -0.059,0.076 -0.122,0.16 -0.19,0.254 -0.656,0.904 -0.232,1.28 0.272,1.948 l 0,0 c 0,10e-4 10e-4,0.002 0.002,0.003 0,0 10e-4,10e-4 10e-4,10e-4 1.329,1.53 2.851,2.935 4.56,4.177"
                         id="path7731"
                         style="fill:#76afe3;fill-opacity:1;fill-rule:nonzero;stroke:none" />
                      <path
                         d="m 39.883,710.444 c 0.586,-1.802 1.353,-3.493 2.272,-5.064 l 0.02,0.063 0.363,1.12 0.136,0.415 0.272,0.836 0.202,0.627 0.211,0.651 0.1,0.309 0.324,0.997 0.32,0.991 0.111,0.342 0.023,0.071 0.019,0.061 0,0.002 -0.052,0.039 -0.061,0.044 -0.29,0.212 -0.842,0.612 -0.848,0.618 -0.262,0.189 -0.553,0.404 -0.532,0.388 -0.713,0.517 -0.353,0.256 -0.952,0.692 -0.054,0.04 c 0.181,-1.811 0.554,-3.631 1.139,-5.432 m -1.277,-0.415 c -0.653,2.01 -1.058,4.04 -1.234,6.059 0,0.001 0,0.001 0,0.002 0,10e-4 -10e-4,0.002 0,0.003 l 0,0.001 c -0.015,0.836 -0.137,1.39 0.925,1.735 0.11,0.036 0.21,0.068 0.303,0.094 10e-4,0 10e-4,0 10e-4,0 0.307,0.087 0.531,0.11 0.733,-0.015 l 7.307,-5.268 0,-10e-4 -2.815,-8.556 c -0.09,-0.22 -0.284,-0.333 -0.584,-0.444 0,0 0,0 0,0 -0.091,-0.034 -0.191,-0.067 -0.301,-0.103 -1.062,-0.345 -1.289,0.175 -1.769,0.861 0,10e-4 -10e-4,10e-4 -10e-4,0.003 -10e-4,0 -10e-4,10e-4 -10e-4,0.002 -1.045,1.736 -1.911,3.617 -2.564,5.627"
                         id="path7733"
                         style="fill:#76afe3;fill-opacity:1;fill-rule:nonzero;stroke:none" />
                      <path
                         d="m 78.615,738.582 c -1.533,1.114 -3.148,2.031 -4.814,2.763 l 0.021,-0.064 0.365,-1.119 0.133,-0.416 0.272,-0.837 0.204,-0.625 0.213,-0.652 0.1,-0.308 0.324,-0.997 0.324,-0.99 0.11,-0.341 0.025,-0.071 0.02,-0.061 10e-4,-0.002 0.065,0 0.075,-10e-4 0.359,0 1.041,-10e-4 1.049,-10e-4 0.324,0 0.684,-0.001 0.659,-10e-4 0.88,0 0.436,10e-4 1.177,-10e-4 0.067,10e-4 c -1.21,1.358 -2.581,2.611 -4.114,3.724 m 0.789,1.087 c 1.71,-1.242 3.231,-2.647 4.56,-4.177 0,0 0.001,-10e-4 0.001,-10e-4 10e-4,-10e-4 0.002,-0.002 0.002,-0.003 l 0,0 c 0.504,-0.668 0.929,-1.044 0.272,-1.948 -0.068,-0.094 -0.13,-0.178 -0.19,-0.254 l 0,-10e-4 c -0.198,-0.251 -0.365,-0.401 -0.603,-0.418 l -9.007,-0.033 -10e-4,0 -2.752,8.576 c -0.057,0.232 0.034,0.437 0.211,0.703 0,0 10e-4,10e-4 10e-4,10e-4 0.054,0.08 0.115,0.165 0.184,0.26 0.656,0.903 1.145,0.616 1.936,0.343 l 0,0 c 0.002,-10e-4 0.002,-10e-4 0.003,-10e-4 0,-10e-4 0.001,-10e-4 0.002,-10e-4 1.865,-0.791 3.671,-1.804 5.381,-3.046"
                         id="path7735"
                         style="fill:#76afe3;fill-opacity:1;fill-rule:nonzero;stroke:none" />
                      <path
                         d="m 87.758,710.444 c 0.585,1.802 0.959,3.621 1.14,5.432 l -0.055,-0.04 -0.951,-0.692 -0.354,-0.256 -0.712,-0.517 -0.532,-0.388 -0.553,-0.403 -0.263,-0.19 -0.848,-0.617 -0.841,-0.613 -0.291,-0.212 -0.06,-0.044 -0.052,-0.039 0,-10e-4 0.019,-0.062 0.022,-0.071 0.111,-0.342 0.32,-0.991 0.324,-0.997 0.101,-0.308 0.21,-0.652 0.202,-0.626 0.273,-0.837 0.135,-0.415 0.363,-1.119 0.021,-0.064 c 0.918,1.571 1.685,3.262 2.271,5.064 m 1.277,-0.415 c -0.653,-2.01 -1.519,-3.891 -2.563,-5.627 -10e-4,-0.001 -10e-4,-0.002 -10e-4,-0.002 -0.001,-0.002 -0.001,-0.002 -0.001,-0.002 l -0.001,-10e-4 c -0.479,-0.686 -0.707,-1.205 -1.769,-0.861 -0.11,0.036 -0.209,0.069 -0.3,0.103 l -0.001,0 c -0.3,0.111 -0.494,0.224 -0.584,0.444 l -2.815,8.556 0,0.002 7.307,5.266 c 0.202,0.126 0.426,0.103 0.734,0.016 0,10e-4 0,0 0,0 0.093,-0.026 0.194,-0.058 0.304,-0.094 1.062,-0.345 0.94,-0.899 0.924,-1.735 l 10e-4,0 c 0,-0.002 -10e-4,-0.003 -10e-4,-0.004 l 0,-0.002 c -0.176,-2.018 -0.581,-4.049 -1.234,-6.059"
                         id="path7737"
                         style="fill:#76afe3;fill-opacity:1;fill-rule:nonzero;stroke:none" />
                      <path
                         d="m 99.506,660.45 c -23.19,7.536 -48.169,7.536 -71.359,0 l 0,23.812 c 23.19,7.535 48.169,7.535 71.359,0 l 0,-23.812 z"
                         id="path7739"
                         style="fill:#0c2950;fill-opacity:1;fill-rule:nonzero;stroke:none" />
                    </g>
                  </g>
                  <path
                     d="m 32.505,768.25 c 0.03,-0.034 0.045,-0.077 0.044,-0.129 l 0,-7.324 c 0,-0.059 -0.017,-0.11 -0.054,-0.154 -0.036,-0.043 -0.081,-0.066 -0.135,-0.07 -0.444,-0.034 -0.888,-0.068 -1.332,-0.103 -0.053,-0.005 -0.096,0.012 -0.129,0.05 -0.034,0.038 -0.05,0.087 -0.05,0.145 l 0,3.884 c -0.232,-0.646 -0.464,-1.291 -0.696,-1.937 -0.086,-0.243 -0.173,-0.483 -0.259,-0.718 -0.086,-0.236 -0.162,-0.447 -0.228,-0.633 -0.067,-0.186 -0.121,-0.34 -0.164,-0.461 -0.044,-0.122 -0.069,-0.187 -0.075,-0.195 -0.007,-0.026 -0.014,-0.052 -0.02,-0.079 -0.019,-0.053 -0.055,-0.1 -0.104,-0.141 -0.05,-0.041 -0.102,-0.064 -0.154,-0.068 -0.385,-0.033 -0.769,-0.065 -1.154,-0.098 -0.053,-0.005 -0.104,0.009 -0.154,0.041 -0.05,0.033 -0.084,0.074 -0.104,0.124 -0.01,0.025 -0.02,0.05 -0.03,0.075 -0.007,0.007 -0.032,0.067 -0.075,0.182 -0.042,0.114 -0.097,0.258 -0.163,0.433 -0.067,0.175 -0.141,0.373 -0.224,0.595 -0.083,0.221 -0.167,0.446 -0.254,0.675 -0.205,0.535 -0.434,1.14 -0.685,1.819 l 0,-3.884 c 0,-0.14 -0.063,-0.215 -0.189,-0.226 -0.441,-0.041 -0.881,-0.081 -1.322,-0.123 -0.126,-0.012 -0.188,0.052 -0.188,0.192 l 0,7.325 c 0,0.081 0.029,0.142 0.089,0.185 0.02,0.024 0.05,0.038 0.089,0.041 0.003,10e-4 0.006,10e-4 0.01,10e-4 0.457,0.043 0.914,0.086 1.372,0.127 0.036,0.003 0.073,0.007 0.109,0.01 0.053,0.005 0.105,-0.009 0.154,-0.041 0.05,-0.033 0.084,-0.074 0.104,-0.124 0.68,-1.668 1.358,-3.339 2.038,-5.01 0.679,1.787 1.359,3.572 2.038,5.357 0.02,0.053 0.055,0.1 0.105,0.141 0.049,0.04 0.1,0.063 0.154,0.067 0.037,0.003 0.073,0.006 0.109,0.008 0.461,0.037 0.922,0.073 1.382,0.108 0.004,0 0.007,0 0.011,10e-4 0.01,0 0.019,10e-4 0.029,0.002 0.04,-0.012 0.075,-0.035 0.105,-0.07"
                     id="path7741"
                     style="fill:#ffffff;fill-opacity:1;fill-rule:nonzero;stroke:none" />
                  <path
                     d="m 38.134,761.18 c 0,-0.14 -0.063,-0.214 -0.189,-0.221 -0.458,-0.029 -0.916,-0.058 -1.374,-0.089 -0.126,-0.008 -0.189,0.058 -0.189,0.198 l 0,7.324 c 0,0.14 0.063,0.215 0.189,0.223 0.458,0.03 0.916,0.059 1.374,0.088 0.126,0.007 0.189,-0.059 0.189,-0.199 l 0,-7.324 z"
                     id="path7743"
                     style="fill:#ffffff;fill-opacity:1;fill-rule:nonzero;stroke:none" />
                  <path
                     d="m 47.751,769.138 c 0.036,-0.039 0.055,-0.088 0.055,-0.147 l 0,-7.324 c -10e-4,-0.059 -0.019,-0.11 -0.055,-0.152 -0.037,-0.042 -0.082,-0.063 -0.134,-0.066 -0.439,-0.017 -0.877,-0.034 -1.315,-0.053 -0.041,-0.002 -0.08,-0.003 -0.12,-0.005 -0.054,-0.003 -0.106,0.012 -0.16,0.043 -0.053,0.03 -0.093,0.071 -0.119,0.121 -0.734,1.473 -1.468,2.945 -2.202,4.414 l 0,-4.482 c 0,-0.14 -0.062,-0.212 -0.189,-0.219 -0.458,-0.022 -0.916,-0.045 -1.374,-0.069 -0.126,-0.007 -0.189,0.06 -0.189,0.2 l 0,7.324 c 0,0.14 0.063,0.213 0.189,0.22 0.471,0.025 0.943,0.048 1.414,0.072 0.053,0.002 0.106,-0.011 0.16,-0.042 0.053,-0.03 0.092,-0.071 0.119,-0.122 0.737,-1.473 1.474,-2.947 2.211,-4.424 l 0,4.492 c 0,0.059 0.018,0.109 0.055,0.152 0.037,0.042 0.082,0.064 0.135,0.066 0.461,0.019 0.923,0.039 1.385,0.057 0.052,0.002 0.097,-0.017 0.134,-0.056"
                     id="path7745"
                     style="fill:#ffffff;fill-opacity:1;fill-rule:nonzero;stroke:none" />
                  <path
                     d="m 57.449,769.402 c 0.036,-0.04 0.055,-0.089 0.055,-0.148 l 0,-7.324 c 0,-0.059 -0.019,-0.109 -0.055,-0.15 -0.037,-0.042 -0.082,-0.062 -0.134,-0.063 -0.439,-0.007 -0.878,-0.015 -1.316,-0.023 -0.04,-10e-4 -0.08,-0.002 -0.12,-0.003 -0.053,0 -0.106,0.015 -0.159,0.047 -0.054,0.032 -0.093,0.074 -0.12,0.124 -0.734,1.491 -1.469,2.979 -2.202,4.465 l 0,-4.481 c -0.001,-0.14 -0.063,-0.212 -0.19,-0.215 -0.459,-0.012 -0.917,-0.024 -1.375,-0.038 -0.127,-0.003 -0.189,0.065 -0.189,0.205 l 0,7.324 c 0,0.139 0.062,0.212 0.189,0.215 0.472,0.014 0.943,0.027 1.415,0.039 0.053,0.002 0.106,-0.013 0.159,-0.045 0.053,-0.032 0.094,-0.074 0.12,-0.125 0.737,-1.49 1.475,-2.981 2.213,-4.475 l 0,4.492 c 0,0.058 0.018,0.109 0.054,0.15 0.037,0.042 0.082,0.062 0.136,0.063 0.461,0.009 0.923,0.017 1.385,0.025 0.053,10e-4 0.097,-0.019 0.134,-0.059"
                     id="path7747"
                     style="fill:#ffffff;fill-opacity:1;fill-rule:nonzero;stroke:none" />
                  <path
                     d="m 66.621,769.446 c 0.037,-0.042 0.055,-0.092 0.055,-0.15 l 0,-0.631 0,-0.332 0,-0.432 c 0,-0.058 -0.018,-0.106 -0.055,-0.143 -0.036,-0.036 -0.081,-0.055 -0.134,-0.055 -0.237,0.002 -0.472,0.003 -0.708,0.004 -0.691,0.003 -1.382,0.005 -2.073,0.004 -0.186,0 -0.372,-10e-4 -0.558,-10e-4 -0.034,0 -0.051,-0.018 -0.051,-0.055 l 0,-1.206 c 0,-0.03 0.017,-0.045 0.051,-0.044 0.95,0.002 1.9,0 2.851,-0.004 0.053,0 0.096,-0.021 0.129,-0.062 0.033,-0.041 0.05,-0.09 0.05,-0.149 l 0,-1.107 c 0,-0.059 -0.017,-0.109 -0.05,-0.149 -0.033,-0.041 -0.076,-0.06 -0.129,-0.06 -0.951,0.005 -1.901,0.006 -2.851,0.004 -0.034,0 -0.051,-0.018 -0.051,-0.056 l 0,-0.542 0,-0.011 0,-0.642 c 0,-0.037 0.017,-0.055 0.051,-0.055 0.139,10e-4 0.278,10e-4 0.418,10e-4 0.751,10e-4 1.502,0 2.253,-0.004 0.222,0 0.445,-0.002 0.668,-0.003 0.053,0 0.098,-0.021 0.134,-0.062 0.037,-0.041 0.055,-0.09 0.055,-0.15 l 0,-0.442 0,-0.575 0,-0.365 c 0,-0.059 -0.018,-0.109 -0.055,-0.15 -0.036,-0.04 -0.081,-0.059 -0.134,-0.059 -0.19,10e-4 -0.379,0.002 -0.569,0.003 -1.262,0.005 -2.524,0.005 -3.787,0 -0.199,-10e-4 -0.399,-0.002 -0.598,-0.003 -0.127,-0.001 -0.19,0.069 -0.19,0.209 l 0,0.376 0,6.417 0,0.531 c 0,0.058 0.018,0.109 0.055,0.15 0.036,0.04 0.081,0.061 0.135,0.061 0.242,0.001 0.485,0.003 0.727,0.004 1.303,0.005 2.605,0.004 3.908,-0.002 0.106,-10e-4 0.212,-0.002 0.319,-0.002 0.053,0 0.098,-0.021 0.134,-0.061"
                     id="path7749"
                     style="fill:#ffffff;fill-opacity:1;fill-rule:nonzero;stroke:none" />
                  <path
                     d="m 75.105,766.181 c 0.144,-0.071 0.266,-0.166 0.369,-0.287 0.103,-0.121 0.185,-0.259 0.25,-0.416 0.063,-0.156 0.093,-0.324 0.093,-0.501 l 0,-2.079 c 0,-0.177 -0.03,-0.344 -0.093,-0.501 -0.064,-0.157 -0.147,-0.293 -0.25,-0.408 -0.103,-0.115 -0.226,-0.205 -0.369,-0.267 -0.143,-0.062 -0.294,-0.092 -0.454,-0.087 -1.325,0.033 -2.65,0.061 -3.976,0.082 -0.126,0.002 -0.189,0.073 -0.189,0.213 l 0,1.338 c 0,0.06 0.018,0.109 0.055,0.149 0.036,0.04 0.081,0.06 0.134,0.059 1.13,-0.018 2.259,-0.041 3.389,-0.068 0.053,-10e-4 0.097,0.016 0.134,0.052 0.036,0.036 0.055,0.084 0.055,0.143 0,0.306 0,0.612 0,0.918 0,0.059 -0.019,0.109 -0.055,0.151 -0.037,0.041 -0.081,0.062 -0.134,0.063 -0.804,0.02 -1.609,0.037 -2.412,0.051 -0.16,0.003 -0.311,0.04 -0.454,0.109 -0.142,0.068 -0.267,0.162 -0.374,0.283 -0.106,0.119 -0.188,0.257 -0.249,0.412 -0.059,0.156 -0.089,0.323 -0.089,0.5 l 0,2.08 c 0,0.177 0.03,0.344 0.089,0.502 0.06,0.158 0.143,0.292 0.249,0.405 0.106,0.113 0.232,0.203 0.374,0.27 0.143,0.068 0.294,0.101 0.454,0.098 1.252,-0.023 2.505,-0.052 3.757,-0.086 0.126,-0.003 0.189,-0.075 0.189,-0.215 l 0,-1.362 c 0,-0.058 -0.018,-0.106 -0.054,-0.142 -0.036,-0.036 -0.082,-0.053 -0.135,-0.051 -1.059,0.028 -2.119,0.054 -3.179,0.074 -0.053,10e-4 -0.096,-0.018 -0.129,-0.058 -0.033,-0.04 -0.051,-0.089 -0.051,-0.148 l 0,-0.897 c 0.001,-0.058 0.018,-0.109 0.051,-0.15 0.033,-0.041 0.076,-0.062 0.129,-0.063 0.807,-0.016 1.614,-0.034 2.421,-0.054 0.16,-0.004 0.311,-0.043 0.454,-0.112"
                     id="path7751"
                     style="fill:#ffffff;fill-opacity:1;fill-rule:nonzero;stroke:none" />
                  <path
                     d="m 83.66,767.172 c -0.78,0.036 -1.56,0.071 -2.341,0.103 l 0,-3.983 c 0.781,-0.032 1.561,-0.066 2.341,-0.103 l 0,3.983 z m 0.598,1.852 c 0.159,-0.008 0.31,-0.05 0.453,-0.128 0.142,-0.076 0.265,-0.175 0.368,-0.295 0.103,-0.119 0.187,-0.259 0.25,-0.421 0.063,-0.162 0.095,-0.332 0.095,-0.509 l 0,-5.155 c 0,-0.177 -0.033,-0.343 -0.095,-0.499 -0.063,-0.155 -0.147,-0.289 -0.25,-0.402 -0.102,-0.113 -0.226,-0.199 -0.368,-0.258 -0.143,-0.059 -0.294,-0.085 -0.453,-0.077 -1.175,0.057 -2.35,0.108 -3.526,0.156 -0.159,0.006 -0.31,0.045 -0.454,0.117 -0.143,0.071 -0.267,0.169 -0.373,0.291 -0.106,0.122 -0.19,0.263 -0.249,0.424 -0.06,0.161 -0.089,0.33 -0.09,0.507 l 0,5.155 c 0,0.178 0.03,0.344 0.09,0.501 0.059,0.156 0.143,0.289 0.249,0.399 0.106,0.111 0.231,0.198 0.373,0.263 0.144,0.064 0.295,0.093 0.454,0.087 1.176,-0.048 2.351,-0.099 3.526,-0.156"
                     id="path7753"
                     style="fill:#ffffff;fill-opacity:1;fill-rule:nonzero;stroke:none" />
                  <path
                     d="m 94.164,766.756 c 0,-0.06 -0.018,-0.108 -0.053,-0.146 -0.038,-0.037 -0.082,-0.055 -0.135,-0.051 -0.471,0.034 -0.943,0.067 -1.413,0.099 -0.052,0.004 -0.099,-0.011 -0.135,-0.046 -0.036,-0.034 -0.055,-0.081 -0.055,-0.14 l 0,-5.454 c 0,-0.059 -0.016,-0.108 -0.049,-0.147 -0.035,-0.038 -0.077,-0.055 -0.129,-0.051 -0.462,0.031 -0.923,0.061 -1.384,0.091 -0.054,0.003 -0.098,0.026 -0.134,0.069 -0.037,0.042 -0.056,0.094 -0.056,0.153 l 0,5.454 c 0.001,0.059 -0.017,0.108 -0.049,0.147 -0.034,0.039 -0.077,0.06 -0.129,0.063 -0.472,0.03 -0.942,0.059 -1.414,0.088 -0.053,0.003 -0.097,0.026 -0.134,0.069 -0.037,0.042 -0.055,0.093 -0.055,0.152 l 0,1.461 c 0,0.139 0.063,0.206 0.189,0.198 0.472,-0.028 0.942,-0.057 1.414,-0.086 0.122,-0.009 0.245,-0.016 0.368,-0.024 0.461,-0.03 0.922,-0.06 1.384,-0.091 0.122,-0.008 0.245,-0.017 0.368,-0.025 0.47,-0.033 0.942,-0.065 1.413,-0.099 0.053,-0.004 0.097,-0.028 0.135,-0.071 0.035,-0.043 0.053,-0.094 0.053,-0.153 l 0,-1.46 z"
                     id="path7755"
                     style="fill:#ffffff;fill-opacity:1;fill-rule:nonzero;stroke:none" />
                  <path
                     d="m 101.634,764.135 0,1.947 c -0.778,0.071 -1.557,0.139 -2.336,0.204 l 0,-1.947 c 0.779,-0.066 1.558,-0.134 2.336,-0.204 m 0.596,3.63 c 0.159,-0.015 0.309,-0.064 0.452,-0.147 0.143,-0.083 0.266,-0.187 0.368,-0.311 0.102,-0.124 0.186,-0.268 0.248,-0.432 0.063,-0.165 0.096,-0.336 0.096,-0.513 l 0,-6.24 c 0,-0.059 -0.019,-0.107 -0.055,-0.144 -0.037,-0.037 -0.082,-0.053 -0.135,-0.048 -0.46,0.044 -0.921,0.086 -1.382,0.128 -0.052,0.005 -0.097,0.029 -0.133,0.072 -0.036,0.044 -0.055,0.096 -0.055,0.155 l 0,1.981 c 0,0.058 -0.017,0.11 -0.049,0.153 -0.034,0.044 -0.076,0.068 -0.129,0.073 -0.657,0.058 -1.313,0.116 -1.968,0.171 -0.053,0.005 -0.098,-0.011 -0.135,-0.049 -0.037,-0.037 -0.055,-0.085 -0.055,-0.144 l 0,-1.981 c 0,-0.14 -0.064,-0.205 -0.188,-0.194 -0.457,0.039 -0.915,0.076 -1.372,0.113 -0.127,0.011 -0.19,0.086 -0.19,0.226 l 0,6.24 c 0,0.176 0.031,0.342 0.09,0.496 0.06,0.154 0.142,0.283 0.249,0.388 0.106,0.107 0.231,0.188 0.372,0.247 0.143,0.058 0.294,0.081 0.453,0.067 1.172,-0.097 2.346,-0.2 3.518,-0.307"
                     id="path7757"
                     style="fill:#ffffff;fill-opacity:1;fill-rule:nonzero;stroke:none" />
                  <path
                     d="m 99.579,662.671 -2.134,0.671 c -10.836,3.412 -22.089,5.142 -33.445,5.142 -11.355,0 -22.608,-1.73 -33.445,-5.142 l -2.134,-0.671 0,2.237 0,15.885 0,1.203 1.147,0.362 c 11.155,3.523 22.739,5.31 34.432,5.31 11.692,0 23.277,-1.787 34.433,-5.31 l 1.146,-0.362 0,-1.203 0,-15.885 0,-2.237 z"
                     id="path7759"
                     style="fill:#76afe3;fill-opacity:1;fill-rule:nonzero;stroke:none" />
                  <path
                     d="m 97.938,664.908 c -10.998,3.463 -22.415,5.217 -33.938,5.217 -11.523,0 -22.94,-1.754 -33.938,-5.217 l 0,15.885 c 10.995,3.473 22.414,5.234 33.938,5.234 11.524,0 22.942,-1.761 33.938,-5.234 l 0,-15.885 z"
                     id="path7761"
                     style="fill:#0c2950;fill-opacity:1;fill-rule:nonzero;stroke:none" />
                  <path
                     d="m 41.362,676.795 c 0.218,-0.057 0.407,-0.162 0.564,-0.312 0.158,-0.15 0.285,-0.335 0.382,-0.555 0.097,-0.22 0.145,-0.467 0.145,-0.74 l 0,-3.209 c 0,-0.274 -0.048,-0.542 -0.145,-0.805 -0.097,-0.265 -0.224,-0.502 -0.382,-0.716 -0.157,-0.215 -0.346,-0.394 -0.564,-0.542 -0.219,-0.148 -0.45,-0.248 -0.694,-0.299 -2.028,-0.431 -4.046,-0.919 -6.054,-1.462 -0.191,-0.052 -0.287,0.029 -0.287,0.245 l 0,2.066 c 0,0.092 0.028,0.175 0.083,0.253 0.055,0.078 0.123,0.128 0.204,0.15 1.711,0.463 3.429,0.886 5.155,1.267 0.081,0.018 0.15,0.062 0.205,0.131 0.056,0.069 0.084,0.149 0.084,0.239 l 0,1.418 c 0,0.092 -0.028,0.161 -0.084,0.212 -0.055,0.05 -0.124,0.067 -0.205,0.049 -1.228,-0.272 -2.452,-0.564 -3.673,-0.876 -0.243,-0.063 -0.472,-0.072 -0.689,-0.027 -0.217,0.045 -0.405,0.137 -0.567,0.277 -0.161,0.138 -0.287,0.314 -0.377,0.529 -0.09,0.215 -0.136,0.457 -0.136,0.732 l 0,3.198 c 0,0.274 0.046,0.544 0.136,0.814 0.091,0.27 0.216,0.513 0.377,0.733 0.162,0.22 0.35,0.412 0.567,0.578 0.217,0.165 0.446,0.278 0.689,0.34 1.901,0.488 3.813,0.925 5.731,1.313 0.193,0.039 0.291,-0.05 0.291,-0.267 l 0,-2.099 c 0,-0.089 -0.029,-0.169 -0.085,-0.237 -0.056,-0.068 -0.124,-0.11 -0.206,-0.126 -1.624,-0.327 -3.241,-0.691 -4.853,-1.091 -0.081,-0.02 -0.147,-0.068 -0.197,-0.142 -0.051,-0.076 -0.076,-0.157 -0.076,-0.248 l 0,-1.376 c 0,-0.093 0.025,-0.162 0.076,-0.212 0.05,-0.05 0.116,-0.066 0.197,-0.045 1.228,0.304 2.459,0.588 3.694,0.851 0.244,0.051 0.475,0.048 0.694,-0.009"
                     id="path7763"
                     style="fill:#ffffff;fill-opacity:1;fill-rule:nonzero;stroke:none" />
                  <path
                     d="m 54.592,681.051 c 0,-0.091 -0.029,-0.17 -0.085,-0.237 -0.057,-0.068 -0.126,-0.103 -0.209,-0.111 -0.731,-0.065 -1.462,-0.136 -2.193,-0.215 -0.082,-0.009 -0.153,-0.046 -0.208,-0.109 -0.057,-0.063 -0.085,-0.14 -0.085,-0.23 l 0,-8.41 c 0,-0.091 -0.026,-0.171 -0.078,-0.239 -0.051,-0.069 -0.118,-0.107 -0.2,-0.116 -0.715,-0.081 -1.429,-0.169 -2.143,-0.264 -0.082,-0.01 -0.151,0.011 -0.208,0.066 -0.056,0.055 -0.084,0.129 -0.084,0.219 l 0,8.411 c 0,0.09 -0.026,0.16 -0.077,0.21 -0.051,0.049 -0.118,0.07 -0.2,0.058 -0.729,-0.1 -1.456,-0.207 -2.184,-0.322 -0.081,-0.013 -0.15,0.006 -0.207,0.06 -0.057,0.052 -0.084,0.125 -0.084,0.216 l 0,2.251 c 0,0.217 0.097,0.34 0.291,0.371 0.728,0.115 1.455,0.222 2.184,0.322 0.19,0.026 0.38,0.052 0.569,0.077 0.714,0.094 1.428,0.182 2.143,0.263 0.19,0.022 0.381,0.043 0.571,0.063 0.731,0.079 1.462,0.151 2.193,0.216 0.083,0.007 0.152,-0.018 0.209,-0.076 0.056,-0.056 0.085,-0.132 0.085,-0.223 l 0,-2.251 z"
                     id="path7765"
                     style="fill:#ffffff;fill-opacity:1;fill-rule:nonzero;stroke:none" />
                  <path
                     d="m 64.925,678.368 0,2.996 c -1.215,0.007 -2.429,-0.006 -3.643,-0.038 l 0,-2.997 c 1.214,0.033 2.428,0.046 3.643,0.039 m 0.929,5.666 c 0.249,-0.004 0.484,-0.062 0.706,-0.174 0.222,-0.113 0.413,-0.26 0.574,-0.44 0.159,-0.181 0.288,-0.394 0.387,-0.642 0.097,-0.247 0.148,-0.507 0.148,-0.781 l 0,-9.617 c 0,-0.091 -0.03,-0.168 -0.086,-0.228 -0.057,-0.061 -0.127,-0.09 -0.209,-0.088 -0.718,0.019 -1.436,0.032 -2.154,0.038 -0.084,0 -0.153,0.031 -0.21,0.095 -0.057,0.062 -0.085,0.14 -0.085,0.23 l 0,3.056 c 0,0.092 -0.026,0.168 -0.078,0.23 -0.052,0.063 -0.119,0.095 -0.201,0.096 -1.023,0.003 -2.047,-0.008 -3.069,-0.033 -0.083,-0.002 -0.153,-0.036 -0.21,-0.099 -0.056,-0.065 -0.085,-0.141 -0.085,-0.233 l 0,-3.056 c 0,-0.215 -0.098,-0.326 -0.294,-0.332 -0.713,-0.021 -1.426,-0.048 -2.138,-0.083 -0.197,-0.009 -0.294,0.094 -0.294,0.31 l 0,9.617 c 0,0.274 0.046,0.535 0.138,0.784 0.093,0.25 0.222,0.466 0.388,0.65 0.165,0.184 0.359,0.334 0.582,0.452 0.221,0.117 0.456,0.18 0.704,0.189 1.828,0.063 3.658,0.083 5.486,0.059"
                     id="path7767"
                     style="fill:#ffffff;fill-opacity:1;fill-rule:nonzero;stroke:none" />
                  <path
                     d="m 78.663,680.356 c -1.237,0.158 -2.477,0.294 -3.719,0.411 l 0,-2.895 c 1.242,-0.116 2.482,-0.253 3.719,-0.411 l 0,2.895 z m 3.061,-9.318 c 0.042,-0.085 0.047,-0.152 0.016,-0.199 -0.031,-0.047 -0.087,-0.063 -0.168,-0.051 -0.815,0.125 -1.63,0.241 -2.447,0.349 -0.082,0.01 -0.164,0.046 -0.246,0.109 -0.082,0.062 -0.144,0.135 -0.184,0.22 -0.546,1.15 -1.09,2.297 -1.635,3.439 -0.021,0.048 -0.057,0.075 -0.108,0.081 -0.612,0.069 -1.225,0.132 -1.838,0.19 -0.051,0.005 -0.077,-0.021 -0.077,-0.078 l 0,-3.175 c 0,-0.217 -0.098,-0.315 -0.293,-0.297 -0.711,0.066 -1.423,0.124 -2.135,0.176 -0.195,0.015 -0.294,0.129 -0.294,0.345 l 0,11.291 c 0,0.216 0.099,0.317 0.294,0.303 2.331,-0.17 4.658,-0.413 6.978,-0.727 0.247,-0.034 0.48,-0.12 0.701,-0.259 0.22,-0.14 0.409,-0.31 0.568,-0.51 0.16,-0.2 0.287,-0.428 0.385,-0.688 0.097,-0.26 0.146,-0.525 0.146,-0.799 l 0,-4.478 c 0,-0.434 -0.115,-0.806 -0.346,-1.118 -0.231,-0.313 -0.526,-0.506 -0.885,-0.581 -0.015,-0.003 -0.031,-0.007 -0.046,-0.011 -0.071,-0.013 -0.087,-0.044 -0.045,-0.095 0.004,-0.013 0.009,-0.025 0.015,-0.037 0.548,-1.129 1.096,-2.263 1.644,-3.4"
                     id="path7769"
                     style="fill:#ffffff;fill-opacity:1;fill-rule:nonzero;stroke:none" />
                  <path
                     d="m 93.233,675.399 c 0.216,-0.159 0.404,-0.352 0.56,-0.576 0.155,-0.224 0.28,-0.467 0.376,-0.732 0.096,-0.266 0.144,-0.535 0.144,-0.808 l 0,-3.209 c 0,-0.274 -0.048,-0.519 -0.144,-0.738 -0.096,-0.219 -0.221,-0.397 -0.376,-0.538 -0.156,-0.141 -0.344,-0.232 -0.56,-0.279 -0.217,-0.045 -0.447,-0.036 -0.687,0.026 -2.014,0.516 -4.038,0.976 -6.069,1.38 -0.194,0.038 -0.29,0.164 -0.29,0.381 l 0,2.066 c 0,0.091 0.028,0.161 0.084,0.214 0.056,0.051 0.124,0.069 0.206,0.053 1.731,-0.344 3.456,-0.729 5.174,-1.155 0.082,-0.019 0.15,-0.008 0.206,0.034 0.055,0.044 0.082,0.111 0.082,0.201 l 0,1.417 c 0,0.093 -0.027,0.174 -0.082,0.251 -0.056,0.077 -0.125,0.126 -0.206,0.147 -1.223,0.302 -2.449,0.585 -3.679,0.846 -0.243,0.053 -0.475,0.151 -0.694,0.298 -0.219,0.148 -0.409,0.329 -0.572,0.544 -0.164,0.215 -0.29,0.45 -0.382,0.708 -0.092,0.257 -0.137,0.521 -0.137,0.795 l 0,3.198 c 0,0.275 0.046,0.524 0.137,0.75 0.092,0.227 0.218,0.411 0.382,0.555 0.163,0.144 0.353,0.248 0.572,0.311 0.219,0.063 0.45,0.068 0.694,0.017 1.916,-0.408 3.824,-0.866 5.722,-1.374 0.191,-0.051 0.287,-0.185 0.287,-0.401 l 0,-2.099 c 0,-0.09 -0.029,-0.157 -0.084,-0.199 -0.055,-0.041 -0.123,-0.05 -0.203,-0.029 -1.606,0.429 -3.22,0.823 -4.838,1.182 -0.081,0.017 -0.147,0 -0.198,-0.051 -0.05,-0.052 -0.077,-0.121 -0.077,-0.212 l 0,-1.376 c 0,-0.092 0.027,-0.174 0.077,-0.248 0.051,-0.073 0.116,-0.12 0.198,-0.137 1.233,-0.273 2.463,-0.567 3.69,-0.881 0.24,-0.062 0.47,-0.173 0.687,-0.332"
                     id="path7771"
                     style="fill:#ffffff;fill-opacity:1;fill-rule:nonzero;stroke:none" />
                  <path
                     d="m 35.675,753.104 c 0.004,0 0.008,0 0.011,10e-4 0.996,0.083 1.725,1.242 1.725,1.816 0,0.154 -0.052,0.335 -0.295,0.316 -0.176,-0.014 -0.373,-0.195 -0.541,-0.497 -0.3,-0.545 -0.6,-1.09 -0.9,-1.636 m -2.649,-1.724 c -0.184,-0.017 -0.282,-0.159 -0.282,-0.29 0,-0.111 0.082,-0.234 0.314,-0.213 0.232,0.021 0.433,0.108 0.613,0.266 -0.248,0.176 -0.46,0.254 -0.645,0.237 m 1.426,-0.938 c -0.105,0.081 -0.187,0.184 -0.279,0.271 -0.323,-0.283 -0.695,-0.454 -1.051,-0.487 -0.697,-0.064 -1.014,0.375 -1.014,0.812 0,0.454 0.337,0.944 0.982,1.004 0.442,0.04 0.775,-0.149 1.023,-0.339 0.003,0.007 0.007,0.014 0.011,0.02 0.01,0.02 0.021,0.04 0.033,0.06 0.165,0.301 0.33,0.602 0.495,0.902 -0.507,0.242 -0.819,0.728 -0.819,1.286 0,0.51 0.253,0.996 0.715,1.367 0.022,0.017 0.044,0.035 0.065,0.052 0.014,-0.022 0.026,-0.044 0.04,-0.067 0.072,-0.124 0.145,-0.248 0.217,-0.372 0.01,-0.017 0.02,-0.034 0.03,-0.051 -0.016,-0.014 -0.032,-0.027 -0.048,-0.041 -0.259,-0.226 -0.402,-0.516 -0.402,-0.821 0,-0.35 0.184,-0.648 0.497,-0.81 0.335,0.606 0.669,1.211 1.004,1.816 0.289,0.529 0.736,0.879 1.165,0.913 0.555,0.044 0.957,-0.374 0.957,-0.992 0,-0.29 -0.096,-0.62 -0.279,-0.956 -0.48,-0.876 -1.249,-1.418 -2.108,-1.49 -0.11,-0.009 -0.216,-0.01 -0.34,-0.003 -0.189,-0.345 -0.378,-0.689 -0.566,-1.034 -0.048,-0.09 -0.101,-0.173 -0.15,-0.247 0.028,-0.027 0.055,-0.054 0.081,-0.081 0.079,-0.079 0.162,-0.158 0.249,-0.237 0.707,-0.648 1.456,-0.526 1.938,-0.351 0.323,0.116 0.439,0.21 0.61,0.394 0.017,0.019 0.034,0.037 0.052,0.056 0.016,-0.016 0.033,-0.033 0.049,-0.05 0.109,-0.106 0.219,-0.213 0.328,-0.321 0.013,-0.012 0.027,-0.026 0.04,-0.039 -0.011,-0.017 -0.022,-0.034 -0.034,-0.051 -0.016,-0.024 -0.565,-0.646 -1.402,-0.714 -0.834,-0.068 -1.253,-0.047 -2.089,0.601"
                     id="path7773"
                     style="fill:#0c2950;fill-opacity:1;fill-rule:nonzero;stroke:none" />
                  <path
                     d="m 44.911,752.481 c -0.321,-0.711 -1.968,-2.023 -3.431,-2.121 -1.154,-0.077 -1.958,0.482 -1.958,1.562 -10e-4,1.269 1.031,2.381 2.308,2.487 -0.06,0.148 -0.092,0.304 -0.092,0.458 10e-4,0.741 0.536,1.336 1.247,1.38 0.706,0.043 1.2,-0.369 1.2,-1.001 0,-0.578 -0.42,-0.912 -0.437,-0.926 -0.018,-0.014 -0.036,-0.027 -0.054,-0.041 -0.014,0.015 -0.03,0.03 -0.045,0.044 -0.124,0.124 -0.248,0.247 -0.372,0.371 -0.022,0.022 -0.044,0.043 -0.066,0.065 0.029,0.018 0.059,0.036 0.087,0.054 0.002,10e-4 0.198,0.137 0.198,0.425 0,0.303 -0.231,0.428 -0.445,0.414 -0.282,-0.017 -0.585,-0.262 -0.585,-0.758 0,-0.426 0.328,-0.605 0.394,-0.636 0.022,-0.011 0.045,-0.021 0.067,-0.032 -0.008,-0.025 -0.016,-0.049 -0.025,-0.074 -0.069,-0.124 -0.137,-0.248 -0.206,-0.373 -0.01,-0.018 -0.02,-0.036 -0.03,-0.054 -0.019,0.005 -0.038,0.01 -0.057,0.015 -0.074,0.02 -0.147,0.046 -0.231,0.084 -0.137,0.04 -0.29,0.056 -0.445,0.045 -0.794,-0.051 -1.678,-0.839 -1.678,-1.881 0,-0.734 0.646,-0.992 1.271,-0.951 1.257,0.084 2.389,1.106 2.604,1.558"
                     id="path7775"
                     style="fill:#0c2950;fill-opacity:1;fill-rule:nonzero;stroke:none" />
                  <path
                     d="m 44.429,751.102 c -0.275,-0.016 -0.489,0.078 -0.601,0.264 -0.126,0.209 -0.102,0.501 0.063,0.801 0.443,0.793 0.886,1.585 1.328,2.376 -0.167,-0.009 -0.336,-0.018 -0.504,-0.028 -0.043,-0.002 -0.087,-0.005 -0.131,-0.007 0.023,0.038 0.045,0.078 0.067,0.116 0.067,0.115 0.134,0.23 0.2,0.345 0.008,0.013 0.015,0.025 0.022,0.038 0.014,0 0.028,0.001 0.042,0.002 0.195,0.011 0.389,0.022 0.584,0.032 0.21,0.377 0.42,0.753 0.631,1.129 0.007,0.013 0.014,0.026 0.021,0.039 0.015,0.001 0.029,0.002 0.043,0.002 0.231,0.013 0.462,0.024 0.693,0.036 0.043,0.002 0.086,0.005 0.128,0.007 -0.021,-0.039 -0.042,-0.077 -0.063,-0.115 -0.197,-0.35 -0.393,-0.701 -0.59,-1.051 0.149,0.007 0.297,0.015 0.445,0.022 0.044,0.003 0.087,0.005 0.131,0.007 -0.022,-0.039 -0.045,-0.077 -0.067,-0.116 -0.067,-0.114 -0.133,-0.229 -0.2,-0.344 -0.007,-0.012 -0.015,-0.025 -0.022,-0.037 -0.014,-10e-4 -0.028,-0.002 -0.042,-0.002 -0.174,-0.009 -0.349,-0.018 -0.523,-0.028 -0.488,-0.877 -0.977,-1.755 -1.465,-2.634 -0.076,-0.135 -0.085,-0.214 -0.067,-0.244 0.014,-0.024 0.058,-0.025 0.083,-0.023 0.257,0.015 0.953,0.482 1.476,1.114 0.015,0.019 0.031,0.038 0.047,0.057 0.012,0.014 0.023,0.028 0.035,0.042 0.017,-0.006 0.034,-0.012 0.05,-0.019 0.099,-0.036 0.102,-0.148 0.106,-0.238 0.002,-0.043 0.004,-0.091 0.015,-0.114 0.008,-0.015 0.015,-0.029 0.022,-0.044 -0.011,-0.013 -0.021,-0.026 -0.032,-0.039 -0.755,-0.917 -1.428,-1.318 -1.925,-1.346"
                     id="path7777"
                     style="fill:#0c2950;fill-opacity:1;fill-rule:nonzero;stroke:none" />
                  <path
                     d="m 48.111,754.375 c -0.144,-0.007 -0.4,-0.12 -0.609,-0.486 -0.116,-0.208 -0.234,-0.415 -0.35,-0.623 -0.186,-0.314 -0.371,-0.627 -0.557,-0.941 -0.111,-0.199 -0.117,-0.43 -0.061,-0.523 0.047,-0.078 0.23,-0.094 0.282,-0.091 0.15,0.008 0.347,0.103 0.486,0.329 -0.04,0.077 -0.06,0.162 -0.06,0.246 0,0.284 0.225,0.527 0.504,0.547 0.174,0.304 0.346,0.608 0.52,0.912 0.13,0.229 0.14,0.409 0.071,0.526 -0.033,0.056 -0.141,0.108 -0.213,0.104 -0.004,0 -0.009,0 -0.013,0 m -1.377,-3.179 c -0.342,-0.018 -0.622,0.114 -0.767,0.358 -0.181,0.304 -0.127,0.742 0.149,1.232 0.1,0.176 0.2,0.352 0.3,0.528 0.113,0.204 0.226,0.407 0.339,0.61 0.382,0.681 0.804,0.984 1.411,1.012 0.322,0.016 0.595,-0.125 0.748,-0.384 0.181,-0.303 0.156,-0.717 -0.064,-1.108 -0.194,-0.343 -0.389,-0.687 -0.583,-1.031 0.313,0.055 0.925,0.449 1.187,0.744 0.015,0.018 0.03,0.036 0.045,0.054 0.012,0.014 0.024,0.028 0.035,0.042 0.017,-0.006 0.033,-0.013 0.05,-0.019 0.096,-0.037 0.126,-0.124 0.15,-0.193 0.009,-0.025 0.018,-0.051 0.03,-0.075 0.007,-0.014 0.015,-0.028 0.022,-0.042 -0.011,-0.013 -0.022,-0.026 -0.032,-0.039 -0.368,-0.453 -1.252,-0.965 -1.688,-0.986 -0.04,-0.002 -0.079,-0.004 -0.118,-0.006 -0.328,-0.414 -0.779,-0.675 -1.214,-0.697"
                     id="path7779"
                     style="fill:#0c2950;fill-opacity:1;fill-rule:nonzero;stroke:none" />
                  <path
                     d="m 49.611,751.362 c -0.275,-0.012 -0.488,0.084 -0.6,0.272 -0.126,0.212 -0.103,0.504 0.063,0.801 0.464,0.825 0.928,1.648 1.392,2.471 0.007,0.013 0.015,0.025 0.022,0.038 0.014,0.001 0.028,0.001 0.043,0.002 0.231,0.009 0.462,0.018 0.693,0.027 0.043,0.001 0.085,0.003 0.128,0.004 -0.021,-0.038 -0.042,-0.076 -0.064,-0.113 -0.495,-0.883 -0.991,-1.766 -1.486,-2.651 -0.076,-0.134 -0.086,-0.213 -0.068,-0.242 0.015,-0.025 0.059,-0.027 0.083,-0.026 0.273,0.012 0.967,0.518 1.466,1.114 0.016,0.019 0.031,0.037 0.047,0.056 0.012,0.013 0.024,0.027 0.036,0.041 0.016,-0.006 0.032,-0.013 0.049,-0.019 0.096,-0.037 0.127,-0.124 0.152,-0.194 0.008,-0.024 0.018,-0.05 0.03,-0.074 0.008,-0.015 0.015,-0.029 0.022,-0.044 -0.011,-0.013 -0.021,-0.026 -0.033,-0.039 -0.755,-0.905 -1.478,-1.403 -1.975,-1.424"
                     id="path7781"
                     style="fill:#0c2950;fill-opacity:1;fill-rule:nonzero;stroke:none" />
                  <path
                     d="m 51.542,751.438 c -0.276,-0.01 -0.49,0.088 -0.602,0.277 -0.126,0.212 -0.102,0.503 0.064,0.8 0.746,1.322 1.493,2.64 2.24,3.956 0.007,0.013 0.014,0.026 0.021,0.038 0.014,10e-4 0.028,10e-4 0.043,0.002 0.231,0.007 0.462,0.014 0.694,0.021 0.042,10e-4 0.085,0.003 0.128,0.004 -0.021,-0.038 -0.043,-0.076 -0.064,-0.113 -0.778,-1.376 -1.555,-2.754 -2.333,-4.134 -0.077,-0.134 -0.086,-0.213 -0.068,-0.243 0.014,-0.024 0.058,-0.027 0.084,-0.025 0.264,0.009 0.907,0.466 1.422,1.079 0.015,0.019 0.031,0.037 0.047,0.056 0.012,0.013 0.024,0.027 0.036,0.041 0.017,-0.006 0.033,-0.013 0.05,-0.019 0.103,-0.041 0.146,-0.137 0.186,-0.22 0.008,-0.017 0.016,-0.033 0.023,-0.049 0.008,-0.015 0.015,-0.029 0.022,-0.043 -0.01,-0.013 -0.021,-0.026 -0.032,-0.039 -0.756,-0.901 -1.464,-1.371 -1.961,-1.389"
                     id="path7783"
                     style="fill:#0c2950;fill-opacity:1;fill-rule:nonzero;stroke:none" />
                  <path
                     d="m 54.124,753.349 c 0.063,-0.013 0.128,-0.018 0.19,-0.016 0.317,0.009 0.594,0.204 0.803,0.564 0.039,0.067 0.078,0.134 0.116,0.201 0.123,0.219 0.165,0.407 0.107,0.502 -0.032,0.056 -0.094,0.066 -0.14,0.065 -0.167,-0.004 -0.422,-0.161 -0.617,-0.501 -0.153,-0.271 -0.306,-0.543 -0.459,-0.815 m -0.144,-1.83 c -0.409,-0.012 -0.74,0.142 -0.905,0.425 -0.174,0.296 -0.144,0.69 0.08,1.08 0.242,0.423 0.485,0.846 0.727,1.269 0.318,0.557 0.79,0.859 1.365,0.874 0.305,0.008 0.565,-0.119 0.693,-0.339 0.139,-0.238 0.113,-0.55 -0.076,-0.877 -0.033,-0.058 -0.067,-0.117 -0.1,-0.175 -0.479,-0.839 -1.165,-0.948 -1.438,-0.956 -0.142,-0.004 -0.278,0.015 -0.399,0.051 -0.012,-0.021 -0.024,-0.042 -0.036,-0.064 -0.136,-0.243 -0.17,-0.435 -0.098,-0.556 0.06,-0.103 0.2,-0.156 0.393,-0.15 0.423,0.012 1.04,0.426 1.571,1.055 0.016,0.018 0.032,0.036 0.048,0.055 0.011,0.013 0.023,0.026 0.035,0.04 0.017,-0.006 0.033,-0.013 0.05,-0.019 0.114,-0.047 0.244,-0.164 0.296,-0.268 0.008,-0.015 0.015,-0.029 0.023,-0.044 -0.011,-0.013 -0.021,-0.026 -0.032,-0.038 -0.421,-0.497 -1.264,-1.335 -2.197,-1.363"
                     id="path7785"
                     style="fill:#0c2950;fill-opacity:1;fill-rule:nonzero;stroke:none" />
                  <path
                     d="m 43.523,756.382 c -0.046,0.013 -0.09,0.03 -0.128,0.053 -0.011,0.006 -0.022,0.012 -0.032,0.018 -0.016,0.009 -0.032,0.018 -0.049,0.028 0.011,0.019 0.022,0.038 0.034,0.057 0.044,0.074 0.089,0.148 0.133,0.222 0.01,0.018 0.02,0.035 0.03,0.052 0.015,-0.009 0.029,-0.017 0.043,-0.025 0.01,-0.006 0.019,-0.011 0.029,-0.017 0.005,-0.002 0.014,-0.007 0.032,-0.012 0.158,-0.044 0.59,-0.02 0.763,0.129 l 0.212,0.18 c -0.045,-0.084 -0.091,-0.169 -0.137,-0.253 -0.211,-0.389 -0.636,-0.514 -0.93,-0.432"
                     id="path7787"
                     style="fill:#0c2950;fill-opacity:1;fill-rule:nonzero;stroke:none" />
                  <path
                     d="m 50.582,755.172 c 0.055,0.084 0.111,0.168 0.166,0.252 0.077,0.117 0.154,0.235 0.232,0.352 -0.088,0.065 -0.174,0.131 -0.261,0.196 -0.053,0.04 -0.105,0.08 -0.158,0.119 0.064,0.002 0.127,0.004 0.19,0.006 0.15,0.003 0.298,0.007 0.448,0.011 0.082,0.126 0.165,0.252 0.248,0.378 0.038,0.059 0.076,0.117 0.114,0.175 0.006,-0.072 0.012,-0.145 0.017,-0.217 0.008,-0.108 0.017,-0.217 0.024,-0.325 0.136,0.003 0.272,0.007 0.407,0.01 0.099,0.002 0.198,0.004 0.296,0.006 -0.083,-0.046 -0.166,-0.092 -0.249,-0.138 -0.143,-0.079 -0.285,-0.159 -0.427,-0.238 0.009,-0.119 0.018,-0.238 0.028,-0.357 0.003,-0.049 0.007,-0.097 0.011,-0.145 -0.041,0.03 -0.082,0.061 -0.122,0.092 -0.093,0.069 -0.185,0.139 -0.278,0.208 -0.14,-0.079 -0.28,-0.158 -0.421,-0.236 -0.088,-0.05 -0.177,-0.099 -0.265,-0.149"
                     id="path7789"
                     style="fill:#0c2950;fill-opacity:1;fill-rule:nonzero;stroke:none" />
                  <path
                     d="m 39.893,756.108 c -0.012,0.061 -0.031,0.119 -0.058,0.172 -0.007,0.014 -0.014,0.029 -0.021,0.043 -0.01,0.022 -0.021,0.044 -0.032,0.066 -0.027,-0.011 -0.053,-0.021 -0.079,-0.032 -0.103,-0.041 -0.206,-0.083 -0.309,-0.125 -0.023,-0.01 -0.047,-0.019 -0.07,-0.029 0.009,-0.02 0.019,-0.039 0.028,-0.059 0.007,-0.013 0.013,-0.026 0.019,-0.039 0.004,-0.006 0.009,-0.018 0.014,-0.041 0.043,-0.207 0.036,-0.74 -0.179,-0.93 -0.076,-0.087 -0.152,-0.175 -0.227,-0.262 0.106,0.052 0.211,0.103 0.317,0.155 0.538,0.192 0.678,0.698 0.597,1.081"
                     id="path7791"
                     style="fill:#0c2950;fill-opacity:1;fill-rule:nonzero;stroke:none" />
                  <path
                     d="m 73.337,754.443 c -0.146,0.004 -0.375,-0.092 -0.54,-0.374 -0.322,-0.553 -0.645,-1.107 -0.967,-1.662 -0.071,-0.119 -0.096,-0.216 -0.068,-0.264 0.02,-0.034 0.069,-0.043 0.106,-0.044 0.238,-0.006 0.652,0.244 1.099,0.963 0.176,0.297 0.351,0.594 0.527,0.891 0.08,0.16 0.095,0.296 0.042,0.385 -0.037,0.065 -0.107,0.102 -0.199,0.105 0,0 0,0 0,0 m -0.115,-2.901 c -0.313,0.008 -0.541,0.152 -0.622,0.395 -0.004,0.011 -0.008,0.023 -0.012,0.034 -0.009,-0.006 -0.018,-0.013 -0.028,-0.02 -0.331,-0.244 -0.65,-0.376 -0.898,-0.37 -0.266,0.006 -0.471,0.112 -0.579,0.299 -0.122,0.211 -0.098,0.492 0.063,0.771 0.325,0.552 0.65,1.105 0.975,1.657 0.313,0.533 0.854,0.801 1.228,0.791 0.328,-0.009 0.533,-0.217 0.605,-0.306 0.009,-0.01 0.017,-0.019 0.025,-0.029 0.006,0.01 0.012,0.021 0.018,0.032 0.321,0.544 0.642,1.087 0.963,1.63 0.008,0.013 0.014,0.025 0.022,0.037 0.007,-0.005 0.013,-0.01 0.02,-0.014 0.231,-0.007 0.463,-0.016 0.694,-0.023 0.028,-0.002 0.055,-0.003 0.083,-0.003 l -0.041,-0.071 c -0.783,-1.326 -1.565,-2.654 -2.347,-3.985 -0.071,-0.118 -0.096,-0.214 -0.069,-0.262 0.021,-0.036 0.069,-0.045 0.107,-0.046 0.248,-0.007 0.774,0.322 1.36,0.983 0.016,0.017 0.031,0.034 0.047,0.052 l 0.022,0.025 c 0.011,-0.005 0.022,-0.01 0.032,-0.015 0.109,-0.049 0.131,-0.165 0.182,-0.268 0.005,-0.01 0.01,-0.02 0.015,-0.03 -0.007,-0.007 -0.014,-0.015 -0.021,-0.022 -0.75,-0.85 -1.354,-1.256 -1.844,-1.242"
                     id="path7793"
                     style="fill:#0c2950;fill-opacity:1;fill-rule:nonzero;stroke:none" />
                  <path
                     d="m 76.598,751.433 c -0.227,0.009 -0.409,0.088 -0.526,0.232 -0.073,0.09 -0.117,0.203 -0.126,0.328 -0.001,0.017 -0.002,0.035 -0.003,0.053 -0.014,-0.011 -0.027,-0.023 -0.04,-0.034 -0.414,-0.358 -0.753,-0.528 -1.039,-0.519 -0.2,0.006 -0.356,0.091 -0.44,0.237 -0.122,0.215 -0.075,0.54 0.132,0.892 0.453,0.77 0.907,1.538 1.36,2.306 0.005,0.008 0.01,0.016 0.014,0.024 0.01,0 0.019,0 0.029,-10e-4 0.23,-0.008 0.461,-0.016 0.692,-0.025 0.028,-0.001 0.056,-0.002 0.084,-0.003 -0.014,-0.024 -0.028,-0.047 -0.042,-0.071 -0.451,-0.769 -0.903,-1.54 -1.353,-2.311 -0.007,-0.011 -0.014,-0.023 -0.021,-0.034 -0.075,-0.122 -0.153,-0.259 -0.129,-0.332 0.003,-0.016 0.017,-0.03 0.04,-0.041 10e-4,0 10e-4,0 0.002,0 0.173,-0.006 0.543,0.232 1.004,0.634 0.411,0.702 0.822,1.402 1.233,2.102 0.005,0.008 0.01,0.016 0.014,0.024 0.01,0 0.019,-10e-4 0.028,-10e-4 0.231,-0.009 0.462,-0.019 0.693,-0.029 0.028,-10e-4 0.056,-0.002 0.084,-0.003 -0.014,-0.024 -0.028,-0.047 -0.042,-0.07 -0.493,-0.844 -0.986,-1.688 -1.479,-2.533 -0.071,-0.119 -0.096,-0.215 -0.069,-0.263 0.015,-0.028 0.053,-0.044 0.107,-0.046 0.245,-0.009 0.68,0.327 1.256,0.972 0.016,0.018 0.032,0.035 0.047,0.052 0.008,0.009 0.016,0.017 0.023,0.025 0.011,-0.005 0.021,-0.009 0.031,-0.015 0.11,-0.051 0.235,-0.171 0.285,-0.274 0.005,-0.01 0.01,-0.02 0.015,-0.03 -0.007,-0.007 -0.014,-0.015 -0.021,-0.023 -0.75,-0.841 -1.353,-1.241 -1.843,-1.223"
                     id="path7795"
                     style="fill:#0c2950;fill-opacity:1;fill-rule:nonzero;stroke:none" />
                  <path
                     d="m 80.822,751.185 c -0.421,0.021 -0.88,0.253 -1.013,0.611 -0.168,0.456 0.107,1.209 1.022,1.963 0.09,0.057 0.187,0.065 0.253,0.062 0.027,-10e-4 0.171,-0.013 0.205,-0.095 0.014,-0.034 0.005,-0.069 -0.025,-0.098 -0.542,-0.46 -0.657,-1.019 -0.534,-1.341 0.074,-0.199 0.228,-0.315 0.432,-0.325 0.483,-0.025 1.113,0.536 1.685,1.498 0.501,0.845 1.003,1.689 1.505,2.532 0.005,0.007 0.009,0.015 0.014,0.023 0.009,-10e-4 0.018,-10e-4 0.027,-0.002 0.231,-0.014 0.462,-0.028 0.693,-0.042 0.019,-0.002 0.037,-0.003 0.056,-0.004 -0.002,-0.018 -0.005,-0.036 -0.008,-0.054 -0.149,-0.968 -0.298,-1.935 -0.447,-2.903 -0.007,-0.045 -0.014,-0.089 -0.021,-0.134 0.023,0.038 0.046,0.076 0.07,0.114 0.455,0.761 0.911,1.521 1.367,2.28 0.467,0.772 0.978,0.857 1.24,0.839 0.45,-0.031 0.775,-0.369 0.853,-0.669 0.004,-0.012 0.007,-0.025 0.01,-0.037 -0.011,-0.005 -0.022,-0.01 -0.033,-0.015 -0.153,-0.074 -0.307,-0.148 -0.46,-0.221 -0.015,-0.008 -0.031,-0.016 -0.046,-0.023 -0.007,0.017 -0.014,0.034 -0.021,0.051 -0.075,0.174 -0.184,0.271 -0.317,0.28 -0.198,0.014 -0.436,-0.176 -0.636,-0.507 -0.763,-1.272 -1.527,-2.547 -2.29,-3.825 -0.008,-0.011 -0.014,-0.023 -0.021,-0.034 -0.007,0.004 -0.014,0.009 -0.021,0.013 -0.233,0.014 -0.467,0.028 -0.7,0.042 -0.019,10e-4 -0.038,0.002 -0.056,0.003 0.003,0.018 0.005,0.036 0.008,0.055 0.147,0.96 0.294,1.919 0.441,2.879 0.006,0.045 0.014,0.09 0.02,0.135 -0.022,-0.039 -0.046,-0.077 -0.069,-0.116 -0.147,-0.249 -0.294,-0.499 -0.442,-0.748 -0.82,-1.414 -1.844,-2.231 -2.741,-2.187"
                     id="path7797"
                     style="fill:#0c2950;fill-opacity:1;fill-rule:nonzero;stroke:none" />
                  <path
                     d="m 87.831,753.874 c -0.142,0.01 -0.365,-0.096 -0.566,-0.424 -0.111,-0.181 -0.222,-0.362 -0.333,-0.543 -0.175,-0.293 -0.35,-0.585 -0.526,-0.878 -0.108,-0.182 -0.137,-0.345 -0.082,-0.445 0.051,-0.09 0.149,-0.109 0.203,-0.112 0.135,-0.01 0.343,0.057 0.487,0.274 -0.035,0.099 -0.052,0.173 -0.052,0.25 0,0.249 0.2,0.443 0.445,0.431 0.169,0.27 0.338,0.539 0.506,0.807 0.127,0.208 0.162,0.406 0.091,0.532 -0.035,0.064 -0.098,0.103 -0.173,0.108 m -1.392,-2.981 c -0.333,0.022 -0.605,0.18 -0.745,0.433 -0.176,0.317 -0.124,0.74 0.149,1.189 0.1,0.165 0.2,0.329 0.3,0.494 0.112,0.19 0.226,0.38 0.339,0.57 0.376,0.627 0.791,0.877 1.387,0.835 0.312,-0.022 0.577,-0.188 0.725,-0.457 0.175,-0.317 0.15,-0.718 -0.065,-1.076 -0.192,-0.318 -0.385,-0.637 -0.578,-0.956 -0.01,-0.016 -0.02,-0.033 -0.029,-0.049 0.019,0.003 0.038,0.006 0.058,0.009 0.237,0.038 0.534,0.157 0.842,0.469 0.016,0.016 0.031,0.032 0.046,0.048 l 0.023,0.025 c 0.011,-0.005 0.021,-0.011 0.032,-0.016 0.108,-0.053 0.235,-0.181 0.285,-0.284 0.004,-0.01 0.009,-0.02 0.014,-0.03 -0.007,-0.008 -0.014,-0.016 -0.02,-0.023 -0.375,-0.417 -1.015,-0.664 -1.433,-0.634 -0.039,0.002 -0.079,0.005 -0.117,0.008 -0.343,-0.379 -0.79,-0.583 -1.213,-0.555"
                     id="path7799"
                     style="fill:#0c2950;fill-opacity:1;fill-rule:nonzero;stroke:none" />
                  <path
                     d="m 90.14,750.658 c -0.267,0.02 -0.471,0.137 -0.578,0.33 -0.121,0.219 -0.097,0.498 0.064,0.768 0.244,0.406 0.488,0.811 0.732,1.216 0.078,0.132 0.023,0.259 -0.038,0.343 -0.01,0.013 -0.021,0.027 -0.031,0.041 -0.007,0.009 -0.014,0.018 -0.021,0.027 -0.007,-0.008 -0.013,-0.017 -0.02,-0.026 -0.49,-0.63 -0.758,-0.968 -1.09,-1.329 -0.009,-0.01 -0.018,-0.02 -0.027,-0.03 -0.012,0.008 -0.024,0.017 -0.036,0.027 -0.069,0.051 -0.195,0.155 -0.272,0.272 -0.007,0.011 -0.014,0.022 -0.022,0.032 0.008,0.009 0.016,0.018 0.024,0.027 0.445,0.491 0.862,1.05 1.137,1.419 0.003,0.005 0.007,0.01 0.01,0.015 -0.003,0.005 -0.007,0.011 -0.01,0.016 l -0.027,0.039 c -0.274,0.376 -0.204,0.794 0.186,1.117 0.012,0.01 0.024,0.019 0.036,0.029 0.01,-0.013 0.021,-0.025 0.032,-0.038 0.119,-0.14 0.239,-0.281 0.359,-0.421 0.011,-0.013 0.022,-0.025 0.032,-0.038 -0.011,-0.01 -0.023,-0.02 -0.035,-0.031 -0.114,-0.1 -0.125,-0.209 -0.035,-0.331 0.129,-0.165 0.257,-0.331 0.385,-0.496 0.246,-0.316 0.349,-0.593 0.106,-1.002 -0.231,-0.386 -0.462,-0.772 -0.693,-1.159 -0.07,-0.115 -0.095,-0.209 -0.068,-0.259 0.016,-0.03 0.052,-0.047 0.107,-0.051 0.244,-0.019 0.678,0.301 1.254,0.923 0.015,0.016 0.031,0.033 0.046,0.05 0.008,0.008 0.016,0.016 0.023,0.024 0.011,-0.005 0.021,-0.011 0.032,-0.017 0.109,-0.055 0.234,-0.181 0.284,-0.286 0.005,-0.01 0.009,-0.021 0.015,-0.031 -0.007,-0.007 -0.014,-0.015 -0.022,-0.022 -0.748,-0.81 -1.35,-1.186 -1.839,-1.148"
                     id="path7801"
                     style="fill:#0c2950;fill-opacity:1;fill-rule:nonzero;stroke:none" />
                  <path
                     d="m 93.455,753.288 c -0.145,0.013 -0.374,-0.069 -0.537,-0.34 -0.322,-0.535 -0.645,-1.069 -0.966,-1.604 -0.071,-0.115 -0.095,-0.21 -0.069,-0.26 0.021,-0.037 0.07,-0.048 0.107,-0.051 0.238,-0.02 0.65,0.206 1.096,0.896 0.175,0.287 0.35,0.574 0.525,0.861 0.081,0.154 0.096,0.29 0.043,0.383 -0.037,0.066 -0.108,0.107 -0.199,0.115 m -0.114,-2.894 c -0.309,0.027 -0.541,0.189 -0.621,0.433 -0.003,0.012 -0.007,0.023 -0.011,0.035 -0.01,-0.006 -0.019,-0.013 -0.029,-0.02 -0.33,-0.224 -0.648,-0.337 -0.896,-0.316 -0.266,0.022 -0.47,0.14 -0.578,0.333 -0.12,0.219 -0.098,0.499 0.063,0.768 0.324,0.534 0.648,1.067 0.972,1.6 0.314,0.515 0.855,0.751 1.225,0.718 0.23,-0.019 0.451,-0.145 0.605,-0.343 0.008,-0.01 0.016,-0.02 0.024,-0.03 0.006,0.01 0.012,0.02 0.019,0.03 0.32,0.526 0.64,1.05 0.961,1.574 0.004,0.008 0.009,0.015 0.013,0.023 0.009,-10e-4 0.019,-10e-4 0.028,-0.003 0.23,-0.021 0.46,-0.042 0.691,-0.064 0.028,-0.003 0.056,-0.005 0.085,-0.008 -0.014,-0.023 -0.029,-0.046 -0.043,-0.069 -0.78,-1.279 -1.56,-2.56 -2.34,-3.844 -0.071,-0.115 -0.096,-0.21 -0.068,-0.259 0.019,-0.037 0.068,-0.048 0.106,-0.052 0.243,-0.021 0.677,0.294 1.253,0.91 0.016,0.017 0.031,0.034 0.046,0.05 0.008,0.008 0.015,0.016 0.023,0.025 0.011,-0.006 0.021,-0.012 0.032,-0.017 0.109,-0.057 0.234,-0.184 0.284,-0.29 0.005,-0.01 0.01,-0.02 0.014,-0.03 -0.007,-0.007 -0.014,-0.015 -0.021,-0.022 -0.748,-0.804 -1.349,-1.175 -1.837,-1.132"
                     id="path7803"
                     style="fill:#0c2950;fill-opacity:1;fill-rule:nonzero;stroke:none" />
                  <path
                     d="m 65.957,663.216 c -0.024,-0.021 -0.036,-0.049 -0.036,-0.083 l 0,-2.077 c 0,-0.035 0.012,-0.062 0.036,-0.084 0.023,-0.021 0.052,-0.032 0.086,-0.032 l 2.058,0 c 0.034,0 0.063,-0.012 0.087,-0.035 0.023,-0.024 0.035,-0.052 0.035,-0.087 l 0,-0.846 c 0,-0.034 -0.012,-0.063 -0.035,-0.086 -0.024,-0.024 -0.053,-0.035 -0.087,-0.035 l -1.34,0 -1.103,0 -0.115,0 c -0.103,0 -0.2,0.018 -0.292,0.057 -0.092,0.039 -0.171,0.092 -0.24,0.16 -0.068,0.069 -0.122,0.149 -0.16,0.241 -0.039,0.092 -0.058,0.189 -0.058,0.291 l 0,0.116 0,0.468 0,1.494 0,0.416 0,0.494 c 0,0.103 0.019,0.2 0.058,0.291 0.038,0.092 0.092,0.171 0.16,0.238 0.069,0.066 0.148,0.12 0.24,0.16 0.092,0.041 0.189,0.061 0.292,0.061 l 0.115,0 2.443,0 c 0.034,0 0.063,-0.012 0.087,-0.035 0.023,-0.024 0.035,-0.052 0.035,-0.086 l 0,-0.847 c 0,-0.034 -0.012,-0.063 -0.035,-0.086 -0.024,-0.024 -0.053,-0.036 -0.087,-0.036 l -2.058,0 c -0.034,0 -0.063,-0.011 -0.086,-0.032"
                     id="path7805"
                     style="fill:#0c2950;fill-opacity:1;fill-rule:nonzero;stroke:none" />
                  <path
                     d="m 63.171,664.303 c 0.023,-0.024 0.035,-0.052 0.035,-0.086 l 0,-0.847 c 0,-0.034 -0.012,-0.063 -0.035,-0.086 -0.023,-0.024 -0.052,-0.036 -0.087,-0.036 l -2.147,0 c -0.021,0 -0.032,-0.008 -0.032,-0.025 l 0,-0.763 c 0,-0.022 0.011,-0.033 0.032,-0.033 l 1.629,0 c 0.033,0 0.062,-0.011 0.083,-0.034 0.021,-0.024 0.031,-0.053 0.031,-0.087 l 0,-0.737 c 0,-0.035 -0.01,-0.063 -0.031,-0.087 -0.021,-0.023 -0.05,-0.035 -0.083,-0.035 l -1.629,0 c -0.021,0 -0.032,-0.011 -0.032,-0.032 l 0,-1.443 c 0,-0.081 -0.04,-0.121 -0.122,-0.121 l -0.885,0 c -0.081,0 -0.121,0.04 -0.121,0.121 l 0,4.245 c 0,0.034 0.011,0.062 0.035,0.086 0.023,0.023 0.052,0.035 0.086,0.035 l 3.186,0 c 0.035,0 0.064,-0.012 0.087,-0.035"
                     id="path7807"
                     style="fill:#0c2950;fill-opacity:1;fill-rule:nonzero;stroke:none" />
                </g>
              </g>
            </g>
          </g>
        </g>
      </g>
    </g>
  </g>
</svg>
