<?xml version="1.0" encoding="UTF-8" standalone="no"?>
<!-- Created with Inkscape (http://www.inkscape.org/) -->

<svg
   xmlns:dc="http://purl.org/dc/elements/1.1/"
   xmlns:cc="http://creativecommons.org/ns#"
   xmlns:rdf="http://www.w3.org/1999/02/22-rdf-syntax-ns#"
   xmlns:svg="http://www.w3.org/2000/svg"
   xmlns="http://www.w3.org/2000/svg"
   xmlns:sodipodi="http://sodipodi.sourceforge.net/DTD/sodipodi-0.dtd"
   xmlns:inkscape="http://www.inkscape.org/namespaces/inkscape"
   version="1.1"
   width="89.281013"
   height="125.91706"
   id="svg3579"
   inkscape:version="0.48.0 r9654"
   sodipodi:docname="Real Salt Lake shield logo.svg">
  <sodipodi:namedview
     pagecolor="#ffffff"
     bordercolor="#666666"
     borderopacity="1"
     objecttolerance="10"
     gridtolerance="10"
     guidetolerance="10"
     inkscape:pageopacity="0"
     inkscape:pageshadow="2"
     inkscape:window-width="1366"
     inkscape:window-height="706"
     id="namedview104"
     showgrid="false"
     fit-margin-bottom="2"
     fit-margin-top="2"
     fit-margin-left="2"
     fit-margin-right="2"
     inkscape:zoom="1.4595368"
     inkscape:cx="70.333578"
     inkscape:cy="26.227901"
     inkscape:window-x="-8"
     inkscape:window-y="-8"
     inkscape:window-maximized="1"
     inkscape:current-layer="svg3579" />
  <defs
     id="defs3581">
    <clipPath
       id="clipPath3199">
      <path
         d="m 175.665,461.518 58.171,0 0,83.16 -58.171,0 0,-83.16 z"
         id="path3201"
         inkscape:connector-curvature="0" />
    </clipPath>
  </defs>
  <metadata
     id="metadata3584">
    <rdf:RDF>
      <cc:Work
         rdf:about="">
        <dc:format>image/svg+xml</dc:format>
        <dc:type
           rdf:resource="http://purl.org/dc/dcmitype/StillImage" />
        <dc:title />
      </cc:Work>
    </rdf:RDF>
  </metadata>
  <g
     transform="matrix(0.62400508,0,0,0.62400508,-174.99502,-194.35754)"
     id="layer1">
    <g
       transform="matrix(2.3494323,0,0,-2.3494323,-129.06947,1594.3566)"
       id="g3195">
      <g
         clip-path="url(#clipPath3199)"
         id="g3197">
        <g
           transform="translate(208.04671,484.00681)"
           id="g3203">
          <path
             d="M 0,0 2.018,0.025 C 2.666,-0.937 3.06,-2.084 3.105,-3.321 L 1.457,-4.485 2.232,-1.754 0,0 z M 1.745,-7.5 C 1.016,-8.431 0.033,-9.153 -1.098,-9.567 l -1.62,1.206 2.839,0.106 0.977,2.667 0.647,-1.912 z m -5.042,-0.457 -0.358,1.695 -2.109,1.532 -1.723,-0.183 1.501,0.866 0.805,2.48 -0.706,1.581 1.287,-1.16 2.607,0 1.287,1.16 -0.706,-1.581 0.806,-2.48 1.501,-0.866 -1.723,0.183 -2.112,-1.532 -0.357,-1.695 z m -2.198,-1.61 c -1.131,0.414 -2.113,1.136 -2.843,2.067 l 0.646,1.912 0.978,-2.667 2.838,-0.106 -1.619,-1.206 z m -2.556,5.082 -1.646,1.164 c 0.045,1.237 0.439,2.384 1.087,3.346 L -6.593,0 -8.826,-1.754 -8.051,-4.485 z m 2.997,7.095 c 0.558,0.159 1.148,0.244 1.757,0.244 0.611,0 1.198,-0.085 1.758,-0.244 l 0.6,-1.928 -2.358,1.582 -2.358,-1.582 0.601,1.928 z M 2.318,0.397 -0.454,0.364 -1.278,3.01 c -0.637,0.196 -1.316,0.303 -2.019,0.303 -0.701,0 -1.38,-0.107 -2.019,-0.303 L -6.139,0.364 -8.911,0.397 c -0.767,-1.09 -1.225,-2.413 -1.246,-3.841 l 2.259,-1.601 -0.888,-2.624 c 0.818,-1.089 1.952,-1.926 3.266,-2.376 l 2.223,1.656 2.225,-1.656 c 1.312,0.45 2.446,1.287 3.266,2.376 l -0.89,2.624 2.261,1.601 C 3.543,-2.016 3.086,-0.693 2.318,0.397"
             id="path3205"
             style="fill:#ffffff;fill-opacity:1;fill-rule:nonzero;stroke:none"
             inkscape:connector-curvature="0" />
        </g>
        <g
           transform="translate(202.74561,479.4608)"
           id="g3207">
          <path
             d="m 0,0 1.437,1.917 2.101,0.78 -2.697,0 L 0,0 z"
             id="path3209"
             style="fill:#ffffff;fill-opacity:1;fill-rule:nonzero;stroke:none"
             inkscape:connector-curvature="0" />
        </g>
        <g
           transform="translate(204.8233,516.6069)"
           id="g3211">
          <path
             d="m 0,0 c -0.397,0 -0.746,-0.185 -0.746,-0.428 0,-0.435 0.904,-0.54 1.41,-0.54 0.623,0 1.366,0.25 1.366,0.852 0,0.958 -1.844,0.969 -1.844,1.301 0,0.241 0.408,0.249 0.624,0.249 0.418,0 0.725,-0.123 0.622,-0.412 0,0 0.448,-0.021 0.448,0.233 0,0.378 -0.753,0.428 -1.253,0.428 -0.376,0 -1.204,-0.121 -1.196,-0.649 0,-0.848 1.826,-0.848 1.826,-1.34 C 1.259,-0.484 1.138,-0.698 0.661,-0.698 0.081,-0.698 -0.393,-0.288 0,0"
             id="path3213"
             style="fill:#ffffff;fill-opacity:1;fill-rule:nonzero;stroke:none"
             inkscape:connector-curvature="0" />
        </g>
        <g
           transform="translate(212.02251,518.2397)"
           id="g3215">
          <path
             d="m 0,0 -0.011,-0.429 c 0.07,0.096 0.144,0.145 0.225,0.145 0,0 0.34,0.036 0.796,0.036 l 0,-2.139 c 0,-0.079 -0.041,-0.134 -0.126,-0.167 l 1.161,0 c -0.083,0.033 -0.124,0.088 -0.124,0.167 l 0,2.139 c 0.454,0 0.796,-0.036 0.796,-0.036 0.079,0 0.155,-0.049 0.221,-0.145 L 2.93,0 0,0 z"
             id="path3217"
             style="fill:#ffffff;fill-opacity:1;fill-rule:nonzero;stroke:none"
             inkscape:connector-curvature="0" />
        </g>
        <g
           transform="translate(207.6916,516.5435)"
           id="g3219">
          <path
             d="M 0,0 0.35,0.659 0.726,0 0,0 z m 4.529,-0.055 c 0,0 0.16,-0.531 -0.722,-0.531 l -0.469,0 0,2.112 c 0,0.075 0.041,0.132 0.124,0.17 l -1.163,0 C 2.384,1.658 2.427,1.601 2.427,1.526 l 0,-2.216 c 0,-0.076 -0.04,-0.13 -0.12,-0.164 -0.034,0.017 -0.173,0.091 -0.227,0.183 L 0.61,1.814 -0.797,-0.671 c -0.044,-0.06 -0.124,-0.122 -0.238,-0.187 l 0.805,0 c -0.108,0.03 -0.157,0.127 -0.124,0.202 l 0.206,0.403 1.022,0 0.224,-0.418 C 1.142,-0.764 1.056,-0.805 0.969,-0.858 l 3.145,0 c 0.345,0 0.672,0.094 0.779,0.325 0.136,0.295 -0.364,0.478 -0.364,0.478"
             id="path3221"
             style="fill:#ffffff;fill-opacity:1;fill-rule:nonzero;stroke:none"
             inkscape:connector-curvature="0" />
        </g>
        <g
           transform="translate(218.4879,516.0103)"
           id="g3223">
          <path
             d="m 0,0 c 0.137,0.296 -0.36,0.478 -0.36,0.478 0,0 0.159,-0.531 -0.722,-0.531 l -0.297,0 0,2.112 c 0,0.075 0.042,0.132 0.124,0.17 l -1.163,0 c 0.086,-0.038 0.129,-0.095 0.129,-0.17 l 0,-2.216 c 0,-0.078 -0.043,-0.133 -0.129,-0.168 l 1.642,0 C -0.43,-0.325 -0.104,-0.231 0,0"
             id="path3225"
             style="fill:#ffffff;fill-opacity:1;fill-rule:nonzero;stroke:none"
             inkscape:connector-curvature="0" />
        </g>
        <g
           transform="translate(219.4726,516.5435)"
           id="g3227">
          <path
             d="M 0,0 0.348,0.659 0.725,0 0,0 z m 7.405,-0.59 -0.889,0 0,1.006 0.744,0 c 0.103,0 0.168,-0.106 0.168,-0.106 l 0,0.462 C 7.389,0.704 7.333,0.668 7.26,0.668 l -0.744,0 0,0.78 0.925,0 C 7.587,1.439 7.698,1.377 7.771,1.286 l -0.028,0.41 -2.287,0 C 5.553,1.653 5.602,1.597 5.602,1.526 l 0,-2.216 c 0,-0.095 -0.084,-0.142 -0.125,-0.16 -0.04,0.02 -0.135,0.071 -0.197,0.133 L 3.906,0.727 4.999,1.544 c 0.109,0.08 0.323,0.152 0.323,0.152 l -0.946,0 C 4.452,1.651 4.52,1.576 4.422,1.503 L 3.21,0.611 l 0,0.915 c 0,0.075 0.041,0.132 0.124,0.17 l -1.165,0 C 2.256,1.658 2.298,1.601 2.298,1.526 l 0,-2.216 C 2.298,-0.742 2.28,-0.784 2.241,-0.817 2.187,-0.781 2.116,-0.73 2.08,-0.671 L 0.611,1.814 -0.796,-0.671 c -0.044,-0.06 -0.125,-0.122 -0.24,-0.187 l 0.806,0 c -0.111,0.03 -0.159,0.127 -0.122,0.202 l 0.204,0.403 1.021,0 0.223,-0.418 C 1.142,-0.764 1.056,-0.805 0.97,-0.858 l 2.364,0 C 3.251,-0.825 3.21,-0.77 3.21,-0.69 l 0,0.982 0.949,-0.985 C 4.246,-0.788 4.074,-0.858 4.074,-0.858 l 3.816,0 0.124,0.494 c 0,0 -0.122,-0.226 -0.609,-0.226"
             id="path3229"
             style="fill:#ffffff;fill-opacity:1;fill-rule:nonzero;stroke:none"
             inkscape:connector-curvature="0" />
        </g>
        <g
           transform="translate(198.72749,531.9915)"
           id="g3231">
          <path
             d="m 0,0 c 1.65,0 2.377,-2.618 2.377,-2.618 l -3.628,-1.279 c 0,0 -0.305,0.827 -0.305,1.637 C -1.556,-0.846 -0.85,0 0,0 m 1.56,-10.52 c 3.308,0 4.606,3.203 4.325,4.362 0,0 -0.873,-2.5 -3.056,-2.5 -2.758,0 -3.826,3.851 -3.826,3.851 l 6.124,2.159 c 0,0 -1.038,3.789 -4.133,3.789 -2.214,0 -4.731,-1.619 -4.731,-5.308 0,-3.382 2.482,-6.353 5.297,-6.353"
             id="path3233"
             style="fill:#ffffff;fill-opacity:1;fill-rule:nonzero;stroke:none"
             inkscape:connector-curvature="0" />
        </g>
        <g
           transform="translate(187.68829,527.11011)"
           id="g3235">
          <path
             d="m 0,0 -0.702,0 0,5.379 0.702,0 C 1.081,5.379 2.391,4.698 2.391,2.69 2.391,1.309 1.081,0 0,0 m 15.701,-7.509 c 0,0 -2.069,-1.347 -3.975,-1.347 -4.878,0 -4.694,8.389 -10.182,8.389 0,0 4.3,0.738 4.3,3.553 0,2.762 -3.179,3.16 -5.249,3.16 l -4.956,0 c 0,0 0.299,-0.394 0.299,-0.924 l 0,-11.262 c 0,-0.528 -0.299,-0.924 -0.299,-0.924 l 3.954,0 c 0,0 -0.299,0.396 -0.299,0.924 l 0,5.106 c 3.762,0 4.67,-10.366 11.339,-10.366 3.333,0 5.068,3.691 5.068,3.691"
             id="path3237"
             style="fill:#ffffff;fill-opacity:1;fill-rule:nonzero;stroke:none"
             inkscape:connector-curvature="0" />
        </g>
        <g
           transform="translate(209.3773,528.3535)"
           id="g3239">
          <path
             d="m 0,0 1.936,-4.128 -3.726,0 L 0,0 z m -2.959,-8.107 c 0,0 -0.333,0.499 -0.146,0.961 l 0.893,2.154 4.558,0 0.934,-2.154 C 3.495,-7.653 3.205,-8.107 3.205,-8.107 l 11.735,0 c 2.81,0 3.264,1.326 3.264,1.702 0,0.82 -1,1.33 -1,1.33 C 17.06,-5.541 16.833,-7.1 13.86,-7.1 l -2.29,0 0,10.913 c 0,0.671 0.31,1.19 0.31,1.19 l -3.976,0 c 0,0 0.31,-0.519 0.31,-1.19 l 0,-10.864 c 0,-0.391 -0.382,-0.691 -0.691,-0.87 -0.19,0.182 -0.469,0.474 -0.619,0.775 L 1.111,4.858 -3.095,-4.393 C -4.159,-6.721 -4.442,-7.14 -5.036,-8.107 l 2.077,0 z"
             id="path3241"
             style="fill:#ffffff;fill-opacity:1;fill-rule:nonzero;stroke:none"
             inkscape:connector-curvature="0" />
        </g>
        <g
           transform="translate(232.7373,510.0108)"
           id="g3243">
          <path
             d="M 0,0 C 0,-30.078 -24.176,-45.02 -27.988,-47.194 -31.797,-45.02 -55.973,-30.078 -55.973,0 l 0,33.568 L 0,33.568 0,0 z m -57.073,34.667 0,-34.667 c 0,-33.576 29.085,-48.493 29.085,-48.493 0,0 29.086,14.917 29.086,48.493 l 0,34.667 -58.171,0 z"
             id="path3245"
             style="fill:#edcb04;fill-opacity:1;fill-rule:nonzero;stroke:none"
             inkscape:connector-curvature="0" />
        </g>
        <g
           transform="translate(180.064,540.2784)"
           id="g3247">
          <path
             d="m 0,0 49.372,0 0,-30.268 c 0,-25.763 -18.427,-39.379 -24.687,-43.297 C 18.427,-69.647 0,-56.031 0,-30.268 L 0,0 z m 24.685,-74.865 c 5.783,3.491 25.787,17.433 25.787,44.597 l 0,31.368 -51.572,0 0,-31.368 c 0,-27.164 20.004,-41.106 25.785,-44.597"
             id="path3249"
             style="fill:#edcb04;fill-opacity:1;fill-rule:nonzero;stroke:none"
             inkscape:connector-curvature="0" />
        </g>
        <g
           transform="translate(196.8914,483.6187)"
           id="g3251">
          <path
             d="m 0,0 c -4.818,2.585 -8.096,7.682 -8.096,13.55 0,8.478 6.845,15.351 15.287,15.351 7.621,0 13.934,-5.598 15.097,-12.92 -0.965,7.794 -7.585,13.825 -15.607,13.825 -8.686,0 -15.727,-7.07 -15.727,-15.792 0,-6.284 3.659,-11.708 8.954,-14.25 0.029,0.08 0.06,0.158 0.092,0.236"
             id="path3253"
             style="fill:#edcb04;fill-opacity:1;fill-rule:nonzero;stroke:none"
             inkscape:connector-curvature="0" />
        </g>
        <g
           transform="translate(199.22121,482.2525)"
           id="g3255">
          <path
             d="M 0,0 2.232,1.754 0.215,1.779 C -0.433,0.817 -0.826,-0.33 -0.871,-1.567 L 0.775,-2.731 0,0 z"
             id="path3257"
             style="fill:#edcb04;fill-opacity:1;fill-rule:nonzero;stroke:none"
             inkscape:connector-curvature="0" />
        </g>
        <g
           transform="translate(206.5076,486.6165)"
           id="g3259">
          <path
             d="M 0,0 C -0.56,0.16 -1.147,0.244 -1.758,0.244 -2.367,0.244 -2.957,0.16 -3.515,0 L -4.116,-1.927 -1.758,-0.346 0.601,-1.927 0,0 z"
             id="path3261"
             style="fill:#edcb04;fill-opacity:1;fill-rule:nonzero;stroke:none"
             inkscape:connector-curvature="0" />
        </g>
        <g
           transform="translate(208.04671,484.00681)"
           id="g3263">
          <path
             d="M 0,0 2.232,-1.754 1.457,-4.485 3.105,-3.321 C 3.06,-2.084 2.666,-0.937 2.018,0.025 L 0,0 z"
             id="path3265"
             style="fill:#edcb04;fill-opacity:1;fill-rule:nonzero;stroke:none"
             inkscape:connector-curvature="0" />
        </g>
        <g
           transform="translate(200.3551,478.4193)"
           id="g3267">
          <path
             d="m 0,0 -0.647,-1.913 c 0.73,-0.93 1.712,-1.652 2.843,-2.067 L 3.816,-2.773 0.978,-2.668 0,0 z"
             id="path3269"
             style="fill:#edcb04;fill-opacity:1;fill-rule:nonzero;stroke:none"
             inkscape:connector-curvature="0" />
        </g>
        <g
           transform="translate(208.16811,475.7515)"
           id="g3271">
          <path
             d="m 0,0 -2.839,-0.106 1.619,-1.206 c 1.132,0.414 2.115,1.136 2.844,2.067 L 0.977,2.668 0,0 z"
             id="path3273"
             style="fill:#edcb04;fill-opacity:1;fill-rule:nonzero;stroke:none"
             inkscape:connector-curvature="0" />
        </g>
        <g
           transform="translate(203.5468,500.3669)"
           id="g3275">
          <path
             d="m 0,0 -2.152,0 0,5.544 2.152,0 C 2.706,5.544 4.513,4.617 4.513,2.772 4.513,1.274 2.636,0 0,0 m 5.796,-1.773 c -0.937,0.842 -1.972,1.336 -3.101,1.48 0,0 5.059,0.387 5.059,3.325 0,1.414 -1.769,3.325 -7.276,3.325 l -6.471,0 c 0,0 0.861,-0.48 0.861,-0.891 l 0,-6.267 c 0.802,-0.394 1.895,-0.755 2.98,-1.196 l 0,1.216 1.777,0 C 0.569,-0.777 1.107,-0.993 1.6,-1.406 l 5.158,-4.803 c 0.722,-0.619 2.156,-1.372 3.403,-1.372 1.602,0 2.24,0.534 2.24,0.534 0,0 -1.033,0.066 -1.817,0.737 l -4.788,4.537 z"
             id="path3277"
             style="fill:#edcb04;fill-opacity:1;fill-rule:nonzero;stroke:none"
             inkscape:connector-curvature="0" />
        </g>
        <g
           transform="translate(198.4147,496.2485)"
           id="g3279">
          <path
             d="M 0,0 0,-2.084 C 0,-2.563 -0.77,-2.97 -0.77,-2.97 l 4.568,0 c 0,0 -0.817,0.407 -0.817,0.886 l 0,0.707 C 2.278,-0.878 1.155,-0.467 0,0"
             id="path3281"
             style="fill:#edcb04;fill-opacity:1;fill-rule:nonzero;stroke:none"
             inkscape:connector-curvature="0" />
        </g>
        <g
           transform="translate(198.72749,531.4991)"
           id="g3283">
          <path
             d="m 0,0 c 0.895,0 1.488,-1.169 1.75,-1.824 l -2.677,-0.944 c -0.068,0.277 -0.137,0.644 -0.137,1.001 C -1.064,-0.727 -0.626,0 0,0 m 2.377,-2.125 c 0,0 -0.727,2.617 -2.377,2.617 -0.85,0 -1.556,-0.846 -1.556,-2.259 0,-0.811 0.305,-1.637 0.305,-1.637 l 3.628,1.279 z"
             id="path3285"
             style="fill:#edcb04;fill-opacity:1;fill-rule:nonzero;stroke:none"
             inkscape:connector-curvature="0" />
        </g>
        <g
           transform="translate(199.7215,533.132)"
           id="g3287">
          <path
             d="m 0,0 c 3.095,0 4.133,-3.788 4.133,-3.788 l -6.124,-2.16 c 0,0 1.068,-3.85 3.826,-3.85 2.183,0 3.056,2.5 3.056,2.5 0.281,-1.159 -1.017,-4.363 -4.325,-4.363 -2.815,0 -5.297,2.971 -5.297,6.353 C -4.731,-1.618 -2.214,0 0,0 m 0.566,-12.153 c 2.551,0 4.843,2.017 4.843,4.723 0,1.126 -0.397,2.071 -0.65,1.221 0,0 -0.762,-3.097 -2.924,-3.097 -1.842,0 -2.849,2.124 -3.204,3.057 l 6.097,2.148 c 0,0 -0.996,4.592 -4.728,4.592 -2.594,0 -5.222,-1.992 -5.222,-5.799 0,-3.646 2.705,-6.845 5.788,-6.845"
             id="path3289"
             style="fill:#edcb04;fill-opacity:1;fill-rule:nonzero;stroke:none"
             inkscape:connector-curvature="0" />
        </g>
        <g
           transform="translate(187.4785,531.9968)"
           id="g3291">
          <path
             d="m 0,0 0.21,0 c 0.919,0 1.899,-0.577 1.899,-2.196 0,-1.112 -1.087,-2.2 -1.899,-2.2 L 0,-4.396 0,0 z m 2.6,-2.196 c 0,2.007 -1.309,2.688 -2.39,2.688 l -0.702,0 0,-5.379 0.702,0 c 1.081,0 2.39,1.31 2.39,2.691"
             id="path3293"
             style="fill:#edcb04;fill-opacity:1;fill-rule:nonzero;stroke:none"
             inkscape:connector-curvature="0" />
        </g>
        <g
           transform="translate(209.39439,527.15759)"
           id="g3295">
          <path
             d="m 0,0 1.143,-2.439 -2.199,0 L 0,0 z m -0.017,1.196 -1.79,-4.128 3.726,0 -1.936,4.128 z"
             id="path3297"
             style="fill:#edcb04;fill-opacity:1;fill-rule:nonzero;stroke:none"
             inkscape:connector-curvature="0" />
        </g>
        <g
           transform="translate(183.3271,533.35629)"
           id="g3299">
          <path
             d="m 0,0 4.957,0 c 2.069,0 5.248,-0.399 5.248,-3.16 0,-2.816 -4.299,-3.554 -4.299,-3.554 5.487,0 5.303,-8.388 10.181,-8.388 1.906,0 3.976,1.346 3.976,1.346 0,0 -1.736,-3.69 -5.069,-3.69 -6.669,0 -7.577,10.366 -11.339,10.366 l 0,-5.106 c 0,-0.528 0.3,-0.924 0.3,-0.924 l -3.955,0 c 0,0 0.3,0.396 0.3,0.924 l 0,11.262 C 0.3,-0.395 0,0 0,0 m 22.955,-9.396 4.207,9.251 5.792,-12.004 c 0.15,-0.301 0.429,-0.593 0.619,-0.775 0.309,0.179 0.692,0.479 0.692,0.87 l 0,10.865 C 34.265,-0.519 33.954,0 33.954,0 l 3.976,0 c 0,0 -0.31,-0.519 -0.31,-1.189 l 0,-10.914 2.29,0 c 2.973,0 3.2,1.559 3.344,2.025 0,0 1,-0.51 1,-1.329 0,-0.377 -0.454,-1.703 -3.264,-1.703 l -11.735,0 c 0,0 0.291,0.454 0.075,0.961 l -0.934,2.154 -4.558,0 -0.892,-2.154 c -0.188,-0.462 0.145,-0.961 0.145,-0.961 l -2.077,0 c 0.594,0.967 0.877,1.386 1.941,3.714 m -24.099,-4.205 6.242,0 c 0,0 -0.951,0.694 -0.951,1.415 l 0,4.529 c 2.798,-0.743 4.253,-10.28 10.847,-10.28 3.879,0 5.685,4.336 5.685,4.336 l 3.543,0 c 0,0 -1.026,0.779 -0.82,1.268 l 0.763,1.846 3.909,0 0.804,-1.858 c 0.235,-0.53 -0.361,-0.814 -0.985,-1.256 l 13.097,0 c 2.973,0 3.757,1.435 3.757,2.194 0,1.442 -2.094,2.329 -2.094,2.329 0.368,-1.024 0.027,-2.534 -2.743,-2.534 l -1.796,0 0,10.423 c 0,1.075 0.969,1.681 0.969,1.681 l -6.28,0 c 0,0 0.968,-0.606 0.968,-1.681 l 0,-10.468 c 0,-0.19 -0.077,-0.389 -0.201,-0.587 -0.059,0.095 -0.117,0.198 -0.173,0.311 L 27.148,1.014 22.507,-9.192 c -0.983,-2.152 -1.372,-2.784 -1.882,-3.613 -0.447,-0.794 -3.143,-1.806 -4.538,-1.806 -3.907,0 -4.346,6.407 -8.203,7.996 1.31,0.565 2.813,1.612 2.813,3.455 0,1.666 -0.996,3.652 -5.74,3.652 l -6.101,0 c 0,0 0.951,-0.694 0.951,-1.416 l 0,-11.262 c 0,-0.721 -0.951,-1.415 -0.951,-1.415"
             id="path3301"
             style="fill:#edcb04;fill-opacity:1;fill-rule:nonzero;stroke:none"
             inkscape:connector-curvature="0" />
        </g>
        <g
           transform="translate(193.6468,536.989)"
           id="g3303">
          <path
             d="M 0,0 C 0.198,-0.467 0.282,-0.631 0.282,-0.631 L 0.123,-1.214 0.741,-1.486 1.125,-2.313 c 0,0 1.804,0.813 4.635,0.813 2.831,0 4.635,-0.813 4.635,-0.813 l 0.384,0.827 0.618,0.272 -0.157,0.583 c 0,0 0.082,0.164 0.28,0.631 0.196,0.467 1.155,0.971 1.155,0.971 -0.81,0.833 -1.48,-0.832 -2.334,-0.022 -0.296,-0.441 0.323,-0.973 0.323,-0.973 0,0 -0.186,-0.46 -0.724,-0.553 -0.65,-0.109 -1.328,-0.067 -1.459,1.129 0,0 -0.441,-1.209 -1.459,-0.945 -0.664,0.173 -0.928,0.701 -1.021,0.969 0.66,0.08 1.163,0.483 1.163,0.967 l -0.963,0 C 6.166,2.038 5.76,2.306 5.76,2.306 c 0,0 -0.405,-0.268 -0.442,-0.763 l -0.961,0 C 4.357,1.059 4.86,0.656 5.52,0.576 5.427,0.308 5.161,-0.22 4.499,-0.393 3.481,-0.657 3.04,0.552 3.04,0.552 2.908,-0.644 2.229,-0.686 1.58,-0.577 c -0.539,0.093 -0.723,0.553 -0.723,0.553 0,0 0.617,0.532 0.322,0.973 -0.854,-0.81 -1.525,0.855 -2.335,0.022 0,0 0.959,-0.504 1.156,-0.971"
             id="path3305"
             style="fill:#edcb04;fill-opacity:1;fill-rule:nonzero;stroke:none"
             inkscape:connector-curvature="0" />
        </g>
        <g
           transform="translate(204.0022,533.6216)"
           id="g3307">
          <path
             d="m 0,0 c 0.022,0.046 0.033,0.094 0.033,0.141 0,0.65 -2.072,1.175 -4.628,1.175 -2.555,0 -4.629,-0.525 -4.629,-1.175 0,-0.047 0.012,-0.095 0.033,-0.141 0.986,0.523 2.675,0.866 4.596,0.866 C -2.674,0.866 -0.985,0.523 0,0"
             id="path3309"
             style="fill:#edcb04;fill-opacity:1;fill-rule:nonzero;stroke:none"
             inkscape:connector-curvature="0" />
        </g>
        <g
           transform="translate(230.53551,510.0108)"
           id="g3311">
          <path
             d="M 0,0 C 0,-27.164 -20.003,-41.106 -25.786,-44.598 -31.568,-41.106 -51.571,-27.164 -51.571,0 l 0,31.367 L 0,31.367 0,0 z m -53.772,33.568 0,-33.568 c 0,-30.078 24.176,-45.02 27.986,-47.194 C -21.974,-45.02 2.202,-30.078 2.202,0 l 0,33.568 -55.974,0 z"
             id="path3313"
             style="fill:#b20d35;fill-opacity:1;fill-rule:nonzero;stroke:none"
             inkscape:connector-curvature="0" />
        </g>
        <g
           transform="translate(196.3436,481.49091)"
           id="g3315">
          <path
             d="M 0,0 C 0.02,0.166 0.046,0.331 0.075,0.494 -3.044,2.039 -5.623,4.514 -7.301,7.561 -5.705,4.347 -3.146,1.698 0,0"
             id="path3317"
             style="fill:#b20d35;fill-opacity:1;fill-rule:nonzero;stroke:none"
             inkscape:connector-curvature="0" />
        </g>
        <g
           transform="translate(220.9325,497.3018)"
           id="g3319">
          <path
             d="m 0,0 c 0,-6.125 -3.216,-11.495 -8.041,-14.507 0.097,-0.342 0.178,-0.69 0.233,-1.049 5.173,2.998 8.658,8.605 8.658,15.035 0,7.488 -4.723,13.868 -11.34,16.298 C -4.331,13.209 0,7.113 0,0"
             id="path3321"
             style="fill:#b20d35;fill-opacity:1;fill-rule:nonzero;stroke:none"
             inkscape:connector-curvature="0" />
        </g>
        <g
           transform="translate(197.9474,479.8105)"
           id="g3323">
          <path
             d="m 0,0 c 0,0 -0.215,-1.422 0.818,-2.713 l 0.256,0.788 c 0,0 -0.927,0.843 -1.074,1.925"
             id="path3325"
             style="fill:#b20d35;fill-opacity:1;fill-rule:nonzero;stroke:none"
             inkscape:connector-curvature="0" />
        </g>
        <g
           transform="translate(203.2617,473.7874)"
           id="g3327">
          <path
             d="M 0,0 C 0,0 1.286,-0.644 2.834,-0.061 L 2.163,0.426 C 2.163,0.426 1.076,-0.197 0,0"
             id="path3329"
             style="fill:#b20d35;fill-opacity:1;fill-rule:nonzero;stroke:none"
             inkscape:connector-curvature="0" />
        </g>
        <g
           transform="translate(210.8952,479.16769)"
           id="g3331">
          <path
             d="m 0,0 c 0,0 0.256,-1.226 -0.263,-2.189 0,0 1.011,1.023 0.934,2.677 L 0,0 z"
             id="path3333"
             style="fill:#b20d35;fill-opacity:1;fill-rule:nonzero;stroke:none"
             inkscape:connector-curvature="0" />
        </g>
        <g
           transform="translate(207.619,486.6904)"
           id="g3335">
          <path
             d="m 0,0 0.255,-0.788 c 0,0 1.246,-0.136 2.001,-0.927 0,0 -0.66,1.278 -2.256,1.715"
             id="path3337"
             style="fill:#b20d35;fill-opacity:1;fill-rule:nonzero;stroke:none"
             inkscape:connector-curvature="0" />
        </g>
        <g
           transform="translate(202.0341,486.7274)"
           id="g3339">
          <path
             d="m 0,0 c 0,0 -1.419,-0.235 -2.327,-1.617 l 0.829,0 c 0,0 0.513,1.143 1.498,1.617"
             id="path3341"
             style="fill:#b20d35;fill-opacity:1;fill-rule:nonzero;stroke:none"
             inkscape:connector-curvature="0" />
        </g>
        <g
           transform="translate(204.183,481.3774)"
           id="g3343">
          <path
             d="M 0,0 -1.437,-1.917 -0.597,0.78 2.1,0.78 0,0 z m 2.451,1.063 0.706,1.581 -1.287,-1.16 -2.607,0 -1.287,1.16 0.707,-1.581 -0.806,-2.481 -1.5,-0.866 1.722,0.184 2.11,-1.533 0.357,-1.695 0.358,1.695 2.112,1.533 1.723,-0.184 -1.501,0.866 -0.807,2.481 z"
             id="path3345"
             style="fill:#b20d35;fill-opacity:1;fill-rule:nonzero;stroke:none"
             inkscape:connector-curvature="0" />
        </g>
        <g
           transform="translate(205.66409,502.5753)"
           id="g3347">
          <path
             d="m 0,0 0,-1.378 c 1.206,0.429 1.903,1.205 1.903,1.942 0,0.099 -0.007,0.194 -0.021,0.285 l -2.596,0 C -0.714,0.849 0,0.667 0,0"
             id="path3349"
             style="fill:#b20d35;fill-opacity:1;fill-rule:nonzero;stroke:none"
             inkscape:connector-curvature="0" />
        </g>
        <g
           transform="translate(205.66409,497.80611)"
           id="g3351">
          <path
             d="m 0,0 0,-6.353 c 0,-0.667 -0.714,-0.85 -0.714,-0.85 l 8.441,0 c 3.382,0 2.222,1.986 2.222,1.986 0,0 -0.661,-1.155 -2.665,-1.155 l -4.769,0 0,4.032 L 0,0 z"
             id="path3353"
             style="fill:#b20d35;fill-opacity:1;fill-rule:nonzero;stroke:none"
             inkscape:connector-curvature="0" />
        </g>
        <g
           transform="translate(203.1165,500.7933)"
           id="g3355">
          <path
             d="m 0,0 c 0,0 0.871,0.433 0.871,1.224 0,0.767 -0.959,1.184 -2.1,1.391 l 0,-0.961 C -0.436,1.291 -0.05,0.702 0,0"
             id="path3357"
             style="fill:#b20d35;fill-opacity:1;fill-rule:nonzero;stroke:none"
             inkscape:connector-curvature="0" />
        </g>
        <g
           transform="translate(194.3768,492.5934)"
           id="g3359">
          <path
             d="m 0,0 c 0,-1.131 2.156,-2.157 5.193,-2.157 3.813,0 5.401,1.977 5.401,3.844 0,4.005 -8.291,3.922 -8.291,6.555 0,0.688 0.52,1.249 1.243,1.6 l 0,0.945 C 1.84,10.39 0.211,9.401 0.211,7.659 c 0,-3.711 8.036,-3.587 8.036,-6.508 0,-1.501 -1.05,-2.525 -3.054,-2.525 -2.272,0 -4.198,1.181 -3.72,2.949 C 1.473,1.575 0,1.234 0,0"
             id="path3361"
             style="fill:#b20d35;fill-opacity:1;fill-rule:nonzero;stroke:none"
             inkscape:connector-curvature="0" />
        </g>
        <g
           transform="translate(208.33839,524.71831)"
           id="g3363">
          <path
             d="M 0,0 2.199,0 1.056,2.439 0,0 z"
             id="path3365"
             style="fill:#1b377c;fill-opacity:1;fill-rule:nonzero;stroke:none"
             inkscape:connector-curvature="0" />
        </g>
        <g
           transform="translate(207.6916,516.5435)"
           id="g3367">
          <path
             d="M 0,0 0.726,0 0.35,0.659 0,0 z"
             id="path3369"
             style="fill:#1b377c;fill-opacity:1;fill-rule:nonzero;stroke:none"
             inkscape:connector-curvature="0" />
        </g>
        <g
           transform="translate(224.317,519.7551)"
           id="g3371">
          <path
             d="m 0,0 -13.097,0 c 0.624,0.442 1.22,0.726 0.985,1.257 l -0.804,1.857 -3.909,0 -0.763,-1.846 C -17.794,0.779 -16.768,0 -16.768,0 l -3.543,0 c 0,0 -1.806,-4.336 -5.685,-4.336 -6.593,0 -8.049,9.537 -10.847,10.28 l 0,-4.529 C -36.843,0.694 -35.892,0 -35.892,0 l -6.242,0 c 0,0 0.951,0.694 0.951,1.415 l 0,11.262 c 0,0.722 -0.951,1.417 -0.951,1.417 l 6.101,0 c 4.744,0 5.74,-1.987 5.74,-3.653 0,-1.843 -1.503,-2.889 -2.813,-3.454 3.857,-1.59 4.296,-7.997 8.203,-7.997 1.395,0 4.091,1.013 4.538,1.806 0.51,0.829 0.899,1.461 1.882,3.613 l 4.641,10.206 6.249,-12.947 c 0.056,-0.113 0.114,-0.216 0.173,-0.311 0.124,0.198 0.201,0.397 0.201,0.587 l 0,10.468 c 0,1.076 -0.968,1.682 -0.968,1.682 l 6.28,0 c 0,0 -0.969,-0.606 -0.969,-1.682 l 0,-10.423 1.796,0 c 2.77,0 3.111,1.51 2.743,2.535 0,0 2.094,-0.887 2.094,-2.33 C 3.757,1.435 2.973,0 0,0 m 3.045,-4.07 -3.816,0 c 0,0 0.173,0.07 0.086,0.165 l -0.949,0.985 0,-0.982 c 0,-0.079 0.041,-0.135 0.124,-0.168 l -2.364,0 c 0.086,0.053 0.171,0.094 0.125,0.188 l -0.223,0.417 -1.02,0 -0.205,-0.403 c -0.037,-0.075 0.012,-0.171 0.123,-0.202 l -0.807,0 c 0.115,0.065 0.197,0.127 0.241,0.188 l 1.407,2.484 1.469,-2.484 c 0.036,-0.06 0.107,-0.111 0.161,-0.147 0.038,0.033 0.057,0.076 0.057,0.127 l 0,2.216 c 0,0.076 -0.043,0.132 -0.13,0.171 l 1.166,0 C -1.593,-1.554 -1.634,-1.61 -1.634,-1.686 l 0,-0.914 1.212,0.892 c 0.097,0.073 0.03,0.148 -0.047,0.193 l 0.947,0 c 0,0 -0.214,-0.073 -0.324,-0.152 l -1.093,-0.817 1.375,-1.444 c 0.062,-0.062 0.157,-0.114 0.196,-0.134 0.041,0.019 0.126,0.065 0.126,0.16 l 0,2.216 c 0,0.072 -0.049,0.127 -0.147,0.171 l 2.288,0 0.027,-0.411 c -0.072,0.091 -0.183,0.153 -0.33,0.162 l -0.925,0 0,-0.78 0.745,0 c 0.072,0 0.129,0.036 0.167,0.105 l 0,-0.462 c 0,0 -0.064,0.105 -0.167,0.105 l -0.745,0 0,-1.006 0.89,0 c 0.487,0 0.608,0.226 0.608,0.226 L 3.045,-4.07 z m -11.292,2.555 1.163,0 C -7.166,-1.554 -7.209,-1.61 -7.209,-1.686 l 0,-2.112 0.297,0 c 0.882,0 0.723,0.531 0.723,0.531 0,0 0.497,-0.182 0.36,-0.478 -0.104,-0.231 -0.43,-0.325 -0.776,-0.325 l -1.642,0 c 0.085,0.035 0.129,0.09 0.129,0.168 l 0,2.216 c 0,0.076 -0.044,0.132 -0.129,0.171 m -2.945,-36.494 c -0.056,0.359 -0.136,0.707 -0.234,1.049 4.826,3.012 8.042,8.382 8.042,14.507 0,7.113 -4.331,13.209 -10.491,15.776 6.618,-2.43 11.341,-8.809 11.341,-16.298 0,-6.429 -3.485,-12.037 -8.658,-15.034 m -24.082,7.306 c 1.677,-3.047 4.257,-5.522 7.376,-7.067 -0.029,-0.163 -0.056,-0.328 -0.075,-0.494 -3.146,1.697 -5.705,4.347 -7.301,7.561 m 24.665,3.734 c -1.247,0 -2.681,0.752 -3.403,1.372 l -5.158,4.803 c -0.493,0.413 -1.031,0.628 -1.975,0.624 l -1.777,0 0,-1.215 c -1.085,0.441 -2.178,0.802 -2.98,1.196 l 0,6.267 c 0,0.41 -0.861,0.891 -0.861,0.891 l 6.471,0 c 5.507,0 7.275,-1.911 7.275,-3.325 0,-2.938 -5.058,-3.325 -5.058,-3.325 1.129,-0.144 2.164,-0.638 3.101,-1.48 l 4.788,-4.537 c 0.784,-0.672 1.817,-0.738 1.817,-0.738 0,0 -0.639,-0.533 -2.24,-0.533 m -8.758,-2.183 c 0,0 0.714,0.183 0.714,0.85 l 0,6.353 2.515,-2.34 0,-4.032 4.769,0 c 2.004,0 2.665,1.155 2.665,1.155 0,0 1.16,-1.986 -2.222,-1.986 l -8.441,0 z m -2.916,-3.876 c -0.985,-0.474 -1.498,-1.617 -1.498,-1.617 l -0.829,0 c 0.908,1.382 2.327,1.617 2.327,1.617 m 7.841,-1.751 c -0.755,0.79 -2.001,0.926 -2.001,0.926 l -0.255,0.788 c 1.596,-0.437 2.256,-1.714 2.256,-1.714 m -7.663,8.302 -4.567,0 c 0,0 0.77,0.407 0.77,0.886 l 0,2.084 c 1.155,-0.467 2.278,-0.877 2.98,-1.376 l 0,-0.708 c 0,-0.479 0.817,-0.886 0.817,-0.886 m -2.642,-2.059 c 2.003,0 3.054,1.025 3.054,2.525 0,2.922 -8.036,2.797 -8.036,6.508 0,1.742 1.629,2.731 3.334,3.128 l 0,-0.945 c -0.722,-0.351 -1.242,-0.912 -1.242,-1.6 0,-2.633 8.291,-2.55 8.291,-6.555 0,-1.866 -1.588,-3.844 -5.401,-3.844 -3.038,0 -5.193,1.026 -5.193,2.157 0,1.235 1.473,1.575 1.473,1.575 -0.478,-1.767 1.448,-2.949 3.72,-2.949 m 9.781,-12.257 0.89,-2.624 c -0.82,-1.089 -1.954,-1.926 -3.266,-2.376 l -2.226,1.656 -2.223,-1.656 c -1.313,0.45 -2.447,1.287 -3.265,2.376 l 0.888,2.624 -2.26,1.601 c 0.021,1.428 0.479,2.751 1.246,3.841 l 2.772,-0.033 0.824,2.645 c 0.639,0.197 1.317,0.304 2.018,0.304 0.704,0 1.382,-0.107 2.02,-0.304 l 0.824,-2.645 2.772,0.033 c 0.768,-1.09 1.225,-2.413 1.247,-3.841 l -2.261,-1.601 z m 1.544,0.206 0.671,0.488 c 0.078,-1.654 -0.933,-2.677 -0.933,-2.677 0.518,0.962 0.262,2.189 0.262,2.189 m -7.633,-5.381 c 1.075,-0.196 2.163,0.427 2.163,0.427 l 0.671,-0.487 c -1.549,-0.584 -2.834,0.06 -2.834,0.06 m -4.496,3.311 c -1.034,1.291 -0.819,2.712 -0.819,2.712 0.147,-1.082 1.075,-1.924 1.075,-1.924 l -0.256,-0.788 z m 20.414,22.502 c -1.163,7.322 -7.477,12.92 -15.097,12.92 -8.443,0 -15.287,-6.873 -15.287,-15.352 0,-5.867 3.277,-10.965 8.095,-13.549 -0.031,-0.078 -0.063,-0.156 -0.092,-0.237 -5.295,2.543 -8.954,7.967 -8.954,14.251 0,8.721 7.041,15.791 15.727,15.791 8.023,0 14.643,-6.031 15.608,-13.824 m -5.113,16.085 -1.16,0 c 0.084,0.033 0.125,0.089 0.125,0.168 l 0,2.138 c -0.455,0 -0.796,-0.035 -0.796,-0.035 -0.08,0 -0.154,-0.049 -0.224,-0.145 l 0.011,0.429 2.93,0 0.008,-0.429 c -0.066,0.096 -0.143,0.145 -0.222,0.145 0,0 -0.342,0.035 -0.796,0.035 l 0,-2.138 c 0,-0.079 0.041,-0.135 0.124,-0.168 m -4.076,2.555 1.163,0 c -0.083,-0.039 -0.124,-0.095 -0.124,-0.171 l 0,-2.112 0.468,0 c 0.882,0 0.723,0.531 0.723,0.531 0,0 0.5,-0.182 0.364,-0.478 -0.107,-0.231 -0.434,-0.325 -0.779,-0.325 l -3.146,0 c 0.088,0.053 0.173,0.094 0.13,0.188 l -0.225,0.417 -1.021,0 -0.206,-0.403 c -0.033,-0.075 0.016,-0.171 0.124,-0.202 l -0.805,0 c 0.113,0.065 0.194,0.127 0.237,0.188 l 1.407,2.484 1.471,-2.484 c 0.054,-0.093 0.193,-0.166 0.227,-0.184 0.079,0.035 0.12,0.089 0.12,0.164 l 0,2.216 c 0,0.076 -0.043,0.132 -0.128,0.171 m -4.506,-2.331 c 0.476,0 0.598,0.213 0.595,0.392 0,0.492 -1.826,0.492 -1.826,1.339 -0.008,0.528 0.82,0.65 1.196,0.65 0.501,0 1.253,-0.05 1.253,-0.428 0,-0.255 -0.448,-0.234 -0.448,-0.234 0.103,0.29 -0.204,0.412 -0.621,0.412 -0.217,0 -0.625,-0.008 -0.625,-0.248 0,-0.332 1.844,-0.343 1.844,-1.301 0,-0.602 -0.743,-0.852 -1.366,-0.852 -0.505,0 -1.41,0.105 -1.41,0.54 0,0.243 0.349,0.428 0.746,0.428 -0.393,-0.288 0.081,-0.698 0.662,-0.698 m -10.707,17.854 c 0,0.649 2.074,1.175 4.629,1.175 2.556,0 4.628,-0.526 4.628,-1.175 0,-0.048 -0.01,-0.095 -0.033,-0.141 -0.985,0.522 -2.674,0.865 -4.595,0.865 -1.92,0 -3.61,-0.343 -4.596,-0.865 -0.021,0.046 -0.033,0.093 -0.033,0.141 m 4.943,-0.14 c 3.732,0 4.729,-4.592 4.729,-4.592 l -6.097,-2.148 c 0.355,-0.933 1.362,-3.057 3.203,-3.057 2.162,0 2.924,3.097 2.924,3.097 0.253,0.85 0.651,-0.095 0.651,-1.221 0,-2.706 -2.293,-4.723 -4.843,-4.723 -3.084,0 -5.788,3.199 -5.788,6.845 0,3.807 2.628,5.799 5.221,5.799 m -4.895,4.315 c 0.295,-0.441 -0.323,-0.973 -0.323,-0.973 0,0 0.185,-0.461 0.724,-0.553 0.649,-0.109 1.328,-0.067 1.46,1.129 0,0 0.441,-1.209 1.458,-0.945 0.663,0.172 0.928,0.701 1.022,0.968 -0.66,0.081 -1.163,0.484 -1.163,0.968 l 0.961,0 c 0.037,0.495 0.442,0.763 0.442,0.763 0,0 0.406,-0.268 0.441,-0.763 l 0.962,0 c 0,-0.484 -0.502,-0.887 -1.162,-0.968 0.093,-0.267 0.357,-0.796 1.021,-0.968 1.018,-0.264 1.459,0.945 1.459,0.945 0.13,-1.196 0.809,-1.238 1.458,-1.129 0.539,0.092 0.725,0.553 0.725,0.553 0,0 -0.619,0.532 -0.323,0.973 0.854,-0.811 1.524,0.855 2.333,0.022 0,0 -0.958,-0.504 -1.155,-0.971 -0.198,-0.467 -0.279,-0.631 -0.279,-0.631 l 0.157,-0.583 -0.618,-0.272 -0.384,-0.827 c 0,0 -1.805,0.813 -4.635,0.813 -2.831,0 -4.636,-0.813 -4.636,-0.813 l -0.384,0.827 -0.617,0.272 0.159,0.583 c 0,0 -0.084,0.164 -0.282,0.631 -0.197,0.467 -1.157,0.971 -1.157,0.971 0.811,0.833 1.482,-0.833 2.336,-0.022 m -14.762,2.34 0,-30.267 c 0,-25.764 18.427,-39.38 24.685,-43.298 6.26,3.918 24.687,17.534 24.687,43.298 l 0,30.267 -49.372,0 z"
             id="path3373"
             style="fill:#1b377c;fill-opacity:1;fill-rule:nonzero;stroke:none"
             inkscape:connector-curvature="0" />
        </g>
        <g
           transform="translate(187.68829,531.9968)"
           id="g3375">
          <path
             d="m 0,0 -0.21,0 0,-4.396 0.21,0 c 0.812,0 1.899,1.088 1.899,2.2 C 1.899,-0.577 0.919,0 0,0"
             id="path3377"
             style="fill:#1b377c;fill-opacity:1;fill-rule:nonzero;stroke:none"
             inkscape:connector-curvature="0" />
        </g>
        <g
           transform="translate(205.66409,501.1972)"
           id="g3379">
          <path
             d="m 0,0 0,1.378 c 0,0.667 -0.714,0.849 -0.714,0.849 l 2.596,0 C 1.896,2.136 1.903,2.041 1.903,1.942 1.903,1.205 1.206,0.429 0,0 m -2.548,-0.404 c -0.05,0.702 -0.435,1.291 -1.229,1.654 l 0,0.961 c 1.141,-0.207 2.101,-0.624 2.101,-1.391 0,-0.791 -0.872,-1.224 -0.872,-1.224 m 4.944,2.346 c 0,1.845 -1.807,2.772 -4.513,2.772 l -2.152,0 0,-5.544 2.152,0 c 2.636,0 4.513,1.274 4.513,2.772"
             id="path3381"
             style="fill:#1b377c;fill-opacity:1;fill-rule:nonzero;stroke:none"
             inkscape:connector-curvature="0" />
        </g>
        <g
           transform="translate(219.4726,516.5435)"
           id="g3383">
          <path
             d="M 0,0 0.725,0 0.348,0.659 0,0 z"
             id="path3385"
             style="fill:#1b377c;fill-opacity:1;fill-rule:nonzero;stroke:none"
             inkscape:connector-curvature="0" />
        </g>
        <g
           transform="translate(200.4778,529.6749)"
           id="g3387">
          <path
             d="m 0,0 c -0.263,0.655 -0.855,1.824 -1.75,1.824 -0.626,0 -1.064,-0.727 -1.064,-1.767 0,-0.357 0.068,-0.724 0.137,-1.001 L 0,0 z"
             id="path3389"
             style="fill:#1b377c;fill-opacity:1;fill-rule:nonzero;stroke:none"
             inkscape:connector-curvature="0" />
        </g>
      </g>
    </g>
  </g>
</svg>
