<?xml version="1.0" encoding="utf-8"?>
<!-- Generator: Adobe Illustrator 14.0.0, SVG Export Plug-In . SVG Version: 6.00 Build 43363)  -->
<!DOCTYPE svg PUBLIC "-//W3C//DTD SVG 1.1//EN" "http://www.w3.org/Graphics/SVG/1.1/DTD/svg11.dtd">
<svg version="1.1" id="Layer_1" xmlns="http://www.w3.org/2000/svg" xmlns:xlink="http://www.w3.org/1999/xlink" x="0px" y="0px"
	 width="192.756px" height="192.756px" viewBox="0 0 192.756 192.756" enable-background="new 0 0 192.756 192.756"
	 xml:space="preserve">
<polygon fill-rule="evenodd" clip-rule="evenodd" fill="#FFFFFF" points="0,0 192.756,0 192.756,192.756 0,192.756 0,0 "/>
<path fill-rule="evenodd" clip-rule="evenodd" fill="#F3C716" d="M68.576,47.154l-6.951-17.052l10.07,5.11l0.298,6.06l2.406-0.03
	v-1.367l-0.654-0.535c0.594-0.386,1.129-0.832,1.664-1.336c0.505,0.475,1.039,0.921,1.634,1.336l-0.653,0.535v1.367l3.356-0.03
	v-2.495l-1.277-0.713c0.951-0.446,1.782-0.892,2.495-1.396c0.772,0.535,1.663,1.04,2.644,1.485l-1.277,0.624v2.465l5.496-0.059
	v-1.248l-0.653-0.535c0.564-0.386,1.129-0.832,1.663-1.336c0.506,0.475,1.04,0.921,1.635,1.336l-0.654,0.535v1.248l3.922-0.03v-3.06
	l-3.09-2.555c2.317-0.891,4.248-2.228,5.971-3.862c1.724,1.634,3.654,2.971,5.972,3.862l-3.09,2.555v3.06l3.951,0.03v-1.248
	l-0.684-0.535c0.625-0.416,1.159-0.861,1.664-1.336c0.535,0.505,1.069,0.95,1.664,1.336l-0.654,0.535v1.248l5.496,0.059v-2.465
	l-1.277-0.624c0.98-0.445,1.872-0.95,2.645-1.485c0.713,0.505,1.544,0.951,2.495,1.396l-1.277,0.713v2.495l3.327,0.03v-1.367
	l-0.654-0.535c0.624-0.416,1.159-0.861,1.664-1.336c0.534,0.505,1.069,0.95,1.664,1.336l-0.654,0.535v1.367l2.406,0.03l0.327-6.06
	l10.041-5.11l-6.951,17.052H68.576L68.576,47.154z"/>
<path fill-rule="evenodd" clip-rule="evenodd" d="M96.619,51.462c-36.479,0-66.187,29.708-66.187,66.188
	c0,36.511,29.708,66.218,66.187,66.218c36.511,0,66.218-29.707,66.218-66.218C162.836,81.169,133.129,51.462,96.619,51.462
	L96.619,51.462z"/>
<path fill-rule="evenodd" clip-rule="evenodd" fill="#FFFFFF" d="M96.619,53.245c-35.499,0-64.404,28.905-64.404,64.405
	c0,35.53,28.905,64.436,64.404,64.436c35.53,0,64.436-28.905,64.436-64.436C161.054,82.149,132.149,53.245,96.619,53.245
	L96.619,53.245z"/>
<path fill-rule="evenodd" clip-rule="evenodd" d="M127.812,106.391l0.06,0.089l-0.06,0.09l-1.961,1.752v8.586
	c0.237,0.208,0.445,0.356,0.564,0.505c0.179,0.208,0.268,0.386,0.268,0.505c0,0.208-0.089,0.356-0.268,0.445
	c-0.148,0.09-0.386,0.148-0.683,0.148c-0.565,0-1.159,0.03-1.753,0.149c-0.595,0.118-1.159,0.267-1.724,0.475
	c-0.268,0.119-0.534,0.208-0.772,0.327c-0.237,0.089-0.445,0.208-0.683,0.356v0.029c-0.327,0.148-0.595,0.356-0.892,0.595
	c-0.268,0.208-0.505,0.445-0.713,0.713l-0.029,0.06h-0.832l-0.03-0.06c-0.771-0.772-1.396-1.337-1.871-1.723
	c-0.476-0.357-0.803-0.535-1.011-0.535c-0.089,0-0.178,0.029-0.296,0.089c-0.119,0.089-0.238,0.179-0.387,0.327
	c-0.119,0.119-0.237,0.237-0.297,0.297c-0.119,0.089-0.179,0.148-0.238,0.148h-0.06l-0.029-0.06l-0.476-0.476l-0.059-0.089
	l0.089-0.089l1.901-1.724v-8.703c-0.268-0.209-0.476-0.416-0.595-0.595c-0.148-0.179-0.237-0.386-0.237-0.564
	c0-0.06,0-0.089,0.029-0.119c0-0.059,0.03-0.089,0.06-0.118c0.03-0.03,0.089-0.06,0.148-0.06c0.03-0.03,0.06-0.03,0.09-0.06h0.06
	c0.029,0,0.059,0,0.118,0c0.029,0,0.089-0.029,0.119-0.029l0.059-0.03c0.595,0,1.188-0.06,1.813-0.208
	c0.624-0.119,1.308-0.326,1.99-0.564c0.356-0.148,0.684-0.297,0.98-0.445c0.179-0.06,0.327-0.148,0.476-0.208
	c0.327-0.208,0.624-0.386,0.861-0.564c0.268-0.179,0.505-0.387,0.684-0.564l0.089-0.029h0.713l0.03,0.029
	c0.297,0.356,0.594,0.684,0.861,0.951c0.297,0.297,0.594,0.534,0.861,0.742c0.268,0.179,0.475,0.327,0.684,0.445
	c0.178,0.089,0.356,0.119,0.475,0.119c0.179,0,0.387-0.06,0.595-0.208c0.237-0.178,0.445-0.416,0.683-0.742l0.119-0.119l0.089,0.119
	L127.812,106.391L127.812,106.391z"/>
<path fill-rule="evenodd" clip-rule="evenodd" fill="#FFFFFF" d="M123.118,117.828v-8.794l-2.436-1.574l-0.564-0.356l-1.753,0.684
	v8.822l2.437,1.664v0.029l0.416,0.298c0.356-0.208,0.713-0.356,1.039-0.476C122.583,117.977,122.88,117.888,123.118,117.828
	L123.118,117.828z"/>
<path fill-rule="evenodd" clip-rule="evenodd" d="M104.284,118.333l0.624-0.624l0.119-0.089l0.089,0.148l0.326,0.742l0.06,0.09
	l-0.06,0.06l-2.763,2.732l-0.089,0.03h-0.594l-0.03-0.03c-0.564-0.564-0.979-1.129-1.277-1.693
	c-0.268-0.564-0.416-1.129-0.416-1.693v-9.179l-1.337-1.456l-3.505,3.624v6.149l1.307,1.069l0.713-0.564l0.09-0.06l0.059,0.09
	l0.476,0.445l0.06,0.089l-0.06,0.089l-3.179,3.09l-0.059,0.03h-0.477l-0.029-0.06c-0.475-0.624-0.861-1.069-1.218-1.367
	c-0.327-0.297-0.564-0.445-0.772-0.445c-0.268,0-0.505,0.089-0.713,0.268c-0.238,0.178-0.445,0.476-0.623,0.832l-0.09,0.148
	l-0.119-0.119l-0.505-0.624l-0.06-0.089l0.09-0.06l2.436-2.406v-8.467L91.54,107.4l-0.713,0.743l-0.089,0.089l-0.09-0.089
	l-0.505-0.564l-0.06-0.06l0.06-0.09l2.94-2.94l0.09-0.029h0.713l0.029,0.029c0.416,0.594,0.743,1.069,0.98,1.426
	c0.208,0.327,0.327,0.564,0.356,0.713c0.06,0.179,0.089,0.327,0.089,0.476c0.03,0.089,0.03,0.148,0.061,0.237v0.03
	c0,0.089,0,0.237,0,0.416c0,0.178,0,0.386,0.029,0.683v1.04l5.288-5.021l0.059-0.029h0.535l0.029,0.06
	c0.446,0.742,0.832,1.307,1.188,1.692c0.327,0.357,0.595,0.535,0.803,0.535c0.089,0,0.178-0.03,0.237-0.03
	c0.06-0.029,0.118-0.059,0.148-0.089v-0.029c0.089-0.06,0.148-0.089,0.237-0.148c0.06-0.06,0.149-0.119,0.208-0.179
	c0.089-0.118,0.208-0.208,0.297-0.326c0.119-0.09,0.238-0.208,0.357-0.297l0.118-0.09l0.06,0.119l0.356,0.564l0.06,0.06
	l-0.089,0.089l-2.377,2.287v6.744c0,0.802,0.148,1.426,0.356,1.931C103.541,117.798,103.868,118.125,104.284,118.333
	L104.284,118.333z"/>
<path fill-rule="evenodd" clip-rule="evenodd" d="M112.81,118.036l1.277-1.01l0.089-0.06l0.089,0.089l0.387,0.505l0.059,0.089
	l-0.059,0.06l-3.832,3.357l-0.06,0.029h-0.416l-0.09-0.029c-0.653-0.684-1.247-1.188-1.723-1.516
	c-0.476-0.297-0.861-0.445-1.129-0.445c-0.237,0-0.445,0.029-0.653,0.118c-0.237,0.09-0.476,0.238-0.713,0.446l-0.089,0.06
	l-0.09-0.09l-0.326-0.445l-0.06-0.089l0.089-0.06l2.674-2.079v-10.131h-1.01c-0.268,0-0.476,0.06-0.654,0.148
	c-0.208,0.119-0.326,0.268-0.445,0.476l-0.06,0.119l-0.089-0.06l-0.387-0.148l-0.118-0.03l0.029-0.118l0.98-2.793l0.03-0.089h1.723
	v-5.793l0.06-0.029l2.792-2.05l0.179-0.148v8.021h1.366c0.268,0,0.505-0.06,0.772-0.208c0.237-0.119,0.476-0.356,0.742-0.653
	l0.09-0.089l0.089,0.118l0.268,0.327l0.06,0.06l-0.03,0.059l-1.039,2.793l-0.03,0.089h-2.287v10.041L112.81,118.036L112.81,118.036z
	"/>
<path fill-rule="evenodd" clip-rule="evenodd" d="M89.251,118.185l0.713-0.595l0.09-0.059l0.089,0.089l0.356,0.564l0.06,0.06
	l-0.089,0.089l-3.09,2.792l-0.089,0.03h-0.416l-0.03-0.06c-0.267-0.297-0.505-0.535-0.684-0.772
	c-0.148-0.119-0.267-0.237-0.355-0.356c-0.148-0.178-0.268-0.327-0.357-0.505c-0.088-0.179-0.148-0.356-0.207-0.535
	c-0.06-0.178-0.09-0.416-0.119-0.713c-0.029-0.237-0.029-0.475-0.029-0.802l-2.645,2.05v0.029l-2.198,1.634l-0.089,0.03h-0.564
	c-0.119,0-0.238-0.06-0.416-0.148c-0.178-0.09-0.356-0.238-0.594-0.387h-0.029c-0.209-0.178-0.417-0.386-0.625-0.624
	c-0.207-0.237-0.416-0.505-0.594-0.802c-0.208-0.268-0.356-0.594-0.476-0.921c-0.089-0.326-0.119-0.713-0.119-1.1
	c0-0.505,0.09-1.039,0.298-1.604c0.208-0.505,0.505-1.01,0.92-1.485c0.417-0.535,0.951-1.04,1.575-1.516
	c0.535-0.416,1.159-0.802,1.872-1.158l-2.317-2.882c-0.386-0.386-0.653-0.802-0.862-1.188c-0.178-0.386-0.268-0.771-0.268-1.129
	c0-0.297,0.061-0.534,0.149-0.742c0.089-0.237,0.208-0.416,0.327-0.564c0.148-0.179,0.326-0.297,0.504-0.356
	c0.179-0.06,0.357-0.089,0.595-0.089c0.179,0,0.356,0.029,0.505,0.089c0.178,0.06,0.356,0.178,0.506,0.326
	c0.207,0.179,0.355,0.357,0.445,0.565c0.089,0.237,0.119,0.475,0.119,0.771c0,0.238-0.03,0.476-0.119,0.714
	c-0.09,0.207-0.208,0.415-0.387,0.653c0.208-0.03,0.416-0.09,0.624-0.149c0.297-0.089,0.624-0.237,0.921-0.386h0.06
	c0.03,0,0.03,0,0.06,0c0,0,0,0,0.029-0.029h0.029c0.297-0.148,0.595-0.327,0.892-0.476c0.298-0.178,0.595-0.356,0.861-0.564
	c0.298-0.208,0.534-0.476,0.772-0.713c0.238-0.268,0.445-0.505,0.624-0.772l0.03-0.029h0.713l0.029,0.06
	c0.119,0.326,0.268,0.594,0.445,0.861c0.179,0.268,0.387,0.534,0.595,0.742c0.208,0.238,0.415,0.387,0.594,0.476
	s0.327,0.148,0.476,0.148c0.06,0,0.119,0,0.207-0.03c0.061-0.029,0.119-0.059,0.209-0.089c0-0.029,0.029-0.029,0.089-0.089
	c0.148-0.089,0.356-0.208,0.624-0.416c0.089-0.089,0.208-0.178,0.268-0.237c0.089-0.089,0.148-0.089,0.148-0.119l0.237-0.06
	l0.268,0.624l0.03,0.06l-0.061,0.06l-2.495,2.198v8.14L89.251,118.185L89.251,118.185z"/>
<path fill-rule="evenodd" clip-rule="evenodd" fill="#FFFFFF" d="M85.093,116.075v-7.219l-1.426-1.456
	c-0.238,0.179-0.446,0.297-0.625,0.416c-0.236,0.119-0.416,0.238-0.623,0.356H82.39c-0.148,0.03-0.268,0.089-0.357,0.148
	c-0.029,0.03-0.059,0.03-0.089,0.03v0.029c-0.237,0.06-0.505,0.148-0.802,0.208c-0.238,0.06-0.476,0.089-0.743,0.119l2.05,2.584
	l1.277,1.575l0.061,0.089l-0.061,0.06l-0.416,0.594l-0.089,0.148l-0.118-0.148l-0.832-1.129l-0.238-0.297
	c-0.445,0.237-0.832,0.476-1.129,0.713c-0.355,0.268-0.623,0.505-0.802,0.772c-0.148,0.237-0.267,0.505-0.356,0.802
	c-0.09,0.298-0.148,0.624-0.148,0.98c0,0.327,0.059,0.653,0.148,0.98c0.119,0.297,0.268,0.595,0.475,0.891
	c0.209,0.268,0.477,0.506,0.803,0.714c0.297,0.208,0.624,0.386,1.01,0.505l0.268-0.208L85.093,116.075L85.093,116.075z"/>
<path fill-rule="evenodd" clip-rule="evenodd" d="M140.259,111.292c0,0.179-0.06,0.356-0.208,0.505
	c-0.119,0.119-0.297,0.238-0.535,0.327v4.604c0.06,0.03,0.119,0.06,0.179,0.119c0.089,0.06,0.179,0.148,0.237,0.268
	c0.089,0.089,0.148,0.207,0.179,0.297c0.029,0.089,0.06,0.178,0.06,0.268c0,0.118-0.09,0.208-0.238,0.297h0.03
	c-0.119,0.06-0.298,0.118-0.535,0.178c-1.039,0.09-1.931,0.356-2.703,0.772c-0.802,0.416-1.485,1.01-2.05,1.753l-0.03,0.06h-0.653
	l-0.059-0.06c-0.06-0.089-0.119-0.148-0.209-0.237c-0.059-0.03-0.118-0.09-0.148-0.119c-0.06-0.029-0.119-0.089-0.178-0.119
	c-0.208-0.118-0.445-0.268-0.743-0.415c-0.297-0.149-0.564-0.268-0.832-0.356c-0.267-0.06-0.534-0.09-0.772-0.09
	c-0.237,0-0.445,0.03-0.623,0.06c-0.208,0.06-0.387,0.148-0.535,0.268c-0.148,0.089-0.327,0.208-0.534,0.386
	c-0.179,0.148-0.387,0.327-0.654,0.535l-0.089,0.089l-0.06-0.089l-0.445-0.445l-0.089-0.06l0.06-0.09l4.545-6.446h-3.862
	c-0.178,0-0.326-0.029-0.445-0.148c-0.09-0.119-0.148-0.268-0.148-0.445c0-0.119,0.029-0.237,0.089-0.356s0.119-0.238,0.237-0.327
	v-0.029c0.119-0.06,0.208-0.149,0.327-0.208c0.089-0.06,0.179-0.089,0.297-0.119v-4.011c-0.06-0.029-0.089-0.06-0.118-0.089
	c-0.09-0.06-0.179-0.119-0.238-0.208c-0.118-0.089-0.178-0.148-0.237-0.208c-0.089-0.06-0.119-0.089-0.179-0.148l-0.029-0.029
	c-0.03-0.06-0.06-0.119-0.06-0.179c-0.03-0.06-0.03-0.118-0.03-0.178c0-0.149,0.09-0.268,0.268-0.356
	c0.179-0.06,0.416-0.119,0.714-0.148c0.415-0.06,0.831-0.119,1.218-0.238c0.386-0.089,0.772-0.237,1.129-0.416
	c0.326-0.148,0.624-0.326,0.95-0.564c0.356-0.237,0.684-0.505,1.069-0.861c0-0.029,0.06-0.06,0.09-0.089
	c0.059-0.06,0.118-0.089,0.178-0.119h0.06h0.476h0.089c0.505,0.387,0.98,0.653,1.396,0.861c0.415,0.179,0.772,0.268,1.099,0.268
	c0.327,0,0.684-0.089,1.069-0.268c0.416-0.208,0.832-0.475,1.308-0.861l0.089-0.06l0.06,0.09l0.356,0.386l0.06,0.089l-0.06,0.06
	l-4.248,6.061h3.802c0.268,0,0.477,0.029,0.624,0.089c0.149,0.089,0.238,0.208,0.238,0.416V111.292L140.259,111.292z"/>
<path fill-rule="evenodd" clip-rule="evenodd" fill="#FFFFFF" d="M136.843,117.917v-5.109h-2.645l-0.476,0.653h0.03l-3.119,4.456
	c0.505-0.386,0.98-0.653,1.426-0.861c0.564-0.268,1.1-0.387,1.574-0.387h0.06c0.238,0,0.476,0.03,0.743,0.06
	c0.237,0.06,0.505,0.148,0.772,0.238h0.029c0.268,0.148,0.534,0.267,0.742,0.445c0.208,0.148,0.387,0.297,0.535,0.505H136.843
	L136.843,117.917z"/>
<path fill-rule="evenodd" clip-rule="evenodd" fill="#FFFFFF" d="M131.822,111.174h2.466l3.327-4.754v-0.029
	c-0.534,0.476-1.069,0.832-1.574,1.069c-0.564,0.237-1.129,0.356-1.663,0.356c-0.149,0-0.268,0-0.416,0
	c-0.119,0-0.238-0.029-0.356-0.089c-0.06,0-0.119,0-0.179-0.03c-0.089-0.029-0.119-0.059-0.178-0.089h-0.03
	c-0.148-0.089-0.297-0.237-0.505-0.416c-0.179-0.178-0.356-0.386-0.564-0.623l-0.327,0.267V111.174L131.822,111.174z"/>
<path fill-rule="evenodd" clip-rule="evenodd" d="M70.922,103.984c1.01,0.327,1.842,0.713,2.555,1.129
	c0.772,0.445,1.367,0.95,1.783,1.456v0.029c0.386,0.564,0.683,1.218,0.861,1.931c0.207,0.743,0.297,1.574,0.297,2.496
	c0,0.505-0.059,1.039-0.208,1.544c-0.148,0.505-0.386,1.011-0.653,1.516c-0.297,0.505-0.624,0.95-0.951,1.396
	c-0.356,0.445-0.713,0.891-1.1,1.277c-0.385,0.386-0.801,0.772-1.247,1.188c-0.445,0.415-0.921,0.86-1.426,1.336h-0.03
	c-0.148,0.119-0.297,0.268-0.445,0.387c-0.148,0.148-0.297,0.267-0.445,0.386c-0.268,0.238-0.476,0.446-0.654,0.624
	c-0.178,0.178-0.297,0.327-0.385,0.445l-0.03,0.03h-1.04l-0.06-0.03c-0.624-0.534-1.337-1.01-2.108-1.485
	c-0.773-0.445-1.605-0.861-2.525-1.247c-0.387,0.683-0.803,1.307-1.188,1.901c-0.416,0.653-0.862,1.218-1.248,1.782
	c-0.445,0.564-0.861,1.069-1.277,1.545c-0.416,0.475-0.802,0.891-1.188,1.247c-0.178,0.179-0.327,0.327-0.505,0.476
	c-0.148,0.148-0.327,0.268-0.475,0.387c-0.238,0.178-0.475,0.356-0.713,0.505s-0.475,0.267-0.684,0.386
	c-0.386,0.208-0.772,0.356-1.128,0.476c-0.357,0.089-0.683,0.148-1.04,0.148c-0.832-0.06-1.456-0.327-1.871-0.861
	c-0.417-0.476-0.654-1.218-0.654-2.14c0-0.891,0.178-1.752,0.475-2.584c0.327-0.832,0.772-1.634,1.396-2.406
	c0.327-0.416,0.713-0.832,1.129-1.188c0.416-0.386,0.861-0.743,1.336-1.069c0.268-0.148,0.535-0.327,0.802-0.476
	c0.268-0.178,0.535-0.326,0.832-0.476c0.238-0.089,0.505-0.208,0.743-0.297c0.237-0.118,0.505-0.207,0.772-0.297
	c0.535-0.178,1.07-0.326,1.604-0.416c0.564-0.089,1.099-0.148,1.634-0.148c0.297,0,0.653,0.03,1.07,0.089
	c0.355,0.03,0.742,0.119,1.188,0.208l1.932-3.713c-1.159-0.327-2.17-0.624-3.031-0.862c-1.068-0.326-1.9-0.594-2.524-0.831
	s-1.159-0.535-1.664-0.861c-0.535-0.356-1.01-0.772-1.426-1.219h0.03c-0.119-0.089-0.208-0.237-0.297-0.356
	c-0.03-0.029-0.06-0.089-0.06-0.118c-0.297-0.387-0.535-0.832-0.684-1.308c-0.148-0.475-0.208-0.98-0.208-1.545
	c0-0.475,0.059-0.95,0.208-1.455c0.149-0.476,0.386-0.98,0.684-1.485l0.029-0.089l0.119,0.06l0.475,0.236l0.089,0.03l-0.03,0.089
	c-0.06,0.208-0.089,0.387-0.119,0.564c0,0.148-0.03,0.298-0.03,0.416c0,0.416,0.089,0.772,0.208,1.129
	c0.148,0.327,0.386,0.624,0.683,0.892c0.268,0.297,0.624,0.564,1.01,0.832c0.356,0.237,0.772,0.445,1.247,0.623
	c0.477,0.208,0.951,0.387,1.457,0.564c0.504,0.179,1.039,0.356,1.544,0.506c0.535,0.147,1.129,0.326,1.753,0.475
	c0.623,0.179,1.277,0.357,1.99,0.564l0.772-1.485c-0.237-0.06-0.595-0.178-1.129-0.326c-0.149-0.03-0.237-0.06-0.268-0.06
	c-0.297-0.089-0.534-0.148-0.743-0.208c-0.534-0.148-1.01-0.297-1.515-0.445c-0.356-0.09-0.683-0.208-0.979-0.327
	c-0.328-0.089-0.625-0.208-0.922-0.327c-0.623-0.268-1.188-0.564-1.693-0.891c-0.534-0.356-0.98-0.743-1.366-1.159
	c-0.356-0.416-0.653-0.92-0.832-1.515c-0.208-0.564-0.297-1.218-0.297-1.99c0-0.595,0.089-1.188,0.268-1.693
	c0.178-0.535,0.445-1.04,0.802-1.485h0.029h-0.029h0.029c0.327-0.416,0.713-0.802,1.129-1.129c0.446-0.327,0.922-0.624,1.426-0.861
	h0.031c0.504-0.208,1.009-0.356,1.484-0.446c0.476-0.119,0.951-0.148,1.426-0.148c0.892,0,1.723,0.119,2.525,0.357
	c0.802,0.237,1.545,0.563,2.229,1.039c0.268,0.178,0.534,0.356,0.742,0.535c0.208,0.178,0.416,0.355,0.594,0.534l1.99-1.693
	l0.09-0.089l0.089,0.089l0.386,0.564l0.061,0.089l-0.09,0.06l-3.832,3.357l-1.248,1.099l-0.119,0.119l-0.059-0.148
	c-0.268-0.506-0.506-0.951-0.772-1.337c-0.297-0.446-0.564-0.832-0.862-1.129v-0.03c-0.236-0.297-0.504-0.564-0.771-0.802
	c-0.268-0.208-0.535-0.386-0.803-0.505c-0.267-0.119-0.505-0.237-0.771-0.297c-0.297-0.09-0.564-0.119-0.861-0.148
	c-0.535,0-1.011,0.059-1.426,0.208c-0.417,0.118-0.803,0.326-1.1,0.594c-0.327,0.237-0.564,0.534-0.713,0.892
	c-0.148,0.356-0.238,0.742-0.238,1.188c0.029,0.445,0.178,0.831,0.387,1.188c0.207,0.356,0.534,0.684,0.95,1.011
	c0.268,0.207,0.534,0.415,0.861,0.594s0.653,0.356,1.04,0.505c0.356,0.179,0.713,0.327,1.069,0.446
	c0.356,0.147,0.713,0.267,1.069,0.386c0.297,0.089,0.624,0.178,0.951,0.268c0.504,0.148,1.039,0.297,1.574,0.415H68.1
	c0.297,0.119,0.713,0.209,1.04,0.327c0.297,0.09,0.534,0.148,0.713,0.208h0.03c0.029,0,0.059,0.03,0.088,0.03c0,0,0,0,0.03,0
	c0.386-0.565,0.743-1.07,1.069-1.545c0.356-0.476,0.684-0.921,0.98-1.277c0.268-0.416,0.595-0.772,0.892-1.1
	s0.594-0.624,0.892-0.921c0.326-0.268,0.652-0.534,0.98-0.772c0.355-0.237,0.713-0.476,1.099-0.683l0.118-0.06l0.061,0.118
	l0.236,0.505l0.031,0.09l-0.09,0.06c-0.387,0.267-0.742,0.505-1.07,0.771c-0.326,0.268-0.623,0.535-0.92,0.832
	c-0.327,0.297-0.594,0.564-0.861,0.861c-0.268,0.298-0.535,0.624-0.772,0.951c-0.03,0.029-0.06,0.089-0.089,0.148
	C72.111,102.32,71.546,103.063,70.922,103.984L70.922,103.984z"/>
<path fill-rule="evenodd" clip-rule="evenodd" fill="#FFFFFF" d="M73.715,115.065c0.356-0.505,0.623-0.98,0.802-1.456
	s0.268-0.921,0.268-1.337c0-0.653-0.089-1.247-0.298-1.782c-0.237-0.505-0.563-0.98-0.98-1.396c-0.385-0.326-0.891-0.653-1.484-0.95
	c-0.624-0.298-1.367-0.564-2.229-0.832c-0.119-0.06-0.268-0.089-0.445-0.119c-0.09-0.029-0.179-0.06-0.268-0.089l-0.713,1.337
	c0.208,0.089,0.445,0.179,0.684,0.268c0.268,0.089,0.564,0.208,0.832,0.297c0.059,0.029,0.088,0.06,0.118,0.06
	s0.06,0.029,0.06,0.029h0.06c0.327,0.119,0.624,0.238,0.921,0.356c0.297,0.149,0.535,0.297,0.772,0.445
	c0.237,0.119,0.445,0.298,0.624,0.476c0.208,0.208,0.416,0.445,0.564,0.654v0.029c0.297,0.476,0.445,1.099,0.445,1.782
	c0,0.594-0.148,1.188-0.416,1.753c-0.268,0.535-0.653,1.04-1.218,1.515l-0.06,0.09l-0.089-0.09l-0.386-0.356l-0.09-0.089l0.09-0.089
	c0.178-0.208,0.326-0.387,0.415-0.595c0.089-0.178,0.119-0.386,0.119-0.564c0-0.208-0.06-0.415-0.179-0.594
	c-0.119-0.208-0.326-0.356-0.564-0.535c-0.178-0.089-0.356-0.178-0.564-0.267c-0.207-0.09-0.445-0.179-0.713-0.268
	c-0.178-0.06-0.356-0.148-0.535-0.208c-0.178-0.06-0.355-0.148-0.563-0.208c-0.327-0.119-0.624-0.208-0.892-0.297
	c-0.445-0.148-0.742-0.268-0.951-0.356l-1.9,3.653c0.742,0.209,1.515,0.564,2.347,1.04c0.831,0.476,1.723,1.129,2.614,1.931
	c0.059,0.06,0.089,0.09,0.148,0.149c0.06,0.029,0.119,0.089,0.179,0.148c0.772-0.653,1.455-1.278,2.02-1.872
	C72.854,116.135,73.329,115.57,73.715,115.065L73.715,115.065z"/>
<path fill-rule="evenodd" clip-rule="evenodd" fill="#FFFFFF" d="M59.426,122.225c0.534-0.624,1.039-1.308,1.515-2.021
	c0.476-0.653,0.921-1.366,1.366-2.109c-0.148-0.059-0.326-0.118-0.534-0.178c-0.237-0.06-0.534-0.119-0.832-0.208
	c-1.218-0.208-2.466,0-3.624,0.535c-1.159,0.563-2.288,1.485-3.238,2.732c-0.386,0.535-0.98,1.575-1.278,2.614
	c-0.148,0.505-0.208,1.011-0.148,1.426c0.029,0.387,0.237,0.714,0.594,0.862c0.179,0.089,0.416,0.148,0.743,0.148
	c0.446,0,0.772-0.06,1.129-0.179c0.356-0.148,0.743-0.356,1.248-0.742h0.029c0.119-0.06,0.238-0.148,0.357-0.238
	c0.119-0.089,0.237-0.178,0.327-0.267c0.386-0.298,0.802-0.684,1.188-1.07C58.653,123.115,59.04,122.67,59.426,122.225
	L59.426,122.225z"/>
<path fill-rule="evenodd" clip-rule="evenodd" fill="#F3C716" d="M96.619,27.755c1.308,0,2.229,1.248,2.199,3h4.575
	c-0.209-2.465-1.456-3.951-3.18-5.139l1.932-2.168c4.277,3.594,8.021,7.337,10.457,11.497l6.209-2.912
	c-1.248-2.822-4.427-5.555-8.081-8.229c3.595-0.149,8.645,2.525,14.646,6.951c1.308-3.149,2.763-4.099,6.685-4.575
	c-5.109-4.367-13.636-6.981-22.459-6.981H99.442c-0.327-0.654-0.862-1.188-1.516-1.515V14.09c0.119-0.089,0.237-0.208,0.327-0.327
	h2.703v-2.614h-2.703c-0.09-0.119-0.208-0.238-0.327-0.356V8.119h-2.614v2.674c-0.119,0.119-0.238,0.238-0.356,0.356h-2.644v2.614
	h2.644c0.118,0.119,0.237,0.238,0.356,0.327v3.595c-0.684,0.327-1.218,0.861-1.515,1.515h-10.13c-8.853,0-17.35,2.614-22.459,6.981
	c3.921,0.476,5.377,1.426,6.654,4.575c6.001-4.426,11.08-7.1,14.676-6.951c-3.654,2.674-6.833,5.407-8.11,8.229l6.238,2.912
	c2.437-4.159,6.179-7.902,10.457-11.497l1.901,2.168c-1.693,1.188-2.941,2.674-3.179,5.139h4.575
	C94.391,29.003,95.312,27.755,96.619,27.755L96.619,27.755z"/>
<path fill-rule="evenodd" clip-rule="evenodd" fill="#FFFFFF" d="M96.619,18.873c0.892,0,1.635,0.713,1.635,1.634
	c0,0.892-0.743,1.634-1.635,1.634c-0.891,0-1.633-0.743-1.633-1.634C94.986,19.586,95.728,18.873,96.619,18.873L96.619,18.873z"/>
<path fill-rule="evenodd" clip-rule="evenodd" fill="#FFFFFF" d="M85.955,44.837c-0.387,0-0.713-0.327-0.713-0.713
	c0-0.386,0.326-0.684,0.713-0.684c0.386,0,0.684,0.297,0.684,0.684C86.638,44.51,86.34,44.837,85.955,44.837L85.955,44.837z"/>
<path fill-rule="evenodd" clip-rule="evenodd" fill="#FFFFFF" d="M75.23,44.926c-0.386,0-0.683-0.297-0.683-0.683
	c0-0.416,0.297-0.713,0.683-0.713s0.713,0.297,0.713,0.713C75.943,44.629,75.616,44.926,75.23,44.926L75.23,44.926z"/>
<path fill-rule="evenodd" clip-rule="evenodd" fill="#FFFFFF" d="M96.619,44.926c0.387,0,0.713-0.297,0.713-0.683
	c0-0.416-0.326-0.713-0.713-0.713c-0.385,0-0.713,0.297-0.713,0.713C95.906,44.629,96.234,44.926,96.619,44.926L96.619,44.926z"/>
<path fill-rule="evenodd" clip-rule="evenodd" fill="#FFFFFF" d="M107.314,44.837c0.386,0,0.713-0.327,0.713-0.713
	c0-0.386-0.327-0.684-0.713-0.684c-0.387,0-0.713,0.297-0.713,0.684C106.601,44.51,106.927,44.837,107.314,44.837L107.314,44.837z"
	/>
<path fill-rule="evenodd" clip-rule="evenodd" fill="#FFFFFF" d="M118.038,44.926c0.387,0,0.684-0.297,0.684-0.683
	c0-0.416-0.297-0.713-0.684-0.713c-0.386,0-0.713,0.297-0.713,0.713C117.325,44.629,117.652,44.926,118.038,44.926L118.038,44.926z"
	/>
<path fill-rule="evenodd" clip-rule="evenodd" fill="#218B6F" d="M38.958,88.923c-4.04,8.14-6.446,17.23-6.714,26.855l9.447,11.11
	l11.942-20.735l-0.238-23.41L38.958,88.923L38.958,88.923z"/>
<path fill-rule="evenodd" clip-rule="evenodd" fill="#218B6F" d="M47.008,158.705c5.941,7.159,13.368,13.012,21.835,17.082
	l13.844-4.189l-14.081-19.102l-21.538-8.645L47.008,158.705L47.008,158.705z"/>
<path fill-rule="evenodd" clip-rule="evenodd" fill="#218B6F" d="M120.355,177.569c8.675-3.446,16.398-8.734,22.756-15.329
	l-0.118-15.121l-22.014,7.664l-14.942,18.092L120.355,177.569L120.355,177.569z"/>
<path fill-rule="evenodd" clip-rule="evenodd" fill="#218B6F" d="M160.965,114.203c-0.505-9.595-3.119-18.626-7.397-26.647
	l-13.189-4.931l-0.327,23.379l11.14,20.112L160.965,114.203L160.965,114.203z"/>
<path fill-rule="evenodd" clip-rule="evenodd" fill="#218B6F" d="M96.619,53.245c-6.208,0-12.209,0.891-17.912,2.525L75.973,65.84
	l22.429,7.338l22.696-5.525l-4.308-11.17C110.433,54.373,103.66,53.245,96.619,53.245L96.619,53.245z"/>
<path fill-rule="evenodd" clip-rule="evenodd" d="M107.492,91.834V81.169h4.843c0.594,0,1.129,0,1.604,0.059
	c0.445,0.06,0.861,0.148,1.218,0.297c0.475,0.208,0.861,0.535,1.129,0.95c0.237,0.446,0.386,0.98,0.386,1.545
	c0,0.654-0.178,1.188-0.534,1.604c-0.208,0.208-0.476,0.416-0.772,0.564c0.386,0.119,0.742,0.327,0.98,0.624
	c0.445,0.446,0.683,1.1,0.683,1.901c0,0.505-0.089,0.951-0.268,1.337c-0.148,0.386-0.415,0.742-0.742,1.01
	c-0.445,0.356-0.98,0.534-1.604,0.653c-0.595,0.119-1.278,0.119-2.08,0.119H107.492L107.492,91.834z"/>
<path fill-rule="evenodd" clip-rule="evenodd" fill="#FFFFFF" d="M110.493,87.526v1.872h1.515c0.684,0,1.188-0.06,1.485-0.209
	c0.268-0.118,0.387-0.356,0.387-0.742c0-0.416-0.119-0.624-0.387-0.742c-0.326-0.149-0.832-0.179-1.485-0.179H110.493
	L110.493,87.526z"/>
<path fill-rule="evenodd" clip-rule="evenodd" fill="#FFFFFF" d="M110.493,83.575v1.693h1.337c0.594,0,1.04-0.059,1.307-0.208
	c0.237-0.119,0.327-0.327,0.327-0.683s-0.09-0.564-0.327-0.653c-0.267-0.119-0.713-0.149-1.307-0.149H110.493L110.493,83.575z"/>
<path fill-rule="evenodd" clip-rule="evenodd" d="M95.728,81.169h3.09v5.971c0,0.773,0.178,1.337,0.505,1.723
	c0.297,0.356,0.802,0.535,1.455,0.535c0.713,0,1.248-0.179,1.575-0.535c0.326-0.356,0.505-0.95,0.505-1.723v-5.971h3.09v6
	c0,1.663-0.416,2.882-1.248,3.684c-0.861,0.803-2.169,1.159-3.922,1.159c-0.861,0-1.604-0.09-2.228-0.268
	c-0.653-0.208-1.188-0.505-1.604-0.862c-0.477-0.445-0.803-0.98-0.981-1.574c-0.179-0.624-0.237-1.307-0.237-2.139V81.169
	L95.728,81.169z"/>
<polygon fill-rule="evenodd" clip-rule="evenodd" points="87.5,91.834 87.5,81.169 90.529,81.169 90.529,89.16 95.283,89.16 
	95.283,91.834 87.5,91.834 "/>
<path fill-rule="evenodd" clip-rule="evenodd" d="M86.519,87.823v0.238c-0.029,1.277-0.476,2.287-1.277,2.94
	c-0.803,0.684-1.932,1.011-3.416,1.011c-1.724,0-3.09-0.476-3.98-1.427c-0.922-0.92-1.397-2.317-1.397-4.069
	c0-1.783,0.476-3.149,1.427-4.1c0.92-0.891,2.287-1.367,4.069-1.367c1.396,0,2.495,0.297,3.238,0.921
	c0.772,0.564,1.188,1.515,1.308,2.762v0.238h-3.031l-0.029-0.208c-0.089-0.416-0.237-0.713-0.505-0.921
	c-0.268-0.208-0.653-0.327-1.129-0.327c-0.772,0-1.337,0.238-1.693,0.684c-0.356,0.476-0.564,1.218-0.564,2.258
	s0.179,1.782,0.535,2.288c0.356,0.475,0.86,0.712,1.574,0.712c0.564,0,0.979-0.118,1.277-0.356c0.297-0.207,0.445-0.564,0.505-1.099
	l0.029-0.179H86.519L86.519,87.823z"/>
<polygon fill-rule="evenodd" clip-rule="evenodd" points="67.209,140.673 67.209,130.424 69.971,130.424 69.971,138.088 
	74.19,138.088 74.19,140.673 67.209,140.673 "/>
<path fill-rule="evenodd" clip-rule="evenodd" d="M96.115,130.424h2.821v5.764c0,0.742,0.149,1.276,0.416,1.634
	c0.268,0.326,0.713,0.475,1.277,0.475c0.624,0,1.07-0.148,1.367-0.475c0.297-0.357,0.445-0.892,0.445-1.634v-5.764h2.792v5.764
	c0,1.604-0.355,2.762-1.099,3.534c-0.772,0.772-1.932,1.129-3.506,1.129c-0.742,0-1.426-0.089-1.99-0.267
	c-0.594-0.208-1.069-0.476-1.426-0.832c-0.445-0.445-0.714-0.921-0.892-1.516c-0.148-0.564-0.207-1.247-0.207-2.049V130.424
	L96.115,130.424z"/>
<polygon fill-rule="evenodd" clip-rule="evenodd" points="106.958,140.673 106.958,130.424 110.314,130.424 110.374,130.543 
	113.641,136.751 113.641,130.424 116.167,130.424 116.167,140.673 112.78,140.673 112.72,140.554 109.482,134.375 109.482,140.673 
	106.958,140.673 "/>
<polygon fill-rule="evenodd" clip-rule="evenodd" points="116.553,140.673 120.742,130.572 120.801,130.424 123.742,130.424 
	123.801,130.572 127.752,140.673 124.752,140.673 124.04,138.683 120.118,138.683 119.405,140.673 116.553,140.673 "/>
<polygon fill-rule="evenodd" clip-rule="evenodd" fill="#FFFFFF" points="121.039,136.336 123.177,136.336 122.167,133.454 
	121.039,136.336 "/>
<polygon fill-rule="evenodd" clip-rule="evenodd" points="74.547,140.673 78.765,130.572 78.825,130.424 81.765,130.424 
	81.826,130.572 85.777,140.673 82.776,140.673 82.063,138.683 78.141,138.683 77.399,140.673 74.547,140.673 "/>
<polygon fill-rule="evenodd" clip-rule="evenodd" fill="#FFFFFF" points="79.033,136.336 81.201,136.336 80.162,133.454 
	79.033,136.336 "/>
<path fill-rule="evenodd" clip-rule="evenodd" d="M92.015,137.91v-0.861h-1.456v-2.288h4.159v5.941h-2.08v-0.653
	c-0.92,0.476-1.842,0.713-2.584,0.713c-1.782,0-2.584-0.356-3.476-1.218c-0.921-0.891-1.366-2.198-1.366-3.921
	c0-1.693,0.445-3.03,1.336-3.922c0.861-0.921,2.169-1.396,3.803-1.396c1.396,0,2.406,0.268,3.148,0.862
	c0.743,0.563,1.159,1.455,1.219,2.613v0.238h-2.882l-0.029-0.238c0-0.356-0.149-0.683-0.417-0.891
	c-0.236-0.208-0.623-0.327-1.099-0.327c-0.713,0-1.277,0.238-1.663,0.743c-0.387,0.475-0.594,1.218-0.594,2.168
	c0,1.04,0.237,1.783,0.652,2.288c0.387,0.475,0.892,0.683,1.693,0.683C91.361,138.444,91.628,138.177,92.015,137.91L92.015,137.91z"
	/>
<g>
	<polygon fill-rule="evenodd" clip-rule="evenodd" fill="#F3C716" points="79.47,145.626 80.748,149.666 84.995,149.666 
		81.519,152.221 81.787,152.963 82.886,156.261 79.38,153.795 75.994,156.261 77.331,152.25 73.795,149.666 78.132,149.666 
		79.47,145.626 	"/>
	<polygon fill-rule="evenodd" clip-rule="evenodd" fill="#F3C716" points="95.214,145.626 96.492,149.666 100.769,149.666 
		97.264,152.221 97.532,152.963 98.63,156.261 95.125,153.795 91.739,156.261 93.076,152.25 89.541,149.666 93.877,149.666 
		95.214,145.626 	"/>
	<polygon fill-rule="evenodd" clip-rule="evenodd" fill="#F3C716" points="111.073,145.688 112.35,149.728 116.627,149.728 
		113.123,152.282 113.39,153.024 114.489,156.322 110.984,153.856 107.597,156.322 108.934,152.312 105.398,149.728 
		109.736,149.728 111.073,145.688 	"/>
</g>
</svg>
