<?xml version="1.0" encoding="UTF-8" ?>
<!DOCTYPE svg PUBLIC "-//W3C//DTD SVG 1.1//EN" "http://www.w3.org/Graphics/SVG/1.1/DTD/svg11.dtd">
<svg width="354pt" height="600pt" viewBox="0 0 354 600" version="1.1" xmlns="http://www.w3.org/2000/svg">
<g id="#ffffffff">
<path fill="#ffffff" opacity="1.00" d=" M 215.55 311.62 C 226.14 310.36 234.92 318.05 245.15 319.28 C 247.79 322.89 250.79 326.56 251.74 331.04 C 251.36 333.25 249.73 334.99 249.08 337.12 C 249.53 341.18 254.89 343.28 253.90 347.72 C 253.28 352.13 252.30 357.90 247.44 359.52 C 240.32 361.79 232.71 358.09 225.62 360.66 C 218.67 362.72 214.17 368.99 211.53 375.39 C 207.47 369.09 212.19 360.73 218.05 357.66 C 228.08 357.74 236.59 350.63 241.27 342.24 C 243.77 338.26 241.71 333.59 240.57 329.53 C 239.47 330.36 238.40 331.21 237.32 332.06 C 231.03 326.32 224.01 321.30 216.19 317.87 C 215.11 315.98 215.17 313.69 215.55 311.62 Z" />
<path fill="#ffffff" opacity="1.00" d=" M 107.77 318.91 C 117.76 318.40 126.13 310.25 136.46 312.25 C 137.65 313.59 138.58 315.13 139.67 316.55 C 130.51 319.93 122.34 325.65 115.19 332.23 C 114.21 331.26 113.22 330.30 112.22 329.36 C 111.06 333.32 108.94 337.85 111.18 341.82 C 115.75 350.40 124.28 357.56 134.39 357.73 C 140.66 360.54 145.25 369.14 141.30 375.59 C 138.61 369.51 134.63 363.35 128.06 361.02 C 120.57 357.73 112.28 362.07 104.74 359.32 C 100.29 357.48 99.42 352.10 98.77 347.90 C 97.77 343.70 102.29 341.46 103.50 337.93 C 103.63 335.17 100.52 333.07 101.11 330.23 C 102.36 325.98 105.13 322.40 107.77 318.91 Z" />
<path fill="#ffffff" opacity="1.00" d=" M 121.89 362.66 C 123.34 362.98 124.80 363.31 126.25 363.65 C 127.00 366.03 127.89 368.36 128.95 370.62 C 129.91 369.24 130.84 367.84 131.79 366.46 C 133.17 368.01 134.53 369.58 135.84 371.19 C 132.91 374.38 127.74 375.76 124.17 372.81 C 121.03 370.41 120.85 366.15 121.89 362.66 Z" />
<path fill="#ffffff" opacity="1.00" d=" M 226.85 363.66 C 228.27 363.30 229.70 362.96 231.14 362.63 C 232.33 366.33 231.97 371.13 228.25 373.27 C 224.61 375.66 220.04 374.12 217.23 371.21 C 218.52 369.59 219.86 368.01 221.23 366.46 C 222.18 367.84 223.12 369.24 224.09 370.62 C 225.17 368.37 226.07 366.03 226.85 363.66 Z" />
<path fill="#ffffff" opacity="1.00" d=" M 104.53 365.52 C 106.69 365.95 109.12 365.75 111.04 366.94 C 113.72 369.59 115.53 373.10 118.72 375.24 C 122.76 378.17 127.92 378.55 132.33 380.65 C 135.37 382.31 136.97 385.56 138.72 388.39 C 135.07 388.98 131.97 385.73 128.43 385.02 C 123.34 382.84 118.31 380.42 113.73 377.28 C 109.55 374.38 106.81 369.97 104.53 365.52 Z" />
<path fill="#ffffff" opacity="1.00" d=" M 241.89 366.79 C 243.77 365.74 246.06 365.91 248.14 365.56 C 245.81 369.86 243.21 374.25 239.14 377.14 C 234.55 380.40 229.42 382.83 224.25 385.01 C 220.05 386.47 215.30 387.57 212.73 391.60 C 214.40 387.90 215.97 383.84 219.27 381.28 C 223.69 378.58 229.24 378.49 233.53 375.51 C 236.93 373.23 238.99 369.58 241.89 366.79 Z" />
<path fill="#ffffff" opacity="1.00" d=" M 271.78 368.78 C 273.29 367.92 274.79 367.05 276.27 366.15 C 277.80 370.26 277.53 374.72 277.96 379.02 C 278.67 389.13 279.48 399.59 276.51 409.44 C 274.92 414.26 272.65 419.43 268.10 422.13 C 264.61 424.24 260.22 422.83 256.64 424.46 C 254.17 427.45 252.63 431.09 250.08 434.04 C 246.89 431.61 243.71 429.18 240.46 426.84 C 242.22 426.06 243.97 425.23 245.86 424.81 C 248.48 424.44 251.20 424.01 253.33 422.30 C 261.20 416.39 266.73 407.52 269.02 397.99 C 270.59 391.73 269.69 385.27 269.52 378.92 C 270.91 375.70 271.54 372.26 271.78 368.78 Z" />
<path fill="#ffffff" opacity="1.00" d=" M 76.00 367.01 C 77.50 367.45 78.99 367.91 80.49 368.38 C 81.26 372.53 81.83 376.72 83.03 380.78 C 82.79 385.49 82.29 390.25 83.06 394.94 C 84.68 405.53 90.54 415.40 98.95 422.01 C 101.22 423.96 104.21 424.45 107.07 424.81 C 108.87 425.30 110.57 426.05 112.27 426.79 C 109.00 429.13 105.82 431.61 102.58 434.00 C 99.90 430.96 98.42 427.05 95.63 424.13 C 92.08 423.17 88.13 424.03 84.78 422.27 C 80.90 420.06 78.61 415.96 77.01 411.93 C 73.44 402.31 73.66 391.82 74.53 381.75 C 75.01 376.84 74.72 371.81 76.00 367.01 Z" />
</g>
<g id="#1d345eff">
<path fill="#1d345e" opacity="1.00" d=" M 159.70 29.10 C 162.87 19.43 165.80 9.68 169.25 0.11 C 173.20 9.51 176.65 19.11 180.37 28.60 C 190.30 28.95 200.24 28.82 210.16 29.32 C 202.52 35.47 194.46 41.10 186.70 47.10 C 189.60 56.75 192.97 66.26 195.67 75.96 C 186.77 70.57 178.13 64.75 169.28 59.28 C 160.73 65.71 152.17 72.13 143.48 78.37 C 146.61 67.95 150.34 57.73 153.65 47.37 C 145.29 41.39 136.87 35.49 128.66 29.30 C 139.00 28.95 149.35 29.27 159.70 29.10 Z" />
<path fill="#1d345e" opacity="1.00" d=" M 0.00 86.72 C 117.59 86.69 235.17 86.70 352.76 86.71 C 352.80 106.47 352.51 126.24 353.02 146.00 C 353.00 297.33 353.02 448.67 353.01 600.00 L 0.00 600.00 L 0.00 86.72 M 114.30 101.21 C 103.53 104.84 95.42 114.12 91.49 124.58 C 84.28 142.95 93.61 166.46 112.15 173.89 C 119.93 177.47 128.67 176.92 137.01 176.77 C 147.64 176.50 158.24 170.76 163.40 161.32 C 167.53 154.41 167.97 146.20 167.61 138.37 C 157.48 138.34 147.35 138.37 137.22 138.35 C 137.21 140.85 137.20 143.34 137.18 145.83 C 144.32 145.92 151.46 145.84 158.60 145.89 C 158.62 152.13 156.48 158.53 151.85 162.85 C 145.71 168.50 137.22 171.21 128.98 171.26 C 118.88 170.22 109.51 164.69 102.97 157.04 C 97.59 150.83 94.62 142.30 96.07 134.10 C 98.56 117.01 116.02 104.07 133.03 105.74 C 142.32 106.80 150.47 112.04 157.21 118.24 C 159.35 116.23 161.43 114.18 163.45 112.05 C 155.88 104.63 145.60 99.95 135.02 99.26 C 128.09 99.09 120.89 98.68 114.30 101.21 M 302.02 106.03 C 298.56 110.21 298.93 116.11 299.99 121.09 C 302.32 129.43 309.55 134.96 316.29 139.76 C 321.00 143.24 326.19 146.72 328.76 152.20 C 331.12 156.88 330.34 162.93 326.88 166.86 C 323.35 170.59 317.59 171.40 312.82 170.01 C 307.41 168.13 303.85 163.40 300.50 159.03 C 298.61 160.31 296.77 161.64 294.94 162.99 C 298.34 169.29 303.42 175.30 310.49 177.46 C 317.53 178.48 325.83 178.75 331.20 173.21 C 337.42 167.93 337.54 159.05 336.37 151.63 C 334.51 143.65 328.05 137.91 321.61 133.38 C 316.91 129.88 311.38 127.04 308.09 122.01 C 303.80 115.70 309.22 105.54 317.00 106.11 C 323.30 105.95 327.71 111.19 331.01 115.88 C 333.11 113.98 335.22 112.09 337.26 110.13 C 333.61 105.60 329.17 101.22 323.37 99.72 C 315.87 98.11 306.95 99.70 302.02 106.03 M 16.25 100.15 C 16.28 102.66 16.30 105.18 16.30 107.69 C 21.91 107.68 27.52 107.66 33.12 107.74 C 33.25 130.10 33.10 152.46 33.20 174.82 C 35.65 174.82 38.10 174.82 40.55 174.81 C 40.58 152.45 40.46 130.08 40.61 107.72 C 46.01 107.67 51.41 107.69 56.81 107.70 C 56.81 105.19 56.83 102.68 56.84 100.17 C 43.31 100.12 29.78 100.13 16.25 100.15 M 67.22 100.15 C 67.23 125.04 67.21 149.94 67.22 174.83 C 69.70 174.81 72.18 174.81 74.66 174.81 C 74.66 149.92 74.64 125.03 74.66 100.14 C 72.18 100.14 69.70 100.14 67.22 100.15 M 183.16 100.14 C 183.15 125.04 183.17 149.93 183.15 174.82 C 185.40 174.82 187.65 174.83 189.90 174.86 C 189.70 163.45 190.06 152.06 190.77 140.68 C 192.52 141.12 194.35 141.32 196.03 142.00 C 197.40 143.29 198.46 144.87 199.57 146.39 C 206.34 155.96 213.34 165.36 220.21 174.87 C 223.26 174.86 226.32 174.85 229.37 174.78 C 221.45 163.59 213.14 152.68 205.01 141.64 C 214.52 141.65 225.50 137.10 228.46 127.31 C 229.08 121.24 229.94 114.21 225.98 109.03 C 221.39 102.99 213.56 99.72 206.04 100.10 C 198.41 100.15 190.78 100.11 183.16 100.14 M 246.46 100.19 C 246.50 125.06 246.49 149.92 246.46 174.78 C 260.61 174.88 274.75 174.81 288.90 174.82 C 288.90 172.59 288.92 170.35 288.93 168.12 C 282.29 168.04 275.64 168.15 269.00 168.08 C 264.14 167.65 259.26 167.45 254.38 167.47 C 253.78 158.15 253.75 148.82 254.42 139.50 C 265.24 138.91 276.06 138.73 286.90 138.87 C 286.90 136.62 286.92 134.38 286.94 132.13 C 276.10 132.03 265.26 132.38 254.44 131.68 C 254.01 123.71 253.72 115.75 253.89 107.76 C 265.79 107.59 277.69 107.75 289.59 107.67 C 289.59 105.17 289.61 102.68 289.64 100.19 C 275.24 100.09 260.85 100.09 246.46 100.19 M 11.18 187.14 C 11.16 199.72 11.20 212.30 11.16 224.88 C 16.41 225.62 22.78 224.87 26.52 229.49 C 31.52 235.92 28.70 244.56 30.03 252.00 C 30.23 298.66 30.02 345.33 30.13 391.99 C 29.91 410.15 33.48 428.40 40.85 445.02 C 50.42 466.84 67.03 485.35 87.34 497.73 C 109.46 511.30 135.26 518.06 161.01 519.72 C 176.98 519.90 193.08 520.57 208.91 517.98 C 231.38 514.69 253.55 507.31 272.34 494.35 C 285.57 485.10 296.98 473.15 305.21 459.24 C 314.99 442.50 320.88 423.39 321.84 404.02 C 321.95 357.68 321.85 311.34 321.89 265.00 C 321.94 260.01 321.67 255.00 322.16 250.02 C 322.72 243.93 321.44 237.28 324.83 231.79 C 327.23 227.51 332.25 226.02 336.75 225.15 C 336.95 212.48 336.79 199.81 336.84 187.14 C 299.95 187.15 263.05 187.15 226.16 187.13 C 226.04 217.11 226.18 247.09 226.10 277.07 C 210.90 268.78 194.65 261.00 177.02 260.41 C 159.44 259.69 143.07 267.45 127.92 275.51 C 127.70 246.06 127.88 216.62 127.84 187.17 C 88.95 187.11 50.07 187.15 11.18 187.14 M 79.39 530.20 C 79.42 544.13 79.40 558.06 79.38 571.99 C 79.12 579.22 85.52 585.43 92.41 586.48 C 98.20 587.13 104.64 587.19 109.59 583.64 C 112.96 581.18 116.16 577.48 115.89 573.04 C 115.89 558.74 115.90 544.43 115.87 530.13 C 114.63 530.11 113.38 530.11 112.14 530.10 C 112.12 542.74 112.12 555.38 112.14 568.03 C 112.04 570.46 112.04 572.96 111.30 575.31 C 107.10 581.91 97.98 583.18 91.02 580.89 C 87.28 579.55 83.35 576.30 83.65 571.95 C 83.63 565.63 83.68 559.29 82.96 553.00 C 82.86 545.37 82.99 537.73 82.90 530.10 C 81.73 530.13 80.56 530.16 79.39 530.20 M 123.90 586.74 C 126.17 586.76 128.45 586.77 130.73 586.77 C 133.69 580.63 136.68 574.51 139.49 568.30 C 147.96 567.54 156.46 567.93 164.95 567.87 C 167.97 574.00 170.61 580.32 173.93 586.29 C 176.05 587.17 178.49 586.65 180.75 586.84 C 171.36 567.90 161.71 549.10 152.24 530.20 C 142.61 548.95 133.17 567.81 123.90 586.74 M 228.12 530.13 C 227.92 544.68 228.60 559.24 227.61 573.76 C 214.18 559.74 201.45 545.06 188.20 530.86 C 188.00 549.51 188.12 568.18 188.13 586.84 C 189.35 586.82 190.58 586.80 191.82 586.80 C 191.95 572.37 191.71 557.93 191.97 543.51 C 205.63 557.37 218.36 572.16 231.75 586.31 C 232.03 567.58 231.82 548.84 231.88 530.10 C 230.62 530.11 229.37 530.12 228.12 530.13 M 247.24 530.14 C 247.20 549.02 247.25 567.90 247.22 586.78 C 256.02 586.77 264.82 586.81 273.62 586.75 C 273.63 585.21 273.65 583.68 273.68 582.16 C 266.32 582.09 258.96 582.15 251.60 582.11 C 251.40 564.82 251.54 547.52 251.54 530.23 C 250.10 530.20 248.67 530.16 247.24 530.14 M 40.41 531.79 C 37.94 538.33 36.05 545.08 33.72 551.67 C 26.77 552.00 19.83 552.20 12.88 552.22 C 18.48 556.18 24.01 560.23 29.62 564.17 C 27.50 571.18 24.85 578.02 22.96 585.10 C 28.99 581.44 34.13 576.49 40.20 572.93 C 46.86 575.68 52.33 580.66 58.70 584.02 C 56.68 577.34 54.61 570.68 52.44 564.05 C 57.69 559.92 63.26 556.20 68.36 551.86 C 61.61 551.40 54.84 551.61 48.09 551.28 C 45.55 544.77 43.26 538.16 40.41 531.79 M 307.50 531.77 C 305.29 538.38 303.22 545.04 300.99 551.65 C 294.16 551.82 287.34 552.20 280.51 552.27 C 285.74 556.50 291.36 560.21 296.77 564.20 C 294.76 571.31 292.00 578.18 290.04 585.30 C 296.13 581.25 301.73 576.53 307.82 572.50 C 313.79 576.43 319.80 580.31 325.93 584.00 C 323.90 577.32 321.72 570.68 319.71 564.00 C 324.75 560.09 329.98 556.43 334.93 552.40 C 328.50 551.55 322.00 551.49 315.52 551.32 C 312.60 544.90 310.58 538.12 307.50 531.77 Z" />
<path fill="#1d345e" opacity="1.00" d=" M 190.56 107.73 C 197.06 107.73 203.56 107.57 210.06 107.73 C 214.65 107.89 219.54 109.97 221.64 114.28 C 224.39 120.67 222.44 129.79 215.25 132.25 C 207.36 134.95 198.75 133.12 190.55 133.54 C 190.48 124.94 190.46 116.33 190.56 107.73 Z" />
<path fill="#1d345e" opacity="1.00" d=" M 47.19 252.16 C 51.11 246.68 58.36 244.02 64.94 245.11 C 77.56 246.37 89.45 251.40 100.37 257.65 C 102.95 259.01 105.38 260.78 108.20 261.62 C 111.41 261.19 114.32 259.57 117.42 258.70 C 117.53 262.37 117.87 267.01 114.50 269.42 C 110.94 271.25 106.52 270.79 103.12 268.81 C 94.72 264.19 87.53 257.74 79.83 252.09 C 77.62 250.28 74.47 249.41 71.77 250.62 C 68.48 252.35 66.01 255.95 61.98 255.93 C 58.11 256.72 53.17 254.79 50.28 258.29 C 46.58 261.36 46.86 266.99 42.94 269.85 C 41.56 263.65 43.61 257.23 47.19 252.16 Z" />
<path fill="#1d345e" opacity="1.00" d=" M 248.71 259.66 C 260.81 252.58 273.88 246.31 288.06 245.14 C 294.18 244.10 300.72 246.53 304.72 251.27 C 308.89 256.16 310.58 262.72 310.20 269.06 C 309.55 268.93 308.24 268.67 307.59 268.54 C 306.19 264.09 304.60 259.15 300.34 256.61 C 295.41 255.28 289.40 257.48 285.24 253.73 C 282.44 251.27 278.58 248.68 274.83 250.84 C 265.82 256.67 258.13 264.49 248.48 269.36 C 245.39 270.88 241.46 271.09 238.38 269.48 C 234.75 267.35 235.58 262.59 234.86 259.07 C 239.38 259.77 244.36 262.45 248.71 259.66 Z" />
<path fill="#1d345e" opacity="1.00" d=" M 157.39 279.44 C 161.64 277.56 164.78 273.94 168.72 271.52 C 167.68 274.20 166.05 276.87 166.38 279.86 C 166.69 283.78 167.67 287.63 167.47 291.59 C 162.89 290.64 158.28 288.33 153.52 289.46 C 148.08 291.04 143.32 294.47 137.77 295.70 C 134.44 296.38 130.35 293.74 127.66 296.59 C 120.46 303.49 113.80 310.97 107.77 318.91 C 105.13 322.40 102.36 325.98 101.11 330.23 C 100.52 333.07 103.63 335.17 103.50 337.93 C 102.29 341.46 97.77 343.70 98.77 347.90 C 99.42 352.10 100.29 357.48 104.74 359.32 C 112.28 362.07 120.57 357.73 128.06 361.02 C 134.63 363.35 138.61 369.51 141.30 375.59 C 142.70 378.71 145.74 380.60 147.65 383.37 C 150.34 387.20 152.20 392.12 150.90 396.80 C 149.96 401.49 147.84 405.85 145.15 409.78 C 143.59 402.49 141.55 395.28 138.72 388.39 C 136.97 385.56 135.37 382.31 132.33 380.65 C 127.92 378.55 122.76 378.17 118.72 375.24 C 115.53 373.10 113.72 369.59 111.04 366.94 C 109.12 365.75 106.69 365.95 104.53 365.52 C 106.81 369.97 109.55 374.38 113.73 377.28 C 118.31 380.42 123.34 382.84 128.43 385.02 C 125.06 388.34 120.24 391.26 115.36 389.69 C 111.80 388.83 111.70 384.54 110.03 381.92 C 107.80 379.71 104.22 379.39 102.25 376.83 C 100.80 375.40 99.73 372.74 97.25 373.33 C 93.53 374.17 92.26 378.41 91.05 381.57 C 93.24 382.86 95.63 383.88 97.57 385.56 C 97.60 389.26 95.98 392.76 96.05 396.49 C 102.83 400.98 109.85 405.14 117.40 408.17 C 115.92 414.74 111.53 420.00 107.07 424.81 C 104.21 424.45 101.22 423.96 98.95 422.01 C 90.54 415.40 84.68 405.53 83.06 394.94 C 82.29 390.25 82.79 385.49 83.03 380.78 C 83.97 377.17 85.22 373.51 87.55 370.54 C 89.48 368.03 92.66 367.16 95.52 366.17 C 92.61 362.83 89.39 358.90 90.34 354.13 C 91.21 349.95 92.35 345.78 91.92 341.44 C 88.64 343.29 85.48 345.38 81.97 346.76 C 83.01 339.95 86.86 334.11 90.24 328.28 C 96.01 318.72 102.06 309.33 107.80 299.75 C 110.31 295.78 113.10 291.49 117.61 289.60 C 121.85 287.68 126.72 288.66 131.04 287.10 C 136.49 284.40 139.41 278.21 145.15 275.97 C 149.50 275.76 152.87 280.79 157.39 279.44 M 121.89 362.66 C 120.85 366.15 121.03 370.41 124.17 372.81 C 127.74 375.76 132.91 374.38 135.84 371.19 C 134.53 369.58 133.17 368.01 131.79 366.46 C 130.84 367.84 129.91 369.24 128.95 370.62 C 127.89 368.36 127.00 366.03 126.25 363.65 C 124.80 363.31 123.34 362.98 121.89 362.66 Z" />
<path fill="#1d345e" opacity="1.00" d=" M 184.15 271.52 C 187.76 274.02 190.85 277.29 194.79 279.28 C 199.25 280.98 202.76 276.44 206.96 275.82 C 213.17 277.75 215.98 284.63 221.85 287.18 C 226.25 288.55 231.13 287.72 235.37 289.74 C 240.35 291.86 242.99 296.91 245.79 301.23 C 252.08 311.87 258.95 322.15 265.13 332.85 C 267.64 337.17 269.98 341.71 270.58 346.75 C 266.92 345.22 263.62 342.99 260.02 341.33 C 259.58 347.06 263.24 352.25 262.27 357.98 C 261.52 361.16 259.25 363.65 257.25 366.13 C 259.92 367.09 262.90 367.89 264.77 370.20 C 266.91 372.76 268.28 375.85 269.52 378.92 C 269.69 385.27 270.59 391.73 269.02 397.99 C 266.73 407.52 261.20 416.39 253.33 422.30 C 251.20 424.01 248.48 424.44 245.86 424.81 C 240.84 420.28 236.86 414.56 235.17 407.95 C 242.80 405.23 250.05 401.20 256.45 396.29 C 256.99 392.56 255.35 388.98 254.83 385.34 C 257.11 384.05 259.46 382.85 261.80 381.65 C 260.40 378.57 259.22 374.59 255.73 373.35 C 253.30 372.65 252.00 375.16 250.53 376.57 C 248.54 379.11 245.22 379.83 242.77 381.77 C 241.37 384.11 240.98 387.03 239.04 389.04 C 233.89 391.79 227.94 388.83 224.25 385.01 C 229.42 382.83 234.55 380.40 239.14 377.14 C 243.21 374.25 245.81 369.86 248.14 365.56 C 246.06 365.91 243.77 365.74 241.89 366.79 C 238.99 369.58 236.93 373.23 233.53 375.51 C 229.24 378.49 223.69 378.58 219.27 381.28 C 215.97 383.84 214.40 387.90 212.73 391.60 C 210.35 397.47 209.11 403.70 207.18 409.72 C 203.30 402.98 199.19 394.58 202.96 386.90 C 204.55 382.15 209.48 379.80 211.53 375.39 C 214.17 368.99 218.67 362.72 225.62 360.66 C 232.71 358.09 240.32 361.79 247.44 359.52 C 252.30 357.90 253.28 352.13 253.90 347.72 C 254.89 343.28 249.53 341.18 249.08 337.12 C 249.73 334.99 251.36 333.25 251.74 331.04 C 250.79 326.56 247.79 322.89 245.15 319.28 C 239.77 311.94 233.60 305.25 227.28 298.73 C 225.83 297.30 224.39 295.82 222.64 294.76 C 219.90 295.02 217.20 296.27 214.42 295.63 C 209.20 294.23 204.59 291.23 199.47 289.55 C 194.67 288.26 189.96 290.58 185.32 291.52 C 185.19 284.85 187.25 277.83 184.15 271.52 M 226.85 363.66 C 226.07 366.03 225.17 368.37 224.09 370.62 C 223.12 369.24 222.18 367.84 221.23 366.46 C 219.86 368.01 218.52 369.59 217.23 371.21 C 220.04 374.12 224.61 375.66 228.25 373.27 C 231.97 371.13 232.33 366.33 231.14 362.63 C 229.70 362.96 228.27 363.30 226.85 363.66 Z" />
<path fill="#1d345e" opacity="1.00" d=" M 40.73 278.04 C 41.51 278.15 43.09 278.36 43.88 278.47 C 45.58 282.14 46.54 286.11 48.27 289.77 C 50.36 293.73 54.62 295.68 58.30 297.86 C 61.97 299.88 64.17 303.57 66.88 306.62 C 74.09 300.41 81.74 294.61 90.22 290.22 C 93.89 288.18 98.32 287.77 102.38 288.65 C 105.47 290.17 104.83 294.42 103.94 297.13 C 100.70 305.43 94.35 311.97 88.23 318.24 C 78.29 328.65 68.13 338.98 59.79 350.76 C 56.36 355.44 54.64 361.21 54.47 366.97 C 54.25 374.32 54.45 381.69 55.27 389.00 C 56.30 399.10 52.36 409.23 45.88 416.87 C 44.44 418.75 42.03 419.15 39.88 419.67 C 39.59 416.12 39.76 412.56 40.14 409.03 C 40.78 398.37 40.34 387.67 41.29 377.03 C 41.75 370.38 41.25 363.67 41.97 357.05 C 43.79 349.26 50.82 344.38 57.00 340.06 C 65.73 334.66 72.41 326.66 78.55 318.58 C 82.28 313.52 86.43 307.96 85.76 301.30 C 83.28 301.28 80.54 300.82 78.38 302.35 C 72.90 305.83 68.47 310.64 63.80 315.08 C 59.55 312.02 55.06 309.29 51.00 305.97 C 48.42 303.99 47.99 300.61 47.09 297.71 C 46.06 293.87 42.59 291.21 41.79 287.28 C 41.23 284.22 41.16 281.11 40.73 278.04 Z" />
<path fill="#1d345e" opacity="1.00" d=" M 302.96 291.98 C 306.81 287.64 305.74 280.28 311.23 277.22 C 311.63 281.00 311.92 284.98 310.48 288.59 C 309.34 291.81 306.63 294.20 305.68 297.50 C 304.70 300.37 304.36 303.76 301.83 305.78 C 297.80 309.23 293.21 311.95 288.93 315.07 C 284.20 310.79 279.88 305.99 274.52 302.47 C 272.40 300.92 269.66 301.27 267.20 301.18 C 267.09 304.74 267.24 308.51 269.34 311.55 C 275.03 320.60 281.93 328.96 290.01 335.98 C 297.16 341.61 306.33 346.04 310.03 354.88 C 312.13 363.75 310.96 372.99 311.61 382.03 C 312.51 394.36 311.94 406.75 313.26 419.05 C 312.38 419.19 310.62 419.45 309.75 419.58 C 302.24 412.98 297.34 403.08 297.44 393.01 C 297.70 383.67 298.09 374.32 297.83 364.97 C 297.80 359.18 295.24 353.75 291.78 349.23 C 282.44 336.72 271.51 325.53 260.66 314.36 C 255.54 308.60 249.97 302.53 248.12 294.85 C 247.16 292.04 248.80 288.19 252.13 288.32 C 257.37 287.53 262.26 289.82 266.59 292.49 C 273.48 296.58 279.89 301.43 285.87 306.75 C 287.95 304.23 289.72 301.41 292.23 299.28 C 295.70 296.70 300.04 295.29 302.96 291.98 Z" />
<path fill="#1d345e" opacity="1.00" d=" M 153.43 313.82 C 158.62 307.19 165.01 301.39 172.70 297.82 C 172.90 301.65 170.99 304.89 169.29 308.14 C 169.90 311.24 172.68 314.09 171.40 317.40 C 168.77 321.69 164.31 324.38 160.49 327.51 C 156.62 330.84 151.24 329.34 146.62 329.34 C 146.22 327.43 145.81 325.52 145.40 323.61 C 140.82 325.92 137.05 329.64 132.11 331.22 C 128.86 332.42 125.11 335.02 125.32 338.90 C 126.27 346.08 133.64 350.49 134.39 357.73 C 124.28 357.56 115.75 350.40 111.18 341.82 C 108.94 337.85 111.06 333.32 112.22 329.36 C 113.22 330.30 114.21 331.26 115.19 332.23 C 122.34 325.65 130.51 319.93 139.67 316.55 C 143.11 315.53 146.63 314.77 150.18 314.29 C 150.34 316.97 150.45 319.65 150.64 322.32 C 152.05 321.17 153.52 320.07 154.69 318.66 C 154.87 316.94 153.95 315.39 153.43 313.82 Z" />
<path fill="#1d345e" opacity="1.00" d=" M 179.73 297.77 C 187.60 301.29 194.16 307.15 199.37 313.96 C 198.64 315.35 197.92 316.74 197.21 318.14 C 198.65 319.50 200.11 320.83 201.58 322.16 C 201.82 319.58 202.13 317.00 202.35 314.42 C 207.12 314.72 211.76 316.11 216.19 317.87 C 224.01 321.30 231.03 326.32 237.32 332.06 C 238.40 331.21 239.47 330.36 240.57 329.53 C 241.71 333.59 243.77 338.26 241.27 342.24 C 236.59 350.63 228.08 357.74 218.05 357.66 C 219.07 350.29 227.27 345.83 226.91 338.11 C 227.06 334.27 223.18 332.15 220.07 330.99 C 215.21 329.40 211.59 325.56 206.87 323.71 C 206.64 325.59 206.42 327.48 206.19 329.37 C 201.60 329.32 196.27 330.84 192.39 327.62 C 188.74 324.64 184.52 322.10 181.75 318.22 C 179.45 314.93 182.76 311.51 183.37 308.20 C 181.68 304.89 179.89 301.59 179.73 297.77 Z" />
<path fill="#1d345e" opacity="1.00" d=" M 62.07 379.98 C 61.24 367.27 69.82 356.53 78.14 347.88 C 77.33 350.46 75.93 353.01 76.13 355.79 C 76.73 357.63 77.89 359.22 78.80 360.92 C 77.82 362.93 76.77 364.90 76.00 367.01 C 74.72 371.81 75.01 376.84 74.53 381.75 C 73.66 391.82 73.44 402.31 77.01 411.93 C 78.61 415.96 80.90 420.06 84.78 422.27 C 88.13 424.03 92.08 423.17 95.63 424.13 C 98.42 427.05 99.90 430.96 102.58 434.00 C 105.82 431.61 109.00 429.13 112.27 426.79 C 117.01 423.46 122.03 420.55 127.07 417.72 C 117.35 430.15 111.34 444.93 106.46 459.81 C 102.81 457.34 100.19 453.76 97.84 450.10 C 98.65 447.88 100.16 445.72 99.90 443.26 C 98.36 440.45 96.22 438.00 94.74 435.15 C 88.25 434.72 81.29 436.58 75.17 433.74 C 71.01 430.70 73.23 424.48 70.34 420.62 C 67.18 416.36 65.14 411.32 64.59 406.03 C 64.20 400.87 66.44 396.00 66.74 390.89 C 67.47 386.50 61.91 384.38 62.07 379.98 Z" />
<path fill="#1d345e" opacity="1.00" d=" M 274.87 348.42 C 283.17 356.77 291.46 367.42 290.51 379.89 C 290.60 383.32 287.60 385.49 286.20 388.31 C 285.33 394.63 288.80 400.64 287.91 406.97 C 287.38 411.88 285.30 416.49 282.40 420.45 C 279.38 424.27 281.58 430.37 277.66 433.58 C 272.01 436.67 265.34 434.62 259.25 435.19 C 257.83 435.05 257.33 436.70 256.53 437.54 C 255.09 439.70 253.29 441.64 252.09 443.96 C 252.75 446.08 253.89 448.01 254.80 450.05 C 252.48 453.76 249.80 457.30 246.26 459.92 C 241.30 445.10 235.54 430.17 225.57 417.91 C 230.78 420.45 235.75 423.47 240.46 426.84 C 243.71 429.18 246.89 431.61 250.08 434.04 C 252.63 431.09 254.17 427.45 256.64 424.46 C 260.22 422.83 264.61 424.24 268.10 422.13 C 272.65 419.43 274.92 414.26 276.51 409.44 C 279.48 399.59 278.67 389.13 277.96 379.02 C 277.53 374.72 277.80 370.26 276.27 366.15 C 275.65 364.40 274.74 362.75 274.27 360.96 C 274.45 358.81 276.52 357.28 276.71 355.13 C 276.46 352.81 275.50 350.64 274.87 348.42 Z" />
<path fill="#1d345e" opacity="1.00" d=" M 153.83 452.68 C 156.05 452.96 158.30 453.11 160.46 453.69 C 164.66 455.16 167.76 458.96 172.24 459.71 C 176.25 460.15 180.54 460.13 184.15 458.09 C 188.34 455.84 192.28 452.86 197.18 452.37 C 197.67 454.69 199.19 457.29 197.75 459.56 C 194.56 465.04 188.61 467.89 184.12 472.12 C 181.10 475.15 178.82 478.81 176.01 482.02 C 172.79 479.19 170.42 475.60 167.58 472.43 C 163.67 467.99 158.81 464.52 154.93 460.06 C 153.03 458.05 153.89 455.15 153.83 452.68 Z" />
<path fill="#1d345e" opacity="1.00" d=" M 142.15 563.17 C 145.35 556.04 148.38 548.79 152.35 542.05 C 155.77 549.02 159.29 555.97 162.39 563.10 C 155.64 563.24 148.89 563.17 142.15 563.17 Z" />
</g>
<g id="#f4bd01ff">
<path fill="#f4bd01" opacity="1.00" d=" M 114.30 101.21 C 120.89 98.68 128.09 99.09 135.02 99.26 C 145.60 99.95 155.88 104.63 163.45 112.05 C 161.43 114.18 159.35 116.23 157.21 118.24 C 150.47 112.04 142.32 106.80 133.03 105.74 C 116.02 104.07 98.56 117.01 96.07 134.10 C 94.62 142.30 97.59 150.83 102.97 157.04 C 109.51 164.69 118.88 170.22 128.98 171.26 C 137.22 171.21 145.71 168.50 151.85 162.85 C 156.48 158.53 158.62 152.13 158.60 145.89 C 151.46 145.84 144.32 145.92 137.18 145.83 C 137.20 143.34 137.21 140.85 137.22 138.35 C 147.35 138.37 157.48 138.34 167.61 138.37 C 167.97 146.20 167.53 154.41 163.40 161.32 C 158.24 170.76 147.64 176.50 137.01 176.77 C 128.67 176.92 119.93 177.47 112.15 173.89 C 93.61 166.46 84.28 142.95 91.49 124.58 C 95.42 114.12 103.53 104.84 114.30 101.21 Z" />
<path fill="#f4bd01" opacity="1.00" d=" M 302.02 106.03 C 306.95 99.70 315.87 98.11 323.37 99.72 C 329.17 101.22 333.61 105.60 337.26 110.13 C 335.22 112.09 333.11 113.98 331.01 115.88 C 327.71 111.19 323.30 105.95 317.00 106.11 C 309.22 105.54 303.80 115.70 308.09 122.01 C 311.38 127.04 316.91 129.88 321.61 133.38 C 328.05 137.91 334.51 143.65 336.37 151.63 C 337.54 159.05 337.42 167.93 331.20 173.21 C 325.83 178.75 317.53 178.48 310.49 177.46 C 303.42 175.30 298.34 169.29 294.94 162.99 C 296.77 161.64 298.61 160.31 300.50 159.03 C 303.85 163.40 307.41 168.13 312.82 170.01 C 317.59 171.40 323.35 170.59 326.88 166.86 C 330.34 162.93 331.12 156.88 328.76 152.20 C 326.19 146.72 321.00 143.24 316.29 139.76 C 309.55 134.96 302.32 129.43 299.99 121.09 C 298.93 116.11 298.56 110.21 302.02 106.03 Z" />
<path fill="#f4bd01" opacity="1.00" d=" M 16.25 100.15 C 29.78 100.13 43.31 100.12 56.84 100.17 C 56.83 102.68 56.81 105.19 56.81 107.70 C 51.41 107.69 46.01 107.67 40.61 107.72 C 40.46 130.08 40.58 152.45 40.55 174.81 C 38.10 174.82 35.65 174.82 33.20 174.82 C 33.10 152.46 33.25 130.10 33.12 107.74 C 27.52 107.66 21.91 107.68 16.30 107.69 C 16.30 105.18 16.28 102.66 16.25 100.15 Z" />
<path fill="#f4bd01" opacity="1.00" d=" M 67.22 100.15 C 69.70 100.14 72.18 100.14 74.66 100.14 C 74.64 125.03 74.66 149.92 74.66 174.81 C 72.18 174.81 69.70 174.81 67.22 174.83 C 67.21 149.94 67.23 125.04 67.22 100.15 Z" />
<path fill="#f4bd01" opacity="1.00" d=" M 183.16 100.14 C 190.78 100.11 198.41 100.15 206.04 100.10 C 213.56 99.72 221.39 102.99 225.98 109.03 C 229.94 114.21 229.08 121.24 228.46 127.31 C 225.50 137.10 214.52 141.65 205.01 141.64 C 213.14 152.68 221.45 163.59 229.37 174.78 C 226.32 174.85 223.26 174.86 220.21 174.87 C 213.34 165.36 206.34 155.96 199.57 146.39 C 198.46 144.87 197.40 143.29 196.03 142.00 C 194.35 141.32 192.52 141.12 190.77 140.68 C 190.06 152.06 189.70 163.45 189.90 174.86 C 187.65 174.83 185.40 174.82 183.15 174.82 C 183.17 149.93 183.15 125.04 183.16 100.14 M 190.56 107.73 C 190.46 116.33 190.48 124.94 190.55 133.54 C 198.75 133.12 207.36 134.95 215.25 132.25 C 222.44 129.79 224.39 120.67 221.64 114.28 C 219.54 109.97 214.65 107.89 210.06 107.73 C 203.56 107.57 197.06 107.73 190.56 107.73 Z" />
<path fill="#f4bd01" opacity="1.00" d=" M 246.46 100.19 C 260.85 100.09 275.24 100.09 289.64 100.19 C 289.61 102.68 289.59 105.17 289.59 107.67 C 277.69 107.75 265.79 107.59 253.89 107.76 C 253.72 115.75 254.01 123.71 254.44 131.68 C 265.26 132.38 276.10 132.03 286.94 132.13 C 286.92 134.38 286.90 136.62 286.90 138.87 C 276.06 138.73 265.24 138.91 254.42 139.50 C 253.75 148.82 253.78 158.15 254.38 167.47 C 259.26 167.45 264.14 167.65 269.00 168.08 C 275.64 168.15 282.29 168.04 288.93 168.12 C 288.92 170.35 288.90 172.59 288.90 174.82 C 274.75 174.81 260.61 174.88 246.46 174.78 C 246.49 149.92 246.50 125.06 246.46 100.19 Z" />
<path fill="#f4bd01" opacity="1.00" d=" M 11.18 187.14 C 50.07 187.15 88.95 187.11 127.84 187.17 C 127.88 216.62 127.70 246.06 127.92 275.51 C 143.07 267.45 159.44 259.69 177.02 260.41 C 194.65 261.00 210.90 268.78 226.10 277.07 C 226.18 247.09 226.04 217.11 226.16 187.13 C 263.05 187.15 299.95 187.15 336.84 187.14 C 336.79 199.81 336.95 212.48 336.75 225.15 C 332.25 226.02 327.23 227.51 324.83 231.79 C 321.44 237.28 322.72 243.93 322.16 250.02 C 321.67 255.00 321.94 260.01 321.89 265.00 C 321.85 311.34 321.95 357.68 321.84 404.02 C 320.88 423.39 314.99 442.50 305.21 459.24 C 296.98 473.15 285.57 485.10 272.34 494.35 C 253.55 507.31 231.38 514.69 208.91 517.98 C 193.08 520.57 176.98 519.90 161.01 519.72 C 135.26 518.06 109.46 511.30 87.34 497.73 C 67.03 485.35 50.42 466.84 40.85 445.02 C 33.48 428.40 29.91 410.15 30.13 391.99 C 30.02 345.33 30.23 298.66 30.03 252.00 C 28.70 244.56 31.52 235.92 26.52 229.49 C 22.78 224.87 16.41 225.62 11.16 224.88 C 11.20 212.30 11.16 199.72 11.18 187.14 M 47.19 252.16 C 43.61 257.23 41.56 263.65 42.94 269.85 C 46.86 266.99 46.58 261.36 50.28 258.29 C 53.17 254.79 58.11 256.72 61.98 255.93 C 66.01 255.95 68.48 252.35 71.77 250.62 C 74.47 249.41 77.62 250.28 79.83 252.09 C 87.53 257.74 94.72 264.19 103.12 268.81 C 106.52 270.79 110.94 271.25 114.50 269.42 C 117.87 267.01 117.53 262.37 117.42 258.70 C 114.32 259.57 111.41 261.19 108.20 261.62 C 105.38 260.78 102.95 259.01 100.37 257.65 C 89.45 251.40 77.56 246.37 64.94 245.11 C 58.36 244.02 51.11 246.68 47.19 252.16 M 248.71 259.66 C 244.36 262.45 239.38 259.77 234.86 259.07 C 235.58 262.59 234.75 267.35 238.38 269.48 C 241.46 271.09 245.39 270.88 248.48 269.36 C 258.13 264.49 265.82 256.67 274.83 250.84 C 278.58 248.68 282.44 251.27 285.24 253.73 C 289.40 257.48 295.41 255.28 300.34 256.61 C 304.60 259.15 306.19 264.09 307.59 268.54 C 308.24 268.67 309.55 268.93 310.20 269.06 C 310.58 262.72 308.89 256.16 304.72 251.27 C 300.72 246.53 294.18 244.10 288.06 245.14 C 273.88 246.31 260.81 252.58 248.71 259.66 M 157.39 279.44 C 152.87 280.79 149.50 275.76 145.15 275.97 C 139.41 278.21 136.49 284.40 131.04 287.10 C 126.72 288.66 121.85 287.68 117.61 289.60 C 113.10 291.49 110.31 295.78 107.80 299.75 C 102.06 309.33 96.01 318.72 90.24 328.28 C 86.86 334.11 83.01 339.95 81.97 346.76 C 85.48 345.38 88.64 343.29 91.92 341.44 C 92.35 345.78 91.21 349.95 90.34 354.13 C 89.39 358.90 92.61 362.83 95.52 366.17 C 92.66 367.16 89.48 368.03 87.55 370.54 C 85.22 373.51 83.97 377.17 83.03 380.78 C 81.83 376.72 81.26 372.53 80.49 368.38 C 78.99 367.91 77.50 367.45 76.00 367.01 C 76.77 364.90 77.82 362.93 78.80 360.92 C 77.89 359.22 76.73 357.63 76.13 355.79 C 75.93 353.01 77.33 350.46 78.14 347.88 C 69.82 356.53 61.24 367.27 62.07 379.98 C 61.91 384.38 67.47 386.50 66.74 390.89 C 66.44 396.00 64.20 400.87 64.59 406.03 C 65.14 411.32 67.18 416.36 70.34 420.62 C 73.23 424.48 71.01 430.70 75.17 433.74 C 81.29 436.58 88.25 434.72 94.74 435.15 C 96.22 438.00 98.36 440.45 99.90 443.26 C 100.16 445.72 98.65 447.88 97.84 450.10 C 100.19 453.76 102.81 457.34 106.46 459.81 C 111.34 444.93 117.35 430.15 127.07 417.72 C 122.03 420.55 117.01 423.46 112.27 426.79 C 110.57 426.05 108.87 425.30 107.07 424.81 C 111.53 420.00 115.92 414.74 117.40 408.17 C 109.85 405.14 102.83 400.98 96.05 396.49 C 95.98 392.76 97.60 389.26 97.57 385.56 C 95.63 383.88 93.24 382.86 91.05 381.57 C 92.26 378.41 93.53 374.17 97.25 373.33 C 99.73 372.74 100.80 375.40 102.25 376.83 C 104.22 379.39 107.80 379.71 110.03 381.92 C 111.70 384.54 111.80 388.83 115.36 389.69 C 120.24 391.26 125.06 388.34 128.43 385.02 C 131.97 385.73 135.07 388.98 138.72 388.39 C 141.55 395.28 143.59 402.49 145.15 409.78 C 147.84 405.85 149.96 401.49 150.90 396.80 C 152.20 392.12 150.34 387.20 147.65 383.37 C 145.74 380.60 142.70 378.71 141.30 375.59 C 145.25 369.14 140.66 360.54 134.39 357.73 C 133.64 350.49 126.27 346.08 125.32 338.90 C 125.11 335.02 128.86 332.42 132.11 331.22 C 137.05 329.64 140.82 325.92 145.40 323.61 C 145.81 325.52 146.22 327.43 146.62 329.34 C 151.24 329.34 156.62 330.84 160.49 327.51 C 164.31 324.38 168.77 321.69 171.40 317.40 C 172.68 314.09 169.90 311.24 169.29 308.14 C 170.99 304.89 172.90 301.65 172.70 297.82 C 165.01 301.39 158.62 307.19 153.43 313.82 C 153.95 315.39 154.87 316.94 154.69 318.66 C 153.52 320.07 152.05 321.17 150.64 322.32 C 150.45 319.65 150.34 316.97 150.18 314.29 C 146.63 314.77 143.11 315.53 139.67 316.55 C 138.58 315.13 137.65 313.59 136.46 312.25 C 126.13 310.25 117.76 318.40 107.77 318.91 C 113.80 310.97 120.46 303.49 127.66 296.59 C 130.35 293.74 134.44 296.38 137.77 295.70 C 143.32 294.47 148.08 291.04 153.52 289.46 C 158.28 288.33 162.89 290.64 167.47 291.59 C 167.67 287.63 166.69 283.78 166.38 279.86 C 166.05 276.87 167.68 274.20 168.72 271.52 C 164.78 273.94 161.64 277.56 157.39 279.44 M 184.15 271.52 C 187.25 277.83 185.19 284.85 185.32 291.52 C 189.96 290.58 194.67 288.26 199.47 289.55 C 204.59 291.23 209.20 294.23 214.42 295.63 C 217.20 296.27 219.90 295.02 222.64 294.76 C 224.39 295.82 225.83 297.30 227.28 298.73 C 233.60 305.25 239.77 311.94 245.15 319.28 C 234.92 318.05 226.14 310.36 215.55 311.62 C 215.17 313.69 215.11 315.98 216.19 317.87 C 211.76 316.11 207.12 314.72 202.35 314.42 C 202.13 317.00 201.82 319.58 201.58 322.16 C 200.11 320.83 198.65 319.50 197.21 318.14 C 197.92 316.74 198.64 315.35 199.37 313.96 C 194.16 307.15 187.60 301.29 179.73 297.77 C 179.89 301.59 181.68 304.89 183.37 308.20 C 182.76 311.51 179.45 314.93 181.75 318.22 C 184.52 322.10 188.74 324.64 192.39 327.62 C 196.27 330.84 201.60 329.32 206.19 329.37 C 206.42 327.48 206.64 325.59 206.87 323.71 C 211.59 325.56 215.21 329.40 220.07 330.99 C 223.18 332.15 227.06 334.27 226.91 338.11 C 227.27 345.83 219.07 350.29 218.05 357.66 C 212.19 360.73 207.47 369.09 211.53 375.39 C 209.48 379.80 204.55 382.15 202.96 386.90 C 199.19 394.58 203.30 402.98 207.18 409.72 C 209.11 403.70 210.35 397.47 212.73 391.60 C 215.30 387.57 220.05 386.47 224.25 385.01 C 227.94 388.83 233.89 391.79 239.04 389.04 C 240.98 387.03 241.37 384.11 242.77 381.77 C 245.22 379.83 248.54 379.11 250.53 376.57 C 252.00 375.16 253.30 372.65 255.73 373.35 C 259.22 374.59 260.40 378.57 261.80 381.65 C 259.46 382.85 257.11 384.05 254.83 385.34 C 255.35 388.98 256.99 392.56 256.45 396.29 C 250.05 401.20 242.80 405.23 235.17 407.95 C 236.86 414.56 240.84 420.28 245.86 424.81 C 243.97 425.23 242.22 426.06 240.46 426.84 C 235.75 423.47 230.78 420.45 225.57 417.91 C 235.54 430.17 241.30 445.10 246.26 459.92 C 249.80 457.30 252.48 453.76 254.80 450.05 C 253.89 448.01 252.75 446.08 252.09 443.96 C 253.29 441.64 255.09 439.70 256.53 437.54 C 257.33 436.70 257.83 435.05 259.25 435.19 C 265.34 434.62 272.01 436.67 277.66 433.58 C 281.58 430.37 279.38 424.27 282.40 420.45 C 285.30 416.49 287.38 411.88 287.91 406.97 C 288.80 400.64 285.33 394.63 286.20 388.31 C 287.60 385.49 290.60 383.32 290.51 379.89 C 291.46 367.42 283.17 356.77 274.87 348.42 C 275.50 350.64 276.46 352.81 276.71 355.13 C 276.52 357.28 274.45 358.81 274.27 360.96 C 274.74 362.75 275.65 364.40 276.27 366.15 C 274.79 367.05 273.29 367.92 271.78 368.78 C 271.54 372.26 270.91 375.70 269.52 378.92 C 268.28 375.85 266.91 372.76 264.77 370.20 C 262.90 367.89 259.92 367.09 257.25 366.13 C 259.25 363.65 261.52 361.16 262.27 357.98 C 263.24 352.25 259.58 347.06 260.02 341.33 C 263.62 342.99 266.92 345.22 270.58 346.75 C 269.98 341.71 267.64 337.17 265.13 332.85 C 258.95 322.15 252.08 311.87 245.79 301.23 C 242.99 296.91 240.35 291.86 235.37 289.74 C 231.13 287.72 226.25 288.55 221.85 287.18 C 215.98 284.63 213.17 277.75 206.96 275.82 C 202.76 276.44 199.25 280.98 194.79 279.28 C 190.85 277.29 187.76 274.02 184.15 271.52 M 40.73 278.04 C 41.16 281.11 41.23 284.22 41.79 287.28 C 42.59 291.21 46.06 293.87 47.09 297.71 C 47.99 300.61 48.42 303.99 51.00 305.97 C 55.06 309.29 59.55 312.02 63.80 315.08 C 68.47 310.64 72.90 305.83 78.38 302.35 C 80.54 300.82 83.28 301.28 85.76 301.30 C 86.43 307.96 82.28 313.52 78.55 318.58 C 72.41 326.66 65.73 334.66 57.00 340.06 C 50.82 344.38 43.79 349.26 41.97 357.05 C 41.25 363.67 41.75 370.38 41.29 377.03 C 40.34 387.67 40.78 398.37 40.14 409.03 C 39.76 412.56 39.59 416.12 39.88 419.67 C 42.03 419.15 44.44 418.75 45.88 416.87 C 52.36 409.23 56.30 399.10 55.27 389.00 C 54.45 381.69 54.25 374.32 54.47 366.97 C 54.64 361.21 56.36 355.44 59.79 350.76 C 68.13 338.98 78.29 328.65 88.23 318.24 C 94.35 311.97 100.70 305.43 103.94 297.13 C 104.83 294.42 105.47 290.17 102.38 288.65 C 98.32 287.77 93.89 288.18 90.22 290.22 C 81.74 294.61 74.09 300.41 66.88 306.62 C 64.17 303.57 61.97 299.88 58.30 297.86 C 54.62 295.68 50.36 293.73 48.27 289.77 C 46.54 286.11 45.58 282.14 43.88 278.47 C 43.09 278.36 41.51 278.15 40.73 278.04 M 302.96 291.98 C 300.04 295.29 295.70 296.70 292.23 299.28 C 289.72 301.41 287.95 304.23 285.87 306.75 C 279.89 301.43 273.48 296.58 266.59 292.49 C 262.26 289.82 257.37 287.53 252.13 288.32 C 248.80 288.19 247.16 292.04 248.12 294.85 C 249.97 302.53 255.54 308.60 260.66 314.36 C 271.51 325.53 282.44 336.72 291.78 349.23 C 295.24 353.75 297.80 359.18 297.83 364.97 C 298.09 374.32 297.70 383.67 297.44 393.01 C 297.34 403.08 302.24 412.98 309.75 419.58 C 310.62 419.45 312.38 419.19 313.26 419.05 C 311.94 406.75 312.51 394.36 311.61 382.03 C 310.96 372.99 312.13 363.75 310.03 354.88 C 306.33 346.04 297.16 341.61 290.01 335.98 C 281.93 328.96 275.03 320.60 269.34 311.55 C 267.24 308.51 267.09 304.74 267.20 301.18 C 269.66 301.27 272.40 300.92 274.52 302.47 C 279.88 305.99 284.20 310.79 288.93 315.07 C 293.21 311.95 297.80 309.23 301.83 305.78 C 304.36 303.76 304.70 300.37 305.68 297.50 C 306.63 294.20 309.34 291.81 310.48 288.59 C 311.92 284.98 311.63 281.00 311.23 277.22 C 305.74 280.28 306.81 287.64 302.96 291.98 M 153.83 452.68 C 153.89 455.15 153.03 458.05 154.93 460.06 C 158.81 464.52 163.67 467.99 167.58 472.43 C 170.42 475.60 172.79 479.19 176.01 482.02 C 178.82 478.81 181.10 475.15 184.12 472.12 C 188.61 467.89 194.56 465.04 197.75 459.56 C 199.19 457.29 197.67 454.69 197.18 452.37 C 192.28 452.86 188.34 455.84 184.15 458.09 C 180.54 460.13 176.25 460.15 172.24 459.71 C 167.76 458.96 164.66 455.16 160.46 453.69 C 158.30 453.11 156.05 452.96 153.83 452.68 Z" />
<path fill="#f4bd01" opacity="1.00" d=" M 79.39 530.20 C 80.56 530.16 81.73 530.13 82.90 530.10 C 82.99 537.73 82.86 545.37 82.96 553.00 C 83.68 559.29 83.63 565.63 83.65 571.95 C 83.35 576.30 87.28 579.55 91.02 580.89 C 97.98 583.18 107.10 581.91 111.30 575.31 C 112.04 572.96 112.04 570.46 112.14 568.03 C 112.12 555.38 112.12 542.74 112.14 530.10 C 113.38 530.11 114.63 530.11 115.87 530.13 C 115.90 544.43 115.89 558.74 115.89 573.04 C 116.16 577.48 112.96 581.18 109.59 583.64 C 104.64 587.19 98.20 587.13 92.41 586.48 C 85.52 585.43 79.12 579.22 79.38 571.99 C 79.40 558.06 79.42 544.13 79.39 530.20 Z" />
<path fill="#f4bd01" opacity="1.00" d=" M 123.90 586.74 C 133.17 567.81 142.61 548.95 152.24 530.20 C 161.71 549.10 171.36 567.90 180.75 586.84 C 178.49 586.65 176.05 587.17 173.93 586.29 C 170.61 580.32 167.97 574.00 164.95 567.87 C 156.46 567.93 147.96 567.54 139.49 568.30 C 136.68 574.51 133.69 580.63 130.73 586.77 C 128.45 586.77 126.17 586.76 123.90 586.74 M 142.15 563.17 C 148.89 563.17 155.64 563.24 162.39 563.10 C 159.29 555.97 155.77 549.02 152.35 542.05 C 148.38 548.79 145.35 556.04 142.15 563.17 Z" />
<path fill="#f4bd01" opacity="1.00" d=" M 228.12 530.13 C 229.37 530.12 230.62 530.11 231.88 530.10 C 231.82 548.84 232.03 567.58 231.75 586.31 C 218.36 572.16 205.63 557.37 191.97 543.51 C 191.71 557.93 191.95 572.37 191.82 586.80 C 190.58 586.80 189.35 586.82 188.13 586.84 C 188.12 568.18 188.00 549.51 188.20 530.86 C 201.45 545.06 214.18 559.74 227.61 573.76 C 228.60 559.24 227.92 544.68 228.12 530.13 Z" />
<path fill="#f4bd01" opacity="1.00" d=" M 247.24 530.14 C 248.67 530.16 250.10 530.20 251.54 530.23 C 251.54 547.52 251.40 564.82 251.60 582.11 C 258.96 582.15 266.32 582.09 273.68 582.16 C 273.65 583.68 273.63 585.21 273.62 586.75 C 264.82 586.81 256.02 586.77 247.22 586.78 C 247.25 567.90 247.20 549.02 247.24 530.14 Z" />
<path fill="#f4bd01" opacity="1.00" d=" M 40.41 531.79 C 43.26 538.16 45.55 544.77 48.09 551.28 C 54.84 551.61 61.61 551.40 68.36 551.86 C 63.26 556.20 57.69 559.92 52.44 564.05 C 54.61 570.68 56.68 577.34 58.70 584.02 C 52.33 580.66 46.86 575.68 40.20 572.93 C 34.13 576.49 28.99 581.44 22.96 585.10 C 24.85 578.02 27.50 571.18 29.62 564.17 C 24.01 560.23 18.48 556.18 12.88 552.22 C 19.83 552.20 26.77 552.00 33.72 551.67 C 36.05 545.08 37.94 538.33 40.41 531.79 Z" />
<path fill="#f4bd01" opacity="1.00" d=" M 307.50 531.77 C 310.58 538.12 312.60 544.90 315.52 551.32 C 322.00 551.49 328.50 551.55 334.93 552.40 C 329.98 556.43 324.75 560.09 319.71 564.00 C 321.72 570.68 323.90 577.32 325.93 584.00 C 319.80 580.31 313.79 576.43 307.82 572.50 C 301.73 576.53 296.13 581.25 290.04 585.30 C 292.00 578.18 294.76 571.31 296.77 564.20 C 291.36 560.21 285.74 556.50 280.51 552.27 C 287.34 552.20 294.16 551.82 300.99 551.65 C 303.22 545.04 305.29 538.38 307.50 531.77 Z" />
</g>
</svg>
