<?xml version="1.0" encoding="utf-8"?>
<!-- Generator: Adobe Illustrator 14.0.0, SVG Export Plug-In . SVG Version: 6.00 Build 43363)  -->
<!DOCTYPE svg PUBLIC "-//W3C//DTD SVG 1.1//EN" "http://www.w3.org/Graphics/SVG/1.1/DTD/svg11.dtd">
<svg version="1.1" id="Layer_1" xmlns="http://www.w3.org/2000/svg" xmlns:xlink="http://www.w3.org/1999/xlink" x="0px" y="0px"
	 width="501px" height="501px" viewBox="37.5 -34.5 501 501" enable-background="new 37.5 -34.5 501 501" xml:space="preserve">
<path fill="#00AEEF" d="M291.955-23.219c-0.696,0.306-62.076,18.417-102.107,21.1c-36.021,2.349-93.6-5.418-94.171-5.418
	l-6.274-0.99v154.81c0.111,1.986,1.912,42.722,6.957,68.828c7.131,35.644,12.76,55.581,29.052,86.355
	c18.115,34.872,33.472,52.382,60.997,78.736c23.306,22.386,40.059,32.744,65.264,48.582l7.393,4.725
	c12.489,7.767,23.453,14.844,29.087,18.284l3.682,2.193l3.003-1.75c0.953-0.443,17.56-11.132,29.637-18.728l7.377-4.725
	c25.367-15.838,42.06-26.196,65.261-48.582c27.669-26.354,43.026-43.864,61.264-78.736c16.033-30.774,21.65-50.711,28.788-86.355
	c5.315-26.106,6.954-66.842,6.954-68.6c0-0.229,0-148.708,0-148.708v-6.329l-6.169,0.99c-0.696,0-58.106,7.769-94.153,5.418
	C353.793-4.802,292.525-22.911,291.955-23.219"/>
<path fill="#DBB152" d="M288.502-33.443c-6.784,2.188-63.39,18.149-99.375,20.558c-27.543,1.8-68.568-2.471-90.572-5.176
	l-2.88-0.267l1.671,0.13l-18.73-2.945v167.694l0.045,0.867c0.648,13.3,2.657,46.721,7.107,69.739
	c7.369,36.846,13.176,57.375,30.115,89.352c18.644,35.9,34.523,54.158,63.063,81.481c23.611,22.676,41.146,33.697,65.424,48.949
	l1.556,0.979c-0.062-0.037,7.336,4.688,7.336,4.688c0.102,0.066,17.376,10.936,17.376,10.936l11.888,7.457
	c0.109,0.066,9.25,5.501,9.25,5.501s8.172-4.758,8.367-4.871c1.097-0.599,3.505-2.119,13.611-8.549l16.46-10.437
	c0.066-0.042,7.452-4.767,7.452-4.767c-0.094,0.066,0.582-0.368,0.582-0.368c25.621-16.001,42.545-26.576,66.351-49.546
	c28.522-27.172,44.452-45.403,63.324-81.494c16.611-31.867,22.623-53.282,29.816-89.234c5.448-26.751,7.163-67.721,7.163-70.724
	V-21.172l-18.654,2.979l1.695-0.134l-3.164,0.294c-37.966,4.643-70.033,6.467-90.288,5.148
	c-36.218-2.425-92.694-18.453-99.001-20.523l-3.326-1.092L288.502-33.443 M190.55,8.644c35.232-2.36,86.248-16.182,101.346-20.63
	C308.041-7,358.85,6.352,393.075,8.64c20.812,1.363,52.77-0.347,90.257-4.781c0,11.159,0,142.651,0,142.651
	c-0.076,4.217-1.874,42.528-6.743,66.456c-6.917,34.575-12.31,53.813-27.788,83.516c-17.558,33.588-31.815,49.886-59.13,75.906
	c-22.23,21.44-38.392,31.536-62.853,46.827l-0.679,0.428c-0.094,0.056-7.481,4.786-7.481,4.786
	c0.071-0.048-16.492,10.446-16.492,10.446s-7.301,4.62-10.305,6.518c-3.233-2.031-9.674-6.078-9.674-6.078L264.76,424.35
	c0.113,0.069-7.29-4.655-7.29-4.655c-0.059-0.038-1.625-1.027-1.625-1.027c-24.044-15.108-39.937-25.094-61.971-46.247
	c-27.291-26.137-41.5-42.456-58.89-75.921c-15.707-29.659-21.125-48.903-28.049-83.498c-4.288-22.202-6.233-56.62-6.732-66.636
	c0,0-0.004-0.18-0.015-0.351c0-0.512,0-131.019,0-142.155C123.684,6.644,162.913,10.442,190.55,8.644z"/>
<path fill="#FFFFFF" d="M291.874-4.972c2.407,0.666,58.115,17.176,98.233,19.984c36.248,2.301,85.407-4.366,87.653-4.657V148.57
	c-0.099,0.214-1.846,40.264-6.505,64.768c-6.662,32.502-11.324,51.086-27.061,81.214c-17.18,32.571-31.061,48.418-57.414,73.739
	c-21.87,20.87-37.716,30.79-61.704,45.824l-7.218,4.517c-11.688,7.325-25.68,16.283-25.984,16.283
	c-0.257,0-13.835-8.591-26.237-16.283l-7.189-4.517c-23.977-15.034-39.855-24.954-61.697-45.824
	c-26.392-25.321-40.23-41.168-57.298-73.739c-15.842-30.128-20.509-48.712-27.063-81.214c-5.07-24.504-6.657-64.554-6.657-64.99
	c0,0.222,0-138.064,0-138.064c2.402,0.364,51.294,7.03,87.686,4.731C233.395,12.204,289.364-4.306,291.874-4.972"/>
<path fill="#1A2D43" d="M291.874-16.221c-0.663,0.295-60.328,17.917-99.271,20.509c-35.017,2.287-90.989-5.265-91.533-5.265
	l-6.107-0.961v150.509c0.106,1.924,1.851,41.533,6.767,66.919c6.927,34.649,12.408,54.038,28.246,83.948
	c17.615,33.909,32.531,50.927,59.293,76.546c22.653,21.766,38.944,31.834,63.448,47.238l7.18,4.587
	c12.142,7.553,22.8,14.428,28.278,17.762l3.602,2.151l2.913-1.702c0.923-0.449,17.066-10.812,28.798-18.211l7.176-4.587
	c24.653-15.402,40.913-25.471,63.447-47.238c26.91-25.619,41.831-42.637,59.567-76.546c15.579-29.91,21.055-49.299,27.973-83.948
	c5.187-25.386,6.771-64.996,6.771-66.705c0-0.214,0-144.577,0-144.577v-6.146l-5.986,0.961c-0.672,0-56.485,7.553-91.542,5.265
	C351.99,1.695,292.439-15.926,291.874-16.221 M265.637,418.631l-7.189-4.517c-23.976-15.034-39.855-24.954-61.697-45.825
	c-26.392-25.321-40.23-41.169-57.298-73.738c-15.842-30.13-20.509-48.711-27.063-81.214c-5.07-24.505-6.657-64.556-6.657-64.991
	c0,0.223,0-138.065,0-138.065c2.402,0.365,51.294,7.031,87.686,4.731c39.976-2.809,95.946-19.318,98.457-19.984
	c2.407,0.666,58.117,17.176,98.235,19.984c36.245,2.301,85.406-4.366,87.653-4.657V148.57c-0.101,0.213-1.848,40.264-6.507,64.768
	c-6.662,32.502-11.323,51.086-27.058,81.214c-17.181,32.571-31.063,48.418-57.417,73.739c-21.87,20.87-37.714,30.79-61.702,45.824
	l-7.219,4.517c-11.689,7.325-25.681,16.283-25.984,16.283C291.618,434.915,278.039,426.324,265.637,418.631z"/>
<polyline fill="#A30036" points="127.604,33.595 126.271,103.923 456.596,103.923 456.453,35.007 415.024,34.859 391.453,36.19 
	357.587,32.41 320.27,24.796 292.698,16.346 264.555,23.157 228.99,32.856 195.154,34.711 163.182,35.598 127.604,33.595 "/>
<polyline fill="#1A2D43" points="331.999,267.163 331.999,385.095 320.27,392.132 305.872,402.044 305.872,267.163 331.999,267.163 
	"/>
<polyline fill="#1A2D43" points="384.63,267.163 384.63,342.97 374.127,353.478 358.397,366.356 358.397,267.163 384.63,267.163 "/>
<polyline fill="#1A2D43" points="436.091,267.163 419.688,295.738 410.88,310.841 410.88,267.163 436.091,267.163 "/>
<path fill="#A30036" d="M402.115,163.519h44.489c0,0,1.066-22.658-9.729-31.465c-10.924-8.884-18.655-13.694-42.24-13.252
	c-23.583,0.44-34.796,8.368-34.796,8.368s14.654,19.544,14.654,33.833c0,14.214-1.445,31.388-10.66,41.159l26.394,7.84
	c0,0,8.812,6.302-4.409,11.855c0,0-18.091,6.368-27.567-11.328l-17.99,38.719c0,0,17.207,9.764,42.642,6.888
	c25.46-2.96,46.114-9.709,57.445-38.278c0,0,12.104-32.431-23.057-44.12l-30.911-8.372c0,0-12.812-4.88-6.412-9.695
	c0,0,13.192-7.481,21.062,0.897L402.115,163.519"/>
<path fill="#1A2D43" d="M255.786,158.042l-43.564,98.532l45.569-70.55C257.791,186.023,254.456,171.737,255.786,158.042"/>
<path fill="#1A2D43" d="M257.791,186.023l-30.392,70.55l37.831-55.894C265.229,200.679,259.229,190.913,257.791,186.023"/>
<path fill="#1A2D43" d="M265.229,200.679l-22.096,56.415l32.902-44.126C276.036,212.967,265.229,203.198,265.229,200.679"/>
<path fill="#1A2D43" d="M287.615,204.605l-11.58,8.362l-17.171,44.566l27.826-36.269l-11.728,36.269l25.989-30.873l-10.404,31.909
	l24.653-30.942l-0.522-13.18c0,0,13.736-9.244,16.252-12.285l-23.055,9.778C307.875,211.939,295.105,210.529,287.615,204.605"/>
<polyline fill="#1A2D43" points="315.201,227.627 306.951,258.571 332.934,225.259 315.201,227.627 "/>
<path fill="#1A2D43" d="M334.407,224.223l-11.323,34.349l33.829-48.042C356.913,210.529,343.182,222.303,334.407,224.223"/>
<path fill="#1A2D43" d="M307.348,163.519l24.501,6.812l18.144-15.696c0,0,12.807,8.884,14.808,14.21c0,0,7.331-2.512,8.769-9.324
	c0,0,0.559,9.78-7.847,15.18l-5.33,18.132c0,0,0.929,13.328-3.478,17.697l-0.512-13.697l-21.995,0.446
	c0,0-1.068-18.214-2.923-20.137L307.348,163.519"/>
<path fill="#1A2D43" d="M316.162,107.036c0,0,25.982,0.518,38.752,15.175l-7.839,6.886c0,0,3.437,14.209,2.396,22.131
	c0,0-2.804-15.692-7.326-20.582c0,0-11.734-8.884-23.978-8.884C318.167,121.762,315.201,112.954,316.162,107.036"/>
<path fill="#A30036" d="M158.771,121.762l-14.657,81.953c0,0-4.002,29.913,8.407,40.2c0,0,10.097,14.144,46.488,12.221
	l56.776-100.018c0,0,6.399-23.1,21.179-33.906h-48.494l-14.81,81.954c0,0,0,8.292-9.18,8.292c0,0-8.916,0.963-7.472-7.852
	l14.66-82.845h-52.898"/>
<path fill="#1A2D43" d="M311.206,127.983c0,0-14.372,13.55-14.372,15.92c0,2.369,4.663,21.094,4.663,21.094l-19.054,17.327
	c0,0-0.564,17.839,3.439,22.206c0,0-8.656-10.215-8.258-24.131c0,0-8.77-7.699-9.178-9.183c-0.402-1.407-6.259,1.483-11.475,6.738
	v-2.886l9.22-8.585c0,0,1.331-13.926,5.184-22.065c0,0-1.848-11.627,5.32-17.839c0,0-3.474,10.594-1.479,13.996l17.892-1.046
	C293.106,139.531,308.833,128.576,311.206,127.983"/>
<path fill="#1A2D43" d="M291.874,20.936c0.412,0.156,38.945,12.884,78.916,17.031c32.914,3.556,81.138,1.185,81.659,1.185
	l0.559,118.669c0,0.071-1.225,34.72-5.597,55.888c-6.141,28.873-11.726,44.565-25.205,69.743
	c-14.508,27.234-25.43,41.749-48.642,64.477c-14.395,14.136-26.096,21.761-39.719,30.577c-5.993,3.995-12.244,8.07-19.43,13.176
	c-10.391,7.4-22.397,15.102-22.543,15.102c-0.257,0-12.366-7.699-22.766-15.102c-7.208-5.106-13.468-9.182-19.578-13.176
	c-13.472-8.816-25.208-16.441-39.604-30.577c-23.315-22.725-34.091-37.242-48.648-64.477c-13.424-25.178-19.019-40.87-25.013-69.743
	c-4.558-21.169-5.887-55.818-5.887-56.112c0,0.147,0-120.148,0-120.148c2.258,0.072,49.308,4.075,82.214,0.518
	C252.715,33.818,291.51,21.092,291.874,20.936v-8.439c-0.364,0.148-40.898,13.476-80.06,17.624
	c-32.239,3.257-84.507-1.042-85.03-1.042l-4.402-0.288v128.952c0,1.635,1.481,35.834,5.998,57.681
	c6.141,29.379,12.261,46.113,25.875,71.723c14.774,27.842,26.504,43.386,50.087,66.482c15.064,14.728,27.049,22.506,40.782,31.528
	c6,4.003,12.402,8.008,19.327,13.039c10.655,7.55,25.06,16.653,25.321,16.733l2.103,1.474l2.005-1.474
	c0.143-0.08,14.654-9.184,25.202-16.733c7.07-5.031,13.333-9.035,19.332-13.039c13.736-9.023,25.722-16.801,40.75-31.528
	c23.616-23.097,35.202-38.642,50.115-66.482c13.734-25.609,19.732-42.418,25.837-71.723c4.662-21.847,5.738-56.048,5.877-57.534
	c0-0.147-0.652-122.882-0.652-122.882v-4.072l-4.156,0.068c-0.512,0.074-52.227,2.374-84.462-0.883
	c-39.308-4.148-79.434-17.476-79.848-17.624L291.874,20.936"/>
<polyline fill="#FFFFFF" points="292.842,24.047 303.763,51.294 331.19,51.294 308.681,68.762 317.092,95.262 292.842,79.491 
	268.446,95.63 276.438,68.762 254.572,51.294 282.187,51.294 292.842,24.047 "/>
<polyline fill="#1A2D43" points="292.698,61.501 282.187,51.294 292.842,24.047 292.698,61.501 "/>
<polyline fill="#1A2D43" points="293.211,61.651 254.572,51.294 276.438,68.762 293.211,61.651 "/>
<polyline fill="#1A2D43" points="292.698,61.501 268.446,95.63 292.842,79.491 292.698,61.501 "/>
<polyline fill="#1A2D43" points="291.874,61.059 318.167,96.594 308.681,68.762 291.874,61.059 "/>
<polyline fill="#1A2D43" points="291.874,62.243 303.763,51.294 332.153,51.294 291.874,62.243 "/>
<polyline fill="#1A2D43" points="253.238,267.163 253.238,385.095 266.19,394.94 279.508,402.044 279.508,267.163 253.238,267.163 
	"/>
<polyline fill="#1A2D43" points="200.747,267.163 200.747,342.97 211.256,353.478 226.99,366.356 226.99,267.163 200.747,267.163 
	"/>
<polyline fill="#1A2D43" points="149.294,267.163 165.696,295.738 174.505,310.841 174.505,267.163 149.294,267.163 "/>
<polyline fill="#FFFFFF" points="403.44,42.258 411.429,62.686 432.209,62.686 415.29,75.716 421.539,95.63 403.44,83.715 
	385.155,95.85 391.037,75.716 374.795,62.686 395.449,62.686 403.44,42.258 "/>
<polyline fill="#1A2D43" points="403.296,70.235 395.449,62.686 403.44,42.258 403.296,70.235 "/>
<polyline fill="#1A2D43" points="403.704,70.391 374.795,62.686 391.037,75.716 403.704,70.391 "/>
<polyline fill="#1A2D43" points="403.296,70.235 385.155,95.85 403.44,83.715 403.296,70.235 "/>
<polyline fill="#1A2D43" points="402.777,69.943 422.208,96.594 415.29,75.716 402.777,69.943 "/>
<polyline fill="#1A2D43" points="402.777,70.978 411.429,62.686 432.873,62.686 402.777,70.978 "/>
<polyline fill="#FFFFFF" points="183.945,42.258 191.938,62.686 212.48,62.686 195.677,75.716 202.083,95.63 183.945,83.715 
	165.583,95.85 171.584,75.716 155.293,62.686 175.835,62.686 183.945,42.258 "/>
<polyline fill="#1A2D43" points="183.829,70.235 175.835,62.686 183.945,42.258 183.829,70.235 "/>
<polyline fill="#1A2D43" points="184.237,70.391 155.293,62.686 171.584,75.716 184.237,70.391 "/>
<polyline fill="#1A2D43" points="183.829,70.235 165.583,95.85 183.945,83.715 183.829,70.235 "/>
<polyline fill="#1A2D43" points="183.166,69.943 202.741,96.594 195.677,75.716 183.166,69.943 "/>
<polyline fill="#1A2D43" points="183.166,70.978 191.938,62.686 213.403,62.686 183.166,70.978 "/>
<path fill="#FFFFFF" d="M445.035,378.079c8.116,0,14.579,6.589,14.579,14.843c0,8.373-6.463,14.905-14.641,14.905
	c-8.118,0-14.711-6.532-14.711-14.905c0-8.254,6.593-14.843,14.711-14.843H445.035 M444.974,380.39
	c-6.529,0-11.873,5.605-11.873,12.533c0,7.054,5.344,12.598,11.935,12.598c6.605,0.062,11.878-5.544,11.878-12.536
	c0-6.988-5.272-12.594-11.878-12.594L444.974,380.39L444.974,380.39z M442.203,401.564h-2.635v-16.562
	c1.382-0.198,2.697-0.393,4.675-0.393c2.512,0,4.16,0.524,5.152,1.252c0.988,0.729,1.514,1.842,1.514,3.429
	c0,2.176-1.449,3.493-3.235,4.022v0.13c1.449,0.269,2.438,1.587,2.771,4.026c0.394,2.574,0.793,3.562,1.056,4.095h-2.771
	c-0.397-0.533-0.797-2.048-1.124-4.218c-0.391-2.119-1.445-2.908-3.562-2.908h-1.841V401.564z M442.203,392.392h1.907
	c2.181,0,4.033-0.792,4.033-2.831c0-1.454-1.058-2.908-4.033-2.908c-0.854,0-1.456,0.067-1.907,0.134V392.392z"/>
</svg>
